<?xml version="1.0" standalone="no"?>
<!DOCTYPE svg PUBLIC "-//W3C//DTD SVG 1.1//EN" "http://www.w3.org/Graphics/SVG/1.1/DTD/svg11.dtd" >
<svg xmlns="http://www.w3.org/2000/svg" xmlns:xlink="http://www.w3.org/1999/xlink" version="1.1">
<metadata>
Created by FontForge 20170731 at Tue May 24 20:51:52 2016
 By ,,,
Copyright (c) 2015, Cadson Demak (info@cadsondemak.com)
</metadata>
<defs>
<font id="Prompt-Italic" horiz-adv-x="0" >
  <font-face 
    font-family="Prompt"
    font-weight="400"
    font-style="italic"
    font-stretch="normal"
    units-per-em="1000"
    panose-1="0 0 5 0 0 0 0 0 0 0"
    ascent="750"
    descent="-250"
    x-height="480"
    cap-height="699"
    bbox="-526 -368 1234 1061"
    underline-thickness="50"
    underline-position="-150"
    slope="-12"
    unicode-range="U+000D-FB02"
  />
<missing-glyph horiz-adv-x="504" 
d="M-5 714h414v-714h-414v714zM353 53v607h-302v-607h302z" />
    <glyph glyph-name="fi" unicode="fi" horiz-adv-x="597" 
d="M133 402h-73l17 78h73l19 91q17 83 78 128t144 45q41 0 75 -12l-17 -82q-27 11 -56 11q-51 0 -82.5 -24.5t-41.5 -71.5l-18 -85h324l-102 -480h-101l85 402h-223l-85 -402h-101zM508.5 587q-13.5 13 -13.5 33q0 29 22.5 50.5t51.5 21.5q22 0 35 -13t13 -34
q0 -29 -22.5 -50t-50.5 -21q-22 0 -35.5 13z" />
    <glyph glyph-name="fl" unicode="fl" horiz-adv-x="590" 
d="M133 402h-73l17 78h73l20 94q17 82 79 126t142 44q41 0 75 -12l-17 -82q-27 11 -55 11q-50 0 -82.5 -23.5t-42.5 -69.5l-18 -88h224l46 218h102l-148 -698h-102l85 402h-224l-85 -402h-101z" />
    <glyph glyph-name="ru_lakkhangyaothai" unicode="&#xe24;&#xe45;" horiz-adv-x="877" 
d="M494 335q5 27 5 45q0 46 -29.5 67.5t-93.5 21.5q-56 0 -100 -16t-87 -53l28 -67l-42 -198q-3 -13 -3 -23q0 -14 9 -20.5t29 -6.5h61l-18 -85h-106q-42 0 -63 19t-21 55q0 9 4 31l48 228l-33 81q68 67 143.5 101.5t167.5 34.5q86 0 138 -29q27 12 67 20.5t78 8.5
q83 0 124.5 -37.5t41.5 -107.5q0 -28 -8 -66l-114 -535h-102l115 542q6 29 6 51q0 37 -22.5 54.5t-75.5 17.5q-26 0 -54 -5q15 -30 15 -71q0 -27 -5 -50l-114 -539h-102z" />
    <glyph glyph-name="lu_lakkhangyaothai" unicode="&#xe26;&#xe45;" horiz-adv-x="895" 
d="M513 335q5 28 5 45q0 46 -29.5 67.5t-93.5 21.5q-55 0 -99 -15.5t-85 -50.5l45 -69l-48 -229q-11 -49 -43 -77t-82 -28h-88l18 85h42q27 0 39 10.5t18 39.5l42 198l-53 81q66 66 142.5 101t169.5 35q85 0 137 -29q27 12 67 20.5t78 8.5q82 0 123 -39t41 -108
q0 -32 -7 -64l-114 -535h-102l115 542q7 35 7 52q0 37 -22.5 54t-76.5 17q-25 0 -52 -5q15 -30 15 -69q0 -25 -6 -52l-114 -539h-102z" />
    <glyph glyph-name=".notdef" horiz-adv-x="504" 
d="M-5 714h414v-714h-414v714zM353 53v607h-302v-607h302z" />
    <glyph glyph-name=".null" horiz-adv-x="500" 
 />
    <glyph glyph-name="nonmarkingreturn" unicode="&#xd;" horiz-adv-x="260" 
 />
    <glyph glyph-name="space" unicode=" " horiz-adv-x="370" 
 />
    <glyph glyph-name="exclam" unicode="!" horiz-adv-x="209" 
d="M154 699h98l-106 -499h-98zM16 -2q-13 13 -13 33q0 29 22 50.5t50 21.5q22 0 35.5 -13.5t13.5 -33.5q0 -29 -23 -50t-51 -21q-21 0 -34 13z" />
    <glyph glyph-name="quotedbl" unicode="&#x22;" horiz-adv-x="338" 
d="M143 699h86l-40 -187h-86zM305 699h86l-40 -187h-86z" />
    <glyph glyph-name="numbersign" unicode="#" horiz-adv-x="763" 
d="M127 170h-96l17 80h118l90 182h-129l17 80h152l92 187h90l-93 -187h212l92 187h91l-92 -187h88l-17 -80h-111l-90 -182h122l-17 -80h-144l-84 -170h-91l84 170h-211l-84 -170h-90zM467 250l90 182h-211l-90 -182h211z" />
    <glyph glyph-name="dollar" unicode="$" horiz-adv-x="561" 
d="M187 -15q-57 2 -107 12t-80 27l19 91q81 -43 186 -45l53 247l-3 2q-76 34 -111.5 72t-35.5 91q0 25 5 45q15 74 77 123.5t151 60.5l20 91h88l-19 -89q81 -6 145 -37l-19 -88q-69 35 -144 39l-52 -244q78 -35 113.5 -69t35.5 -90q0 -21 -6 -48q-17 -78 -74.5 -125.5
t-152.5 -60.5l-19 -93h-88zM322 620q-51 -12 -78.5 -42t-27.5 -76q0 -25 15 -43.5t49 -37.5zM396 176q3 14 3 26q0 25 -14.5 43t-46.5 35l-43 -201q85 22 101 97z" />
    <glyph glyph-name="percent" unicode="%" horiz-adv-x="885" 
d="M179 366q-34 19 -53.5 52.5t-19.5 74.5q0 20 4 37q18 82 78.5 133t143.5 51q42 0 76 -19.5t53.5 -53t19.5 -75.5q0 -20 -4 -36q-17 -80 -78.5 -131.5t-144.5 -51.5q-41 0 -75 19zM686 699h99l-535 -699h-99zM353 452q37 31 47 76q4 22 4 32q0 35 -21.5 55.5t-66.5 20.5
q-46 0 -83 -31t-47 -77q-4 -22 -4 -31q0 -35 21.5 -55.5t66.5 -20.5q46 0 83 31zM527 4q-34 19 -53.5 52.5t-19.5 74.5q0 20 4 37q18 82 78.5 133t143.5 51q42 0 76 -19.5t53.5 -53t19.5 -75.5q0 -20 -4 -36q-17 -80 -78.5 -131.5t-144.5 -51.5q-41 0 -75 19zM701 90
q37 31 47 76q4 22 4 32q0 35 -21.5 55.5t-66.5 20.5q-46 0 -83 -31t-47 -77q-4 -22 -4 -31q0 -35 21.5 -55.5t66.5 -20.5q46 0 83 31z" />
    <glyph glyph-name="ampersand" unicode="&#x26;" horiz-adv-x="773" 
d="M86 24q-59 39 -59 111q0 20 4 39q15 67 63.5 115.5t141.5 95.5q-34 39 -50 69t-16 64q0 17 4 33q16 74 75.5 118.5t143.5 44.5q43 0 77.5 -18t54 -49t19.5 -68q0 -14 -3 -28q-12 -55 -50 -94t-120 -86l152 -180q24 29 39 68t27 97h89q-16 -77 -39 -129t-64 -100l108 -127
h-122l-57 68q-55 -43 -119 -63t-142 -20q-98 0 -157 39zM414 482.5q29 27.5 37 64.5q3 15 3 27q0 63 -77 63q-44 0 -74.5 -24.5t-38.5 -65.5q-2 -14 -2 -20q0 -24 14 -46t46 -59q63 33 92 60.5zM367.5 77.5q49.5 17.5 86.5 49.5l-165 201q-74 -33 -111.5 -68.5t-48.5 -85.5
q-3 -13 -3 -26q0 -44 35 -66t99 -22q58 0 107.5 17.5z" />
    <glyph glyph-name="quotesingle" unicode="'" horiz-adv-x="176" 
d="M143 699h86l-40 -187h-86z" />
    <glyph glyph-name="parenleft" unicode="(" horiz-adv-x="330" 
d="M34 104q0 78 18 166q28 131 90 243.5t152 200.5h107q-96 -97 -157.5 -206t-88.5 -238q-17 -79 -17 -157q0 -154 75 -287h-107q-72 118 -72 278z" />
    <glyph glyph-name="parenright" unicode=")" horiz-adv-x="330" 
d="M101 32q61 109 88 238q17 79 17 157q0 154 -75 287h107q72 -118 72 -278q0 -79 -18 -166q-28 -132 -90 -244t-152 -200h-106q96 97 157 206z" />
    <glyph glyph-name="asterisk" unicode="*" horiz-adv-x="436" 
d="M125 422l104 112l-112 44l36 54l104 -42l23 109h72l-23 -109l121 42l13 -57l-132 -43l58 -112l-61 -36l-53 106l-99 -107z" />
    <glyph glyph-name="plus" unicode="+" horiz-adv-x="409" 
d="M167 256h-118l18 83h118l25 118h82l-25 -118h119l-18 -83h-119l-25 -119h-82z" />
    <glyph glyph-name="comma" unicode="," horiz-adv-x="277" 
d="M87 53h106l-138 -201h-92z" />
    <glyph glyph-name="hyphen" unicode="-" horiz-adv-x="409" 
d="M67 339h319l-18 -83h-319z" />
    <glyph glyph-name="period" unicode="." horiz-adv-x="185" 
d="M14 10.5q-11 10.5 -11 27.5q0 6 1 9q4 20 21 34t37 14q17 0 27.5 -10t10.5 -27q0 -7 -1 -11q-4 -20 -20.5 -33.5t-36.5 -13.5q-17 0 -28 10.5z" />
    <glyph glyph-name="slash" unicode="/" horiz-adv-x="477" 
d="M431 714h102l-436 -714h-102z" />
    <glyph glyph-name="zero" unicode="0" horiz-adv-x="672" 
d="M116.5 52q-60.5 67 -60.5 185q0 54 13 112q37 172 132 268.5t236 96.5q106 0 166.5 -67t60.5 -185q0 -54 -13 -113q-36 -170 -133 -267t-236 -97q-105 0 -165.5 67zM456.5 148.5q66.5 73.5 92.5 199.5q14 67 14 116q0 158 -145 158q-90 0 -156 -74t-93 -200
q-13 -65 -13 -109q0 -164 145 -164q89 0 155.5 73.5z" />
    <glyph glyph-name="one" unicode="1" horiz-adv-x="363" 
d="M271 589l-174 -109l20 97l191 122h88l-148 -699h-102z" />
    <glyph glyph-name="two" unicode="2" horiz-adv-x="581" 
d="M9 67l182 145q15 12 67 52q68 53 104.5 84.5t63.5 68t36 78.5q4 19 4 38q0 89 -118 89q-47 0 -100.5 -17t-103.5 -50l21 98q98 61 218 61q86 0 137 -45.5t51 -121.5q0 -20 -5 -47q-10 -48 -40 -92t-75.5 -86t-122.5 -104l-164 -133h340l-18 -85h-491z" />
    <glyph glyph-name="three" unicode="3" horiz-adv-x="574" 
d="M90 -5.5q-54 9.5 -91 28.5l18 84q84 -42 191 -42q92 0 144 33.5t65 95.5q3 17 3 29q0 48 -40.5 69t-123.5 21h-82l17 82h80q75 0 128 30.5t65 89.5q4 17 4 35q0 42 -30.5 62.5t-96.5 20.5q-56 0 -103.5 -13t-102.5 -43l18 84q98 53 217 53q97 0 149.5 -42.5t52.5 -112.5
q0 -22 -4 -41q-11 -56 -50.5 -98t-104.5 -65q54 -13 82 -47t28 -81q0 -12 -4 -36q-19 -95 -96.5 -150.5t-218.5 -55.5q-60 0 -114 9.5z" />
    <glyph glyph-name="four" unicode="4" horiz-adv-x="601" 
d="M351 172h-340l14 65l437 462h104l-95 -447h108l-17 -80h-108l-36 -172h-103zM380 252l69 325l-306 -325h237z" />
    <glyph glyph-name="five" unicode="5" horiz-adv-x="570" 
d="M81.5 -3.5q-49.5 11.5 -81.5 31.5l20 91q36 -25 85 -38.5t96 -13.5q91 0 146 38.5t71 113.5q6 26 6 46q0 50 -35 75t-113 25q-36 0 -77 -7t-74 -19l-40 26l97 334h391l-18 -86h-298l-53 -180q63 13 128 13q90 0 142.5 -46.5t52.5 -126.5q0 -25 -6 -54q-49 -234 -335 -234
q-55 0 -104.5 11.5z" />
    <glyph glyph-name="six" unicode="6" horiz-adv-x="609" 
d="M102.5 41q-56.5 56 -56.5 158q0 40 9 85q43 208 152.5 319t269.5 111q55 0 96 -12l-19 -86q-31 15 -86 15q-214 0 -290 -257q38 38 91.5 57.5t112.5 19.5q52 0 94 -21.5t66.5 -61.5t24.5 -94q0 -25 -6 -52q-23 -107 -101 -172t-206 -65q-95 0 -151.5 56zM394.5 105.5
q49.5 41.5 64.5 113.5q5 21 5 46q0 106 -128 106q-66 0 -119 -42.5t-68 -111.5q-5 -23 -5 -40q0 -50 31.5 -81.5t95.5 -31.5q74 0 123.5 41.5z" />
    <glyph glyph-name="seven" unicode="7" horiz-adv-x="545" 
d="M486 613h-371l18 86h475l-16 -75l-413 -624h-100z" />
    <glyph glyph-name="eight" unicode="8" horiz-adv-x="602" 
d="M88 26q-58 41 -58 118q0 19 5 47q14 67 59 112.5t106 61.5q-35 16 -54.5 47t-19.5 72q0 20 4 39q19 88 92.5 139.5t179.5 51.5q89 0 142 -40.5t53 -110.5q0 -21 -4 -40q-12 -55 -48.5 -96.5t-89.5 -61.5q45 -13 71 -46.5t26 -83.5q0 -17 -5 -44q-21 -99 -101.5 -152.5
t-198.5 -53.5q-101 0 -159 41zM438 428.5q44 32.5 55 85.5q4 17 4 36q0 86 -111 86q-45 0 -82.5 -19.5t-58.5 -54t-21 -77.5q0 -42 28 -65.5t83 -23.5q59 0 103 32.5zM384 96q49 37 63 102q4 24 4 34q0 48 -33 74t-97 26q-69 0 -119.5 -36t-63.5 -98q-5 -23 -5 -39
q0 -48 33 -74t97 -26q72 0 121 37z" />
    <glyph glyph-name="nine" unicode="9" horiz-adv-x="609" 
d="M84 -3l18 85q36 -15 87 -15q215 0 290 257q-38 -38 -90.5 -57t-112.5 -19q-52 0 -94.5 21.5t-67 61.5t-24.5 94q0 25 6 52q15 68 56.5 122t106 84.5t143.5 30.5q96 0 153 -54t57 -155q0 -43 -10 -90q-92 -430 -423 -430q-56 0 -95 12zM439.5 370q53.5 42 68.5 111
q4 17 4 39q0 51 -31.5 82.5t-95.5 31.5q-70 0 -121 -42t-66 -112q-5 -27 -5 -44q0 -52 32 -80t95 -28q66 0 119.5 42z" />
    <glyph glyph-name="colon" unicode=":" horiz-adv-x="200" 
d="M96 383.5q-12 12.5 -12 31.5q0 27 20.5 47t47.5 20q19 0 31.5 -12.5t12.5 -31.5q0 -26 -21 -46.5t-47 -20.5q-20 0 -32 12.5zM21.5 32.5q-12.5 12.5 -12.5 31.5q0 27 21 47t47 20q19 0 31.5 -12.5t12.5 -31.5q0 -26 -20.5 -46.5t-46.5 -20.5q-20 0 -32.5 12.5z" />
    <glyph glyph-name="semicolon" unicode=";" horiz-adv-x="277" 
d="M169 383.5q-12 12.5 -12 31.5q0 27 20.5 47t47.5 20q19 0 31.5 -12.5t12.5 -31.5q0 -26 -21 -46.5t-47 -20.5q-20 0 -32 12.5zM87 53h106l-138 -201h-92z" />
    <glyph glyph-name="less" unicode="&#x3c;" horiz-adv-x="544" 
d="M56 287l15 73l501 223l-21 -105l-363 -158l296 -158l-22 -98z" />
    <glyph glyph-name="equal" unicode="=" horiz-adv-x="524" 
d="M91 454h434l-17 -82h-434zM49 258h434l-17 -81h-434z" />
    <glyph glyph-name="greater" unicode="&#x3e;" horiz-adv-x="544" 
d="M30 168l361 158l-294 158l21 99l407 -223l-15 -73l-502 -223z" />
    <glyph glyph-name="question" unicode="?" horiz-adv-x="515" 
d="M162 220q13 62 45 102.5t95 78.5q46 28 69 44.5t39 37t22 48.5q3 14 3 24q0 73 -122 73q-100 0 -194 -40l19 88q95 38 193 38q91 0 148 -39.5t57 -107.5q0 -19 -4 -36q-10 -52 -45 -88.5t-102 -79.5q-48 -30 -70.5 -47.5t-34.5 -39t-20 -57.5l-4 -20h-98zM126 -2
q-13 13 -13 33q0 29 22 50.5t50 21.5q22 0 35.5 -13.5t13.5 -33.5q0 -29 -23 -50t-51 -21q-21 0 -34 13z" />
    <glyph glyph-name="at" unicode="@" horiz-adv-x="910" 
d="M136.5 -5.5q-91.5 70.5 -91.5 201.5q0 40 9 86q27 128 99.5 225.5t182.5 152t247 54.5q153 0 236.5 -67.5t83.5 -189.5q0 -36 -10 -86q-25 -117 -82.5 -189.5t-150.5 -72.5q-37 0 -64.5 19.5t-30.5 52.5q-30 -35 -72.5 -53.5t-90.5 -18.5q-60 0 -100 34t-40 98q0 18 5 45
q23 105 94.5 171.5t181.5 66.5q40 0 79.5 -8.5t67.5 -23.5l-62 -232q-4 -15 -4 -30q0 -24 13 -36.5t36 -12.5q48 0 78.5 49.5t49.5 140.5q11 52 11 90q0 89 -58.5 131.5t-187.5 42.5q-104 0 -191 -42.5t-146.5 -122.5t-82.5 -188q-9 -45 -9 -82q0 -199 263 -199
q103 0 196 29l-16 -74q-90 -32 -197 -32q-155 0 -246.5 70.5zM508.5 210.5q32.5 27.5 43.5 66.5l45 162q-30 11 -72 11q-59 0 -104.5 -44t-59.5 -113q-6 -27 -6 -47q0 -32 17 -47.5t55 -15.5q49 0 81.5 27.5z" />
    <glyph glyph-name="A" unicode="A" horiz-adv-x="746" 
d="M422 699h98l131 -699h-101l-34 174h-309l-104 -174h-108zM507 259l-57 327l-195 -327h252z" />
    <glyph glyph-name="B" unicode="B" horiz-adv-x="649" 
d="M163 699h321q74 0 117.5 -37t43.5 -102q0 -22 -6 -49q-12 -52 -44.5 -91.5t-76.5 -58.5q40 -13 61.5 -44t21.5 -75q0 -19 -5 -44q-20 -94 -84 -146t-159 -52h-338zM407 399q49 0 83 27t45 80q5 25 5 39q0 38 -23.5 54.5t-70.5 16.5h-199l-46 -217h206zM347 83
q65 0 98.5 25t47.5 90q5 25 5 40q0 41 -27 59t-84 18h-204l-49 -232h213z" />
    <glyph glyph-name="C" unicode="C" horiz-adv-x="710" 
d="M207.5 19.5q-68.5 34.5 -108 98t-39.5 148.5q0 40 9 83q23 110 85.5 192.5t155.5 127.5t206 45q144 0 226 -73l-21 -98q-71 77 -216 77q-128 0 -217.5 -73t-115.5 -198q-8 -35 -8 -74q0 -94 58.5 -146t167.5 -52q74 0 136.5 19.5t121.5 62.5l-21 -99q-106 -75 -266 -75
q-85 0 -153.5 34.5z" />
    <glyph glyph-name="D" unicode="D" horiz-adv-x="703" 
d="M163 699h225q145 0 224 -72t79 -195q0 -36 -8 -79q-33 -176 -150.5 -264.5t-306.5 -88.5h-211zM243 85q140 0 224.5 69t112.5 199q9 44 9 81q0 179 -218 179h-124l-112 -528h108z" />
    <glyph glyph-name="E" unicode="E" horiz-adv-x="566" 
d="M163 699h461l-18 -86h-359l-47 -221h268l-18 -85h-268l-47 -222h359l-18 -85h-461z" />
    <glyph glyph-name="F" unicode="F" horiz-adv-x="551" 
d="M163 699h461l-18 -86h-359l-48 -223h268l-17 -81h-268l-65 -309h-102z" />
    <glyph glyph-name="G" unicode="G" horiz-adv-x="716" 
d="M203.5 18.5q-68.5 33.5 -106.5 96.5t-38 147q0 43 10 87q23 109 87.5 192t158 128t201.5 45q74 0 129.5 -17.5t96.5 -54.5l-21 -98q-38 39 -89.5 57.5t-126.5 18.5q-79 0 -149 -33t-118.5 -94.5t-65.5 -143.5q-9 -42 -9 -78q0 -92 57 -143t166 -51q46 0 87 9.5t70 27.5
l39 183h-133l17 83h235l-68 -320q-106 -75 -272 -75q-89 0 -157.5 33.5z" />
    <glyph glyph-name="H" unicode="H" horiz-adv-x="699" 
d="M163 699h102l-64 -300h365l64 300h102l-148 -699h-102l66 313h-365l-66 -313h-102z" />
    <glyph glyph-name="I" unicode="I" horiz-adv-x="233" 
d="M163 699h103l-148 -699h-103z" />
    <glyph glyph-name="J" unicode="J" horiz-adv-x="373" 
d="M19.5 -10q-29.5 5 -44.5 12l18 87q14 -6 37 -10t43 -4q56 0 85 24t40 76l111 524h102l-113 -531q-19 -89 -74 -136t-147 -47q-28 0 -57.5 5z" />
    <glyph glyph-name="K" unicode="K" horiz-adv-x="670" 
d="M163 699h102l-148 -699h-102zM197 356l392 343h124l-394 -345l264 -354h-122z" />
    <glyph glyph-name="L" unicode="L" horiz-adv-x="546" 
d="M163 699h102l-130 -614h354l-18 -85h-456z" />
    <glyph glyph-name="M" unicode="M" horiz-adv-x="832" 
d="M163 699h99l133 -545l365 545h105l-148 -699h-99l105 497l-332 -497h-50l-123 497l-105 -497h-98z" />
    <glyph glyph-name="N" unicode="N" horiz-adv-x="686" 
d="M163 699h97l244 -527l112 527h103l-148 -699h-98l-244 527l-112 -527h-102z" />
    <glyph glyph-name="O" unicode="O" horiz-adv-x="826" 
d="M206.5 20q-68.5 35 -107.5 99.5t-39 148.5q0 39 9 81q23 108 87 191t157 128.5t201 45.5q86 0 154.5 -35t107 -99t38.5 -149q0 -38 -9 -82q-23 -108 -86.5 -190.5t-156.5 -128t-203 -45.5q-84 0 -152.5 35zM520.5 110.5q67.5 33.5 115.5 95t66 143.5q8 36 8 76
q0 92 -55.5 143.5t-160.5 51.5q-75 0 -142 -33.5t-115 -95t-65 -142.5q-9 -40 -9 -75q0 -93 56.5 -145t159.5 -52q74 0 141.5 33.5z" />
    <glyph glyph-name="P" unicode="P" horiz-adv-x="603" 
d="M163 699h269q93 0 148 -45t55 -124q0 -20 -5 -48q-21 -106 -98 -160.5t-192 -54.5h-167l-56 -267h-102zM347 352q70 0 117.5 29t62.5 101q6 27 6 47q0 47 -31.5 65.5t-98.5 18.5h-156l-56 -261h156z" />
    <glyph glyph-name="Q" unicode="Q" horiz-adv-x="817" 
d="M209.5 32.5q-72.5 32.5 -111 93t-38.5 143.5q0 39 9 82q23 108 87 190.5t157 127.5t201 45q89 0 157 -34t106 -96.5t38 -146.5q0 -36 -10 -86q-18 -85 -71 -155.5t-125 -107.5h151l-18 -88h-361q-99 0 -171.5 32.5zM525.5 123q66.5 30 112.5 88.5t63 139.5q9 42 9 79
q0 91 -54 140.5t-162 49.5q-74 0 -141.5 -33t-115.5 -94t-65 -142q-9 -40 -9 -76q0 -89 55.5 -135.5t163.5 -46.5q77 0 143.5 30z" />
    <glyph glyph-name="R" unicode="R" horiz-adv-x="623" 
d="M163 699h281q91 0 142 -42.5t51 -117.5q0 -25 -6 -52q-17 -79 -67.5 -132t-132.5 -71l94 -284h-106l-91 276h-153l-58 -276h-102zM355 362q67 0 113.5 31.5t59.5 93.5q5 21 5 44q0 45 -28.5 63.5t-87.5 18.5h-170l-54 -251h162z" />
    <glyph glyph-name="S" unicode="S" horiz-adv-x="561" 
d="M89.5 -4.5q-55.5 10.5 -89.5 28.5l19 92q87 -45 198 -45q156 0 178 105q3 15 3 26q0 26 -15 44t-42.5 32.5t-85.5 39.5q-74 31 -110.5 71t-36.5 94q0 19 5 44q17 85 91 136t186 51q57 0 101.5 -9t83.5 -29l-19 -88q-78 39 -167 39q-72 0 -115.5 -26t-53.5 -74
q-3 -13 -3 -24q0 -36 29.5 -58.5t105.5 -56.5q83 -36 120 -71t37 -92q0 -22 -6 -49q-19 -92 -93 -141.5t-205 -49.5q-60 0 -115.5 10.5z" />
    <glyph glyph-name="T" unicode="T" horiz-adv-x="587" 
d="M322 613h-217l18 86h537l-18 -86h-217l-130 -613h-103z" />
    <glyph glyph-name="U" unicode="U" horiz-adv-x="697" 
d="M118.5 39.5q-61.5 54.5 -61.5 150.5q0 31 8 71l93 438h102l-94 -442q-7 -31 -7 -60q0 -62 38.5 -91t117.5 -29q86 0 145.5 45.5t78.5 134.5l94 442h102l-93 -438q-58 -276 -347 -276q-115 0 -176.5 54.5z" />
    <glyph glyph-name="V" unicode="V" horiz-adv-x="746" 
d="M143 699h105l101 -560l339 560h111l-427 -699h-98z" />
    <glyph glyph-name="W" unicode="W" horiz-adv-x="1001" 
d="M143 699h106l43 -531l267 531h80l40 -531l269 531h106l-352 -699h-94l-43 528l-266 -528h-100z" />
    <glyph glyph-name="X" unicode="X" horiz-adv-x="732" 
d="M332 355l-179 344h117l138 -264l250 264h117l-326 -344l187 -355h-117l-145 276l-261 -276h-117z" />
    <glyph glyph-name="Y" unicode="Y" horiz-adv-x="700" 
d="M305 265l-162 434h106l123 -337l270 337h111l-349 -434l-56 -265h-99z" />
    <glyph glyph-name="Z" unicode="Z" horiz-adv-x="618" 
d="M9 69l503 544h-378l18 86h502l-15 -70l-501 -544h403l-18 -85h-528z" />
    <glyph glyph-name="bracketleft" unicode="[" horiz-adv-x="305" 
d="M162 787h225l-18 -86h-123l-152 -712h123l-18 -85h-225z" />
    <glyph glyph-name="backslash" unicode="\" horiz-adv-x="474" 
d="M146 714h99l134 -714h-99z" />
    <glyph glyph-name="bracketright" unicode="]" horiz-adv-x="305" 
d="M-18 -11h122l152 712h-122l18 86h225l-188 -883h-225z" />
    <glyph glyph-name="asciicircum" unicode="^" horiz-adv-x="548" 
d="M336 719h80l119 -329h-95l-81 232l-182 -232h-100z" />
    <glyph glyph-name="underscore" unicode="_" horiz-adv-x="487" 
d="M-5 0h397l-19 -88h-397z" />
    <glyph glyph-name="grave" unicode="`" horiz-adv-x="265" 
d="M152 742h107l32 -172h-92z" />
    <glyph glyph-name="a" unicode="a" horiz-adv-x="660" 
d="M138.5 9q-46.5 24 -73 68t-26.5 103q0 28 6 59q16 75 61 133t109.5 90.5t136.5 32.5q129 0 180 -79l14 64h101l-102 -480h-98l14 70q-49 -44 -101 -64.5t-117 -20.5q-58 0 -104.5 24zM398.5 97.5q53.5 32.5 84.5 87.5l23 108q-5 55 -46 88t-103 33q-74 0 -133.5 -48.5
t-76.5 -126.5q-7 -35 -7 -57q0 -117 143 -117q62 0 115.5 32.5z" />
    <glyph glyph-name="b" unicode="b" horiz-adv-x="660" 
d="M201 5.5q-43 20.5 -74 64.5l-14 -70h-98l157 739h101l-69 -323q41 39 97.5 59t116.5 20q58 0 104.5 -24.5t73 -69.5t26.5 -103q0 -22 -7 -59q-25 -117 -107 -185.5t-199 -68.5q-65 0 -108 20.5zM437 113q59 48 76 126q7 29 7 57q0 118 -143 118q-61 0 -115.5 -33
t-83.5 -88l-23 -108q7 -55 46.5 -87.5t101.5 -32.5q75 0 134 48z" />
    <glyph glyph-name="c" unicode="c" horiz-adv-x="547" 
d="M101.5 37q-62.5 52 -62.5 143q0 28 6 59q26 120 112.5 188t217.5 68q110 0 167 -43l-18 -83q-55 45 -157 45q-80 0 -140.5 -45t-79.5 -130q-6 -30 -6 -55q0 -60 37.5 -89.5t112.5 -29.5q101 0 185 48l-18 -82q-40 -24 -87 -35t-107 -11q-100 0 -162.5 52z" />
    <glyph glyph-name="d" unicode="d" horiz-adv-x="660" 
d="M137.5 8.5q-46.5 23.5 -73 67.5t-26.5 103q0 23 7 60q16 76 59.5 134t107.5 90t140 32q129 0 180 -79l69 323h101l-157 -739h-98l14 70q-49 -44 -101 -64.5t-117 -20.5q-59 0 -105.5 23.5zM398.5 97.5q53.5 32.5 84.5 87.5l23 108q-5 55 -46 88t-103 33
q-80 0 -136.5 -47.5t-73.5 -127.5q-5 -21 -5 -48q0 -60 36 -93t105 -33q62 0 115.5 32.5z" />
    <glyph glyph-name="e" unicode="e" horiz-adv-x="608" 
d="M101.5 35.5q-63.5 50.5 -63.5 142.5q0 30 7 61q26 120 105.5 188t209.5 68q67 0 115 -24.5t72.5 -67.5t24.5 -97q0 -27 -6 -56l-11 -50h-422q-2 -18 -2 -26q0 -57 42 -83t131 -26q46 0 95 8.5t88 22.5l-17 -81q-35 -13 -89.5 -21.5t-105.5 -8.5q-110 0 -173.5 50.5z
M475 271q4 26 4 37q0 106 -139 106q-76 0 -126.5 -39t-65.5 -104h327z" />
    <glyph glyph-name="f" unicode="f" horiz-adv-x="353" 
d="M133 402h-73l17 78h73l20 94q35 170 209 170q41 0 74 -12l-18 -84q-24 13 -55 13q-47 0 -74 -22.5t-37 -70.5l-18 -88h120l-17 -78h-120l-85 -402h-101z" />
    <glyph glyph-name="g" unicode="g" horiz-adv-x="660" 
d="M123 -222q-45 8 -74 23l18 83q68 -34 167 -34q93 0 144 41t68 122l11 51q-82 -79 -211 -79q-59 0 -106 24.5t-73.5 69t-26.5 103.5q0 28 6 58q24 117 105.5 186t200.5 69q67 0 109 -19.5t73 -64.5l15 69h98l-97 -456q-27 -125 -106 -189.5t-227 -64.5q-49 0 -94 8z
M399.5 98q54.5 33 83.5 88l23 108q-7 56 -47 88t-102 32q-79 0 -135.5 -47.5t-73.5 -126.5q-6 -25 -6 -49q0 -59 36.5 -92.5t104.5 -33.5q62 0 116.5 33z" />
    <glyph glyph-name="h" unicode="h" horiz-adv-x="600" 
d="M172 739h101l-70 -325q86 81 202 81q76 0 115.5 -37.5t39.5 -101.5q0 -28 -5 -49l-65 -307h-101l63 297q5 21 5 46q0 36 -21.5 53.5t-71.5 17.5q-48 0 -94 -22.5t-86 -68.5l-68 -323h-101z" />
    <glyph glyph-name="i" unicode="i" horiz-adv-x="250" 
d="M161 587q-13 13 -13 33q0 29 22.5 50.5t50.5 21.5q22 0 35.5 -13t13.5 -34q0 -29 -22.5 -50t-51.5 -21q-22 0 -35 13zM125 480h103l-102 -480h-103z" />
    <glyph glyph-name="j" unicode="j" horiz-adv-x="250" 
d="M161.5 587q-13.5 13 -13.5 33q0 29 22.5 50.5t51.5 21.5q22 0 35 -13t13 -34q0 -29 -22.5 -50t-50.5 -21q-22 0 -35.5 13zM-166 -220l17 83q24 -12 58 -12q44 0 67.5 21t34.5 70l115 538h102l-116 -545q-18 -86 -69.5 -126t-135.5 -40q-45 0 -73 11z" />
    <glyph glyph-name="k" unicode="k" horiz-adv-x="569" 
d="M172 739h101l-157 -739h-101zM168 243l272 237h123l-273 -237l194 -243h-123z" />
    <glyph glyph-name="l" unicode="l" horiz-adv-x="231" 
d="M172 739h101l-157 -739h-101z" />
    <glyph glyph-name="m" unicode="m" horiz-adv-x="867" 
d="M117 480h96l-15 -69q43 42 90 63t94 21q104 0 125 -79q41 39 91.5 59t97.5 20q69 0 101.5 -32t32.5 -89q0 -25 -6 -55l-67 -319h-98l65 306q6 29 6 49q0 32 -18 45.5t-60 13.5q-79 0 -141 -66q-1 -13 -8 -49l-63 -299h-98l65 306q6 29 6 49q0 32 -16.5 45.5t-53.5 13.5
q-39 0 -80 -21.5t-80 -64.5l-69 -328h-99z" />
    <glyph glyph-name="n" unicode="n" horiz-adv-x="600" 
d="M117 480h98l-15 -69q44 43 97.5 63.5t107.5 20.5q76 0 115.5 -39t39.5 -103q0 -19 -5 -46l-65 -307h-101l63 297q6 29 6 50q0 35 -21.5 51t-72.5 16q-48 0 -94 -22.5t-86 -68.5l-68 -323h-101z" />
    <glyph glyph-name="o" unicode="o" horiz-adv-x="637" 
d="M98.5 36q-60.5 51 -60.5 141q0 31 7 62q16 77 61.5 135t114 89.5t152.5 31.5q105 0 165.5 -52.5t60.5 -142.5q0 -30 -7 -61q-25 -118 -112.5 -186t-215.5 -68q-105 0 -165.5 51zM415 113q56 48 73 126q6 30 6 56q0 119 -139 119q-78 0 -134 -47t-73 -128q-6 -28 -6 -53
q0 -58 34 -89.5t105 -31.5q78 0 134 48z" />
    <glyph glyph-name="p" unicode="p" horiz-adv-x="660" 
d="M117 480h98l-16 -71q93 86 219 86q93 0 149 -52t56 -141q0 -31 -7 -62q-16 -76 -59.5 -134t-107 -89.5t-140.5 -31.5q-121 0 -180 79l-60 -283h-101zM437.5 113.5q59.5 48.5 76.5 126.5q5 21 5 49q0 59 -36 92t-106 33q-61 0 -114 -32t-85 -88l-23 -108q6 -56 44.5 -88.5
t103.5 -32.5q75 0 134.5 48.5z" />
    <glyph glyph-name="q" unicode="q" horiz-adv-x="660" 
d="M457 64q-41 -39 -97.5 -59t-116.5 -20q-59 0 -105.5 24t-72.5 68t-26 103q0 31 7 60q16 76 59.5 134t107.5 89.5t139 31.5q126 0 181 -86l16 71h98l-149 -699h-101zM399.5 98.5q55.5 33.5 83.5 87.5l23 108q-8 56 -48 88t-101 32q-79 0 -135.5 -47.5t-73.5 -126.5
q-6 -27 -6 -51q0 -59 35.5 -91.5t105.5 -32.5q61 0 116.5 33.5z" />
    <glyph glyph-name="r" unicode="r" horiz-adv-x="399" 
d="M117 480h98l-19 -86q39 44 98.5 65t131.5 21l-17 -79q-77 0 -137 -25t-93 -79l-63 -297h-101z" />
    <glyph glyph-name="s" unicode="s" horiz-adv-x="489" 
d="M84.5 -2.5q-53.5 12.5 -80.5 33.5l18 86q34 -24 82.5 -38t95.5 -14q54 0 82 13t34 42q2 10 2 14q0 16 -11 27t-34.5 20.5t-71.5 24.5q-67 21 -100.5 48.5t-33.5 71.5q0 14 3 29q31 140 231 140q48 0 91.5 -9t68.5 -25l-17 -84q-25 17 -66 27t-85 10q-53 0 -83.5 -13
t-37.5 -46q-2 -10 -2 -13q0 -16 11.5 -26t35 -18.5t73.5 -23.5q69 -20 101 -48t32 -72q0 -9 -4 -33q-29 -136 -231 -136q-50 0 -103.5 12.5z" />
    <glyph glyph-name="t" unicode="t" horiz-adv-x="374" 
d="M104 13.5q-31 28.5 -31 82.5q0 23 6 50l54 256h-73l17 78h73l30 144h102l-30 -144h118l-17 -78h-118l-53 -249q-5 -27 -5 -40q0 -26 14.5 -37t49.5 -11q15 0 34.5 3.5t34.5 9.5l-17 -80q-40 -13 -97 -13q-61 0 -92 28.5z" />
    <glyph glyph-name="u" unicode="u" horiz-adv-x="600" 
d="M84 25.5q-42 40.5 -42 105.5q0 18 5 45l65 304h101l-64 -300q-5 -25 -5 -41q0 -38 22.5 -56t72.5 -18q101 0 178 91l69 324h101l-102 -480h-98l14 68q-83 -83 -199 -83q-76 0 -118 40.5z" />
    <glyph glyph-name="v" unicode="v" horiz-adv-x="586" 
d="M97 480h104l67 -345l215 345h110l-306 -480h-88z" />
    <glyph glyph-name="w" unicode="w" horiz-adv-x="818" 
d="M97 480h103l32 -356l183 356h91l31 -356l184 356h104l-258 -480h-94l-35 358l-187 -358h-101z" />
    <glyph glyph-name="x" unicode="x" horiz-adv-x="617" 
d="M254 251l-139 229h115l96 -159l165 159h115l-237 -229l153 -251h-114l-112 181l-187 -181h-114z" />
    <glyph glyph-name="y" unicode="y" horiz-adv-x="587" 
d="M73 -222q-45 8 -74 23l18 83q68 -34 167 -34q90 0 134.5 39.5t67.5 123.5l18 70q-83 -83 -199 -83q-76 0 -118 40.5t-42 105.5q0 18 5 45l62 289h101l-61 -285q-5 -25 -5 -41q0 -38 22.5 -56t72.5 -18q101 0 178 91l66 309h101l-97 -456q-27 -126 -102 -190t-221 -64
q-49 0 -94 8z" />
    <glyph glyph-name="z" unicode="z" horiz-adv-x="499" 
d="M8 65l345 337h-267l17 78h393l-15 -66l-344 -336h283l-16 -78h-409z" />
    <glyph glyph-name="braceleft" unicode="{" horiz-adv-x="343" 
d="M83.5 -81.5q-17.5 15.5 -17.5 47.5q0 17 4 33l48 226q3 15 3 27q0 49 -53 49h-20l19 88h20q66 0 82 76l48 226q10 48 37 72t67 24h94l-18 -86h-37q-21 0 -32 -10.5t-16 -34.5l-44 -210q-20 -86 -89 -106v-2q47 -15 47 -69q0 -20 -4 -37l-42 -198q-3 -12 -3 -20
q0 -13 7 -19t24 -6h37l-18 -86h-94q-32 0 -49.5 15.5z" />
    <glyph glyph-name="bar" unicode="|" horiz-adv-x="192" 
d="M167 812h102l-203 -956h-102z" />
    <glyph glyph-name="braceright" unicode="}" horiz-adv-x="343" 
d="M-8 -11h37q21 0 32 10.5t16 34.5l44 208q18 87 89 106v2q-48 17 -48 69q0 14 5 37l42 200q3 12 3 20q0 13 -7 19t-24 6h-37l18 86h94q66 0 66 -62q0 -18 -4 -34l-48 -226q-3 -13 -3 -26q0 -50 53 -50h20l-19 -88h-20q-65 0 -82 -76l-48 -226q-20 -96 -103 -96h-94z" />
    <glyph glyph-name="asciitilde" unicode="~" horiz-adv-x="550" 
d="M345.5 283q-25.5 8 -57.5 23q-36 15 -59.5 22.5t-50.5 7.5q-35 0 -65 -14t-60 -46l20 95q19 25 52 38.5t71 13.5q30 0 55.5 -8t61.5 -24q35 -15 57 -22t48 -7q73 0 126 60l-20 -95q-20 -25 -53 -38.5t-71 -13.5q-29 0 -54.5 8z" />
    <glyph glyph-name="uni00A0" unicode="&#xa0;" horiz-adv-x="370" 
 />
    <glyph glyph-name="exclamdown" unicode="&#xa1;" horiz-adv-x="209" 
d="M111 445q-13 13 -13 33q0 29 22 50.5t50 21.5q22 0 35.5 -13.5t13.5 -33.5q0 -29 -22.5 -50t-51.5 -21q-21 0 -34 13zM76 332h98l-106 -499h-98z" />
    <glyph glyph-name="cent" unicode="&#xa2;" horiz-adv-x="547" 
d="M221 -13q-86 10 -134.5 58.5t-48.5 129.5q0 32 7 64q22 106 99 173t184 80l19 88h89l-19 -87q78 -6 125 -41l-18 -83q-46 38 -124 44l-74 -347q83 8 150 47l-18 -82q-63 -38 -149 -44l-18 -88h-89zM310 408q-62 -13 -105 -56t-58 -113q-6 -25 -6 -48q0 -49 26 -79.5
t71 -41.5z" />
    <glyph glyph-name="sterling" unicode="&#xa3;" horiz-adv-x="491" 
d="M12 82h80l54 254h-74l17 82h74l25 114q18 86 84 134t150 48q40 0 76 -12l-18 -83q-22 11 -55 11q-55 0 -89.5 -26t-44.5 -77l-24 -109h175l-17 -82h-175l-54 -254h217l-17 -82h-401z" />
    <glyph glyph-name="currency" unicode="&#xa4;" horiz-adv-x="590" 
d="M17 107l99 63q-15 29 -15 64q0 22 4 39q13 60 55 104l-72 63l56 55l72 -70q58 41 128 41q66 0 109 -41l103 70l32 -55l-98 -63q15 -33 15 -68q0 -20 -4 -36q-12 -55 -55 -103l71 -63l-55 -55l-74 68q-59 -40 -126 -40t-110 40l-102 -68zM367.5 190q40.5 34 51.5 83
q4 22 4 32q0 39 -23.5 62.5t-71.5 23.5q-49 0 -89.5 -34t-51.5 -84q-3 -16 -3 -30q0 -39 24 -63t70 -24q49 0 89.5 34z" />
    <glyph glyph-name="yen" unicode="&#xa5;" horiz-adv-x="701" 
d="M271 105h-138l14 69h138l16 73h-138l14 68h109l-143 384h106l123 -337l270 337h111l-308 -384h109l-14 -68h-139l-16 -73h139l-14 -69h-139l-22 -105h-100z" />
    <glyph glyph-name="brokenbar" unicode="&#xa6;" horiz-adv-x="193" 
d="M167 812h103l-81 -383h-103zM45 238h103l-81 -382h-103z" />
    <glyph glyph-name="section" unicode="&#xa7;" horiz-adv-x="561" 
d="M56.5 -159.5q-55.5 10.5 -89.5 28.5l19 92q87 -45 198 -45q77 0 121 27t55 78q3 15 3 27q0 26 -14.5 44t-42.5 33t-84 39q-76 32 -111.5 71t-35.5 93q0 17 5 44q9 44 36 75q-8 21 -8 41q0 16 5 39q11 55 50 97.5t98 66t129 23.5q57 0 101.5 -9t83.5 -29l-19 -89
q-40 21 -80.5 30.5t-89.5 9.5q-74 0 -120.5 -34.5t-46.5 -88.5q0 -34 30 -59.5t102 -59.5q59 -28 91 -47.5t49.5 -46t17.5 -65.5q0 -23 -6 -50q-8 -38 -34 -76q5 -20 5 -40t-4 -39q-19 -91 -95 -141t-203 -50q-60 0 -115.5 10.5zM422 184q2 8 2 22q0 37 -30 61t-101 54
q-39 16 -71 36t-44 39q-9 -14 -14 -36q-2 -7 -2 -20q0 -34 29.5 -59.5t93.5 -52.5q51 -23 81 -41t44 -38q9 23 12 35z" />
    <glyph glyph-name="dieresis" unicode="&#xa8;" horiz-adv-x="433" 
d="M143.5 598q-13.5 13 -13.5 33q0 27 22.5 48.5t49.5 21.5q20 0 33 -13t13 -33q0 -27 -22 -48.5t-49 -21.5q-20 0 -33.5 13zM370.5 598q-13.5 13 -13.5 33q0 27 22.5 48.5t49.5 21.5q20 0 33 -13t13 -33q0 -27 -22 -48.5t-49 -21.5q-20 0 -33.5 13z" />
    <glyph glyph-name="copyright" unicode="&#xa9;" horiz-adv-x="823" 
d="M202 19.5q-68 34.5 -105.5 97.5t-37.5 146q0 36 10 86q22 107 88.5 190t160 129t195.5 46q88 0 155.5 -34.5t105 -98t37.5 -147.5q0 -40 -9 -85q-23 -107 -89 -189.5t-159.5 -128.5t-195.5 -46q-88 0 -156 34.5zM523.5 105q69.5 33 118.5 96t68 148q8 40 8 69
q0 97 -61 152.5t-162 55.5q-79 0 -148.5 -33.5t-118.5 -96t-67 -147.5q-8 -40 -8 -71q0 -97 61.5 -151.5t162.5 -54.5q77 0 146.5 33zM246.5 163q-51.5 45 -51.5 126q0 22 7 59q15 71 56 123t99.5 79.5t125.5 27.5q101 0 151 -39l-16 -76q-49 41 -140 41q-73 0 -122.5 -39.5
t-66.5 -116.5q-5 -28 -5 -46q0 -54 33 -81.5t92 -27.5q48 0 88.5 10.5t78.5 33.5l-16 -76q-74 -43 -176 -43q-86 0 -137.5 45z" />
    <glyph glyph-name="ordfeminine" unicode="&#xaa;" horiz-adv-x="423" 
d="M123.5 373.5q-32.5 24.5 -32.5 67.5q0 12 3 25q11 56 55 87.5t110 31.5q68 0 112 -28l4 20q3 14 3 25q0 27 -20.5 39t-68.5 12q-65 0 -118 -22l12 60q24 10 59.5 16.5t68.5 6.5q70 0 106 -28t36 -79q0 -18 -4 -34l-45 -213h-70l7 35q-27 -23 -59.5 -34.5t-75.5 -11.5
q-50 0 -82.5 24.5zM300 419q30 13 49 37l10 43q-38 29 -97 29q-80 0 -92 -62q-2 -12 -2 -18q0 -22 16 -32t51 -10t65 13z" />
    <glyph glyph-name="guillemotleft" unicode="&#xab;" horiz-adv-x="599" 
d="M60 308l6 30l274 197l37 -70l-208 -148l145 -147l-64 -58zM287 308l6 30l274 197l37 -70l-208 -148l145 -147l-64 -58z" />
    <glyph glyph-name="logicalnot" unicode="&#xac;" horiz-adv-x="440" 
d="M304 258h-255l17 80h350l-43 -204h-95z" />
    <glyph glyph-name="uni00AD" unicode="&#xad;" horiz-adv-x="409" 
d="M67 339h319l-18 -83h-319z" />
    <glyph glyph-name="registered" unicode="&#xae;" horiz-adv-x="823" 
d="M202 19.5q-68 34.5 -105.5 97.5t-37.5 146q0 36 10 86q22 107 88.5 190t160 129t195.5 46q88 0 155.5 -34.5t105 -98t37.5 -147.5q0 -40 -9 -85q-23 -107 -89 -189.5t-159.5 -128.5t-195.5 -46q-88 0 -156 34.5zM523.5 105q69.5 33 118.5 96t68 148q8 40 8 69
q0 97 -61 152.5t-162 55.5q-79 0 -148.5 -33.5t-118.5 -96t-67 -147.5q-8 -40 -8 -71q0 -97 61.5 -151.5t162.5 -54.5q77 0 146.5 33zM331 575h177q62 0 96 -24.5t34 -72.5q0 -19 -4 -36q-11 -49 -47 -83.5t-92 -44.5l54 -186h-81l-54 182h-61l-38 -182h-79zM458 373
q45 0 70 16t32 53q3 14 3 25q0 26 -18.5 35t-57.5 9h-91l-29 -138h91z" />
    <glyph glyph-name="macron" unicode="&#xaf;" horiz-adv-x="401" 
d="M138 673h311l-15 -69h-311z" />
    <glyph glyph-name="degree" unicode="&#xb0;" horiz-adv-x="378" 
d="M148 472q-33 33 -33 82q0 45 26 85t67.5 64t84.5 24q51 0 83.5 -32.5t32.5 -81.5q0 -15 -3 -30q-8 -39 -34.5 -72t-63.5 -52.5t-76 -19.5q-51 0 -84 33zM310.5 534.5q29.5 28.5 29.5 64.5q0 26 -17.5 43t-44.5 17q-36 0 -65.5 -28t-29.5 -64q0 -26 17.5 -43.5t44.5 -17.5
q36 0 65.5 28.5z" />
    <glyph glyph-name="plusminus" unicode="&#xb1;" horiz-adv-x="409" 
d="M169 266h-118l18 83h118l25 118h82l-25 -118h119l-18 -83h-119l-25 -119h-82zM12 82h319l-17 -82h-319z" />
    <glyph glyph-name="uni00B2" unicode="&#xb2;" horiz-adv-x="341" 
d="M84 420l86 63l21 15q59 42 81 64.5t22 50.5q0 16 -11 23.5t-35 7.5t-55 -8.5t-53 -21.5l14 67q22 12 54 20t58 8q50 0 78.5 -23.5t28.5 -60.5q0 -6 -2 -20q-5 -26 -18.5 -45t-32 -34.5t-60.5 -45.5l-70 -50h147l-13 -60h-251z" />
    <glyph glyph-name="uni00B3" unicode="&#xb3;" horiz-adv-x="345" 
d="M75 378l13 60q17 -10 44.5 -15.5t52.5 -5.5q72 0 83 45q1 4 1 12q0 17 -15.5 25t-49.5 8h-46l12 57h45q66 0 75 43q1 3 1 8q0 35 -59 35q-49 0 -98 -26l13 59q49 26 118 26q50 0 79 -21t29 -56q0 -5 -2 -17q-11 -56 -73 -79q51 -10 51 -58q0 -7 -2 -21q-10 -45 -52 -71
t-107 -26q-76 0 -113 18z" />
    <glyph glyph-name="acute" unicode="&#xb4;" horiz-adv-x="265" 
d="M224 753h106l-120 -172h-92z" />
    <glyph glyph-name="paragraph" unicode="&#xb6;" horiz-adv-x="741" 
d="M358 266h-61q-92 0 -146.5 46t-54.5 133q0 32 7 66q26 122 110 186.5t202 64.5h392l-190 -896h-103l172 810h-139l-172 -810h-102z" />
    <glyph glyph-name="periodcentered" unicode="&#xb7;" horiz-adv-x="185" 
d="M67 257.5q-11 10.5 -11 26.5q0 23 18 41t40 18q17 0 28 -10.5t11 -27.5q0 -24 -18 -41t-41 -17q-16 0 -27 10.5z" />
    <glyph glyph-name="cedilla" unicode="&#xb8;" horiz-adv-x="306" 
d="M-55 -237l11 58q10 -5 25.5 -8t30.5 -3q63 0 73 46q1 4 1 11q0 44 -90 44l53 89h92l-34 -56q74 -10 74 -71q0 -54 -44 -87.5t-113 -33.5q-57 0 -79 11z" />
    <glyph glyph-name="uni00B9" unicode="&#xb9;" horiz-adv-x="233" 
d="M212 620l-99 -62l15 72l107 69h71l-70 -329h-77z" />
    <glyph glyph-name="ordmasculine" unicode="&#xba;" horiz-adv-x="482" 
d="M146.5 385.5q-44.5 37.5 -44.5 102.5q0 18 5 43q18 83 81 133t154 50q74 0 118 -38.5t44 -102.5q0 -17 -5 -42q-18 -85 -81.5 -134t-153.5 -49q-73 0 -117.5 37.5zM369 444q39 33 50 87q4 17 4 37q0 40 -23.5 61t-70.5 21q-53 0 -91.5 -32t-50.5 -87q-4 -16 -4 -35
q0 -40 24 -62.5t71 -22.5q52 0 91 33z" />
    <glyph glyph-name="guillemotright" unicode="&#xbb;" horiz-adv-x="599" 
d="M32 182l207 147l-144 148l63 58l190 -197l-6 -30l-274 -196zM259 182l207 147l-144 148l63 58l190 -197l-6 -30l-274 -196z" />
    <glyph glyph-name="onequarter" unicode="&#xbc;" horiz-adv-x="715" 
d="M591 699h104l-535 -699h-104zM212 620l-99 -62l15 72l107 69h71l-70 -329h-77zM511 72h-158l11 54l194 203h84l-42 -200h47l-12 -57h-47l-15 -72h-77zM534 129l27 126l-123 -126h96z" />
    <glyph glyph-name="onehalf" unicode="&#xbd;" horiz-adv-x="738" 
d="M591 699h104l-535 -699h-104zM212 620l-99 -62l15 72l107 69h71l-70 -329h-77zM400 50l88 63q56 40 76.5 57t34 35.5t13.5 39.5q0 30 -47 30q-24 0 -55.5 -8.5t-52.5 -21.5l14 67q21 12 53.5 20t59.5 8q51 0 78.5 -23.5t27.5 -59.5q0 -14 -2 -21q-6 -26 -19.5 -45
t-32.5 -35t-60 -46l-69 -50h148l-12 -60h-253z" />
    <glyph glyph-name="threequarters" unicode="&#xbe;" horiz-adv-x="735" 
d="M75 378l13 60q17 -10 44.5 -15.5t52.5 -5.5q72 0 83 45q1 4 1 12q0 17 -15.5 25t-49.5 8h-46l12 57h45q66 0 75 43q1 3 1 8q0 35 -59 35q-49 0 -98 -26l13 59q49 26 118 26q49 0 78.5 -21t29.5 -55q0 -12 -2 -18q-7 -28 -24 -47.5t-49 -31.5q51 -10 51 -58q0 -7 -2 -21
q-10 -45 -52 -71t-107 -26q-76 0 -113 18zM611 699h104l-535 -699h-104zM531 72h-158l11 54l194 203h84l-42 -200h47l-12 -57h-47l-15 -72h-77zM554 129l27 126l-123 -126h96z" />
    <glyph glyph-name="questiondown" unicode="&#xbf;" horiz-adv-x="515" 
d="M306 445q-13 13 -13 33q0 29 22.5 50.5t50.5 21.5q22 0 35.5 -13t13.5 -34q0 -29 -22.5 -50t-51.5 -21q-22 0 -35 13zM48 -139q-57 40 -57 108q0 19 4 35q11 52 46 89t102 78q47 30 69 48t34 39t20 57l5 20h98l-5 -21q-13 -61 -44 -101.5t-94 -78.5q-47 -29 -70 -45.5
t-39 -36.5t-22 -48q-2 -8 -2 -23q0 -75 121 -75q100 0 194 40l-19 -88q-43 -17 -93.5 -27t-100.5 -10q-90 0 -147 40z" />
    <glyph glyph-name="Agrave" unicode="&#xc0;" horiz-adv-x="746" 
d="M384 913h107l32 -172h-93zM422 699h98l131 -699h-101l-34 174h-309l-104 -174h-108zM507 259l-57 327l-195 -327h252z" />
    <glyph glyph-name="Aacute" unicode="&#xc1;" horiz-adv-x="746" 
d="M544 913h107l-120 -172h-92zM422 699h98l131 -699h-101l-34 174h-309l-104 -174h-108zM507 259l-57 327l-195 -327h252z" />
    <glyph glyph-name="Acircumflex" unicode="&#xc2;" horiz-adv-x="746" 
d="M471 907h89l106 -166h-99l-61 107l-107 -107h-105zM422 699h98l131 -699h-101l-34 174h-309l-104 -174h-108zM507 259l-57 327l-195 -327h252z" />
    <glyph glyph-name="Atilde" unicode="&#xc3;" horiz-adv-x="746" 
d="M309 828q40 43 107 43q22 0 41 -6t49 -19q24 -12 43.5 -18.5t41.5 -6.5q30 0 55.5 11.5t50.5 39.5l-18 -86q-37 -42 -105 -42q-25 0 -46 6.5t-47 19.5q-25 12 -42.5 18t-38.5 6q-29 0 -55.5 -12t-53.5 -40zM422 699h98l131 -699h-101l-34 174h-309l-104 -174h-108z
M507 259l-57 327l-195 -327h252z" />
    <glyph glyph-name="Adieresis" unicode="&#xc4;" horiz-adv-x="746" 
d="M333.5 754q-13.5 13 -13.5 33q0 27 22.5 48.5t49.5 21.5q20 0 32.5 -12.5t12.5 -32.5q0 -28 -21.5 -49.5t-48.5 -21.5q-20 0 -33.5 13zM559.5 754q-13.5 13 -13.5 33q0 27 23 48.5t50 21.5q20 0 32.5 -12.5t12.5 -32.5q0 -28 -21.5 -49.5t-48.5 -21.5q-21 0 -34.5 13z
M422 699h98l131 -699h-101l-34 174h-309l-104 -174h-108zM507 259l-57 327l-195 -327h252z" />
    <glyph glyph-name="Aring" unicode="&#xc5;" horiz-adv-x="746" 
d="M403 669q-18 12 -27.5 31t-9.5 43q0 13 3 26q11 49 50 82.5t91 33.5q42 0 68 -26t26 -65q0 -13 -3 -25q-8 -32 -28 -58.5t-48 -41.5l126 -669h-101l-34 174h-309l-104 -174h-108zM519 735q21 21 21 47q0 18 -11 29.5t-33 11.5t-41 -16t-24 -38q-2 -10 -2 -15
q0 -18 11 -29t33 -11q25 0 46 21zM507 259l-57 327l-195 -327h252z" />
    <glyph glyph-name="AE" unicode="&#xc6;" horiz-adv-x="922" 
d="M486 699h489l-18 -86h-320l-47 -221h229l-18 -85h-229l-47 -222h320l-18 -85h-422l38 179h-215l-125 -179h-108zM460 259l74 348h-8l-240 -348h174z" />
    <glyph glyph-name="Ccedilla" unicode="&#xc7;" horiz-adv-x="710" 
d="M227 -237l13 58q9 -5 25 -8t30 -3q64 0 74 46q1 4 1 11q0 44 -90 44l44 76q-76 7 -136 43t-94 96.5t-34 139.5q0 40 9 83q23 110 85.5 192.5t155.5 127.5t206 45q144 0 226 -73l-21 -98q-71 77 -216 77q-128 0 -217.5 -73t-115.5 -198q-8 -35 -8 -74q0 -94 58.5 -146
t167.5 -52q74 0 136.5 19.5t121.5 62.5l-21 -99q-87 -62 -211 -73l-26 -43q73 -10 73 -71q0 -54 -43 -87.5t-113 -33.5q-55 0 -80 11z" />
    <glyph glyph-name="Egrave" unicode="&#xc8;" horiz-adv-x="571" 
d="M311 926h107l32 -172h-93zM163 699h461l-18 -86h-359l-47 -221h268l-18 -85h-268l-47 -222h359l-18 -85h-461z" />
    <glyph glyph-name="Eacute" unicode="&#xc9;" horiz-adv-x="566" 
d="M445 913h107l-120 -172h-92zM163 699h461l-18 -86h-359l-47 -221h268l-18 -85h-268l-47 -222h359l-18 -85h-461z" />
    <glyph glyph-name="Ecircumflex" unicode="&#xca;" horiz-adv-x="571" 
d="M379 913h89l106 -166h-99l-61 107l-107 -107h-105zM163 699h461l-18 -86h-359l-47 -221h268l-18 -85h-268l-47 -222h359l-18 -85h-461z" />
    <glyph glyph-name="Edieresis" unicode="&#xcb;" horiz-adv-x="571" 
d="M247.5 764q-13.5 13 -13.5 33q0 27 22.5 48.5t49.5 21.5q20 0 32.5 -12.5t12.5 -32.5q0 -28 -21.5 -49.5t-48.5 -21.5q-20 0 -33.5 13zM473.5 764q-13.5 13 -13.5 33q0 27 23 48.5t50 21.5q20 0 32.5 -12.5t12.5 -32.5q0 -28 -21.5 -49.5t-48.5 -21.5q-21 0 -34.5 13z
M163 699h461l-18 -86h-359l-47 -221h268l-18 -85h-268l-47 -222h359l-18 -85h-461z" />
    <glyph glyph-name="Igrave" unicode="&#xcc;" horiz-adv-x="236" 
d="M132 913h107l32 -172h-93zM164 699h103l-148 -699h-103z" />
    <glyph glyph-name="Iacute" unicode="&#xcd;" horiz-adv-x="236" 
d="M284 913h107l-120 -172h-92zM164 699h103l-148 -699h-103z" />
    <glyph glyph-name="Icircumflex" unicode="&#xce;" horiz-adv-x="236" 
d="M215 907h89l106 -166h-99l-61 107l-107 -107h-105zM164 699h103l-148 -699h-103z" />
    <glyph glyph-name="Idieresis" unicode="&#xcf;" horiz-adv-x="236" 
d="M77.5 754q-13.5 13 -13.5 33q0 27 22.5 48.5t49.5 21.5q20 0 32.5 -12.5t12.5 -32.5q0 -28 -21.5 -49.5t-48.5 -21.5q-20 0 -33.5 13zM303.5 754q-13.5 13 -13.5 33q0 27 23 48.5t50 21.5q20 0 32.5 -12.5t12.5 -32.5q0 -28 -21.5 -49.5t-48.5 -21.5q-21 0 -34.5 13z
M164 699h103l-148 -699h-103z" />
    <glyph glyph-name="Eth" unicode="&#xd0;" horiz-adv-x="727" 
d="M104 310h-64l17 78h64l66 311h225q145 0 224 -72t79 -195q0 -36 -8 -79q-33 -176 -150.5 -264.5t-306.5 -88.5h-211zM267 85q140 0 225 69t112 199q10 48 10 81q0 179 -219 179h-124l-48 -225h185l-17 -78h-185l-47 -225h108z" />
    <glyph glyph-name="Ntilde" unicode="&#xd1;" horiz-adv-x="686" 
d="M290 828q40 43 107 43q22 0 41 -6t49 -19q24 -12 43.5 -18.5t41.5 -6.5q30 0 55.5 11.5t50.5 39.5l-18 -86q-37 -42 -105 -42q-25 0 -46 6.5t-47 19.5q-25 12 -42.5 18t-38.5 6q-29 0 -55.5 -12t-53.5 -40zM163 699h97l244 -527l112 527h103l-148 -699h-98l-244 527
l-112 -527h-102z" />
    <glyph glyph-name="Ograve" unicode="&#xd2;" horiz-adv-x="826" 
d="M438 913h107l32 -172h-93zM206.5 20q-68.5 35 -107.5 99.5t-39 148.5q0 39 9 81q23 108 87 191t157 128.5t201 45.5q86 0 154.5 -35t107 -99t38.5 -149q0 -38 -9 -82q-23 -108 -86.5 -190.5t-156.5 -128t-203 -45.5q-84 0 -152.5 35zM520.5 110.5q67.5 33.5 115.5 95
t66 143.5q8 36 8 76q0 92 -55.5 143.5t-160.5 51.5q-75 0 -142 -33.5t-115 -95t-65 -142.5q-9 -40 -9 -75q0 -93 56.5 -145t159.5 -52q74 0 141.5 33.5z" />
    <glyph glyph-name="Oacute" unicode="&#xd3;" horiz-adv-x="826" 
d="M578 913h107l-120 -172h-92zM206.5 20q-68.5 35 -107.5 99.5t-39 148.5q0 39 9 81q23 108 87 191t157 128.5t201 45.5q86 0 154.5 -35t107 -99t38.5 -149q0 -38 -9 -82q-23 -108 -86.5 -190.5t-156.5 -128t-203 -45.5q-84 0 -152.5 35zM520.5 110.5q67.5 33.5 115.5 95
t66 143.5q8 36 8 76q0 92 -55.5 143.5t-160.5 51.5q-75 0 -142 -33.5t-115 -95t-65 -142.5q-9 -40 -9 -75q0 -93 56.5 -145t159.5 -52q74 0 141.5 33.5z" />
    <glyph glyph-name="Ocircumflex" unicode="&#xd4;" horiz-adv-x="826" 
d="M511 907h89l106 -166h-99l-61 107l-107 -107h-105zM206.5 20q-68.5 35 -107.5 99.5t-39 148.5q0 39 9 81q23 108 87 191t157 128.5t201 45.5q86 0 154.5 -35t107 -99t38.5 -149q0 -38 -9 -82q-23 -108 -86.5 -190.5t-156.5 -128t-203 -45.5q-84 0 -152.5 35zM520.5 110.5
q67.5 33.5 115.5 95t66 143.5q8 36 8 76q0 92 -55.5 143.5t-160.5 51.5q-75 0 -142 -33.5t-115 -95t-65 -142.5q-9 -40 -9 -75q0 -93 56.5 -145t159.5 -52q74 0 141.5 33.5z" />
    <glyph glyph-name="Otilde" unicode="&#xd5;" horiz-adv-x="826" 
d="M349 828q40 43 107 43q22 0 41 -6t49 -19q24 -12 43.5 -18.5t41.5 -6.5q30 0 55.5 11.5t50.5 39.5l-18 -86q-37 -42 -105 -42q-25 0 -46 6.5t-47 19.5q-25 12 -42.5 18t-38.5 6q-29 0 -55.5 -12t-53.5 -40zM206.5 20q-68.5 35 -107.5 99.5t-39 148.5q0 39 9 81
q23 108 87 191t157 128.5t201 45.5q86 0 154.5 -35t107 -99t38.5 -149q0 -38 -9 -82q-23 -108 -86.5 -190.5t-156.5 -128t-203 -45.5q-84 0 -152.5 35zM520.5 110.5q67.5 33.5 115.5 95t66 143.5q8 36 8 76q0 92 -55.5 143.5t-160.5 51.5q-75 0 -142 -33.5t-115 -95
t-65 -142.5q-9 -40 -9 -75q0 -93 56.5 -145t159.5 -52q74 0 141.5 33.5z" />
    <glyph glyph-name="Odieresis" unicode="&#xd6;" horiz-adv-x="826" 
d="M373.5 754q-13.5 13 -13.5 33q0 27 22.5 48.5t49.5 21.5q20 0 32.5 -12.5t12.5 -32.5q0 -28 -21.5 -49.5t-48.5 -21.5q-20 0 -33.5 13zM599.5 754q-13.5 13 -13.5 33q0 27 23 48.5t50 21.5q20 0 32.5 -12.5t12.5 -32.5q0 -28 -21.5 -49.5t-48.5 -21.5q-21 0 -34.5 13z
M206.5 20q-68.5 35 -107.5 99.5t-39 148.5q0 39 9 81q23 108 87 191t157 128.5t201 45.5q86 0 154.5 -35t107 -99t38.5 -149q0 -38 -9 -82q-23 -108 -86.5 -190.5t-156.5 -128t-203 -45.5q-84 0 -152.5 35zM520.5 110.5q67.5 33.5 115.5 95t66 143.5q8 36 8 76
q0 92 -55.5 143.5t-160.5 51.5q-75 0 -142 -33.5t-115 -95t-65 -142.5q-9 -40 -9 -75q0 -93 56.5 -145t159.5 -52q74 0 141.5 33.5z" />
    <glyph glyph-name="multiply" unicode="&#xd7;" horiz-adv-x="374" 
d="M188 242l-100 -82l-46 57l100 83l-66 85l65 53l66 -84l108 90l45 -59l-108 -89l66 -84l-64 -53z" />
    <glyph glyph-name="Oslash" unicode="&#xd8;" horiz-adv-x="826" 
d="M191 27q-62 36 -96.5 97.5t-34.5 141.5q0 40 9 83q23 108 87 191t157 128.5t201 45.5q50 0 93 -12l50 82h100l-71 -115q60 -36 94 -97t34 -140q0 -39 -9 -83q-23 -108 -86.5 -190.5t-156.5 -128t-203 -45.5q-42 0 -87 10l-50 -81h-100zM553 616q-36 4 -59 4
q-75 0 -142 -33.5t-115 -95t-65 -142.5q-10 -44 -10 -87q0 -109 78 -155zM520.5 110.5q67.5 33.5 115.5 95t66 143.5q9 45 9 84q0 110 -75 155l-312 -508q26 -3 55 -3q74 0 141.5 33.5z" />
    <glyph glyph-name="Ugrave" unicode="&#xd9;" horiz-adv-x="697" 
d="M368 913h107l32 -172h-93zM118.5 39.5q-61.5 54.5 -61.5 150.5q0 31 8 71l93 438h102l-94 -442q-7 -31 -7 -60q0 -62 38.5 -91t117.5 -29q86 0 145.5 45.5t78.5 134.5l94 442h102l-93 -438q-58 -276 -347 -276q-115 0 -176.5 54.5z" />
    <glyph glyph-name="Uacute" unicode="&#xda;" horiz-adv-x="697" 
d="M507 913h107l-120 -172h-92zM118.5 39.5q-61.5 54.5 -61.5 150.5q0 31 8 71l93 438h102l-94 -442q-7 -31 -7 -60q0 -62 38.5 -91t117.5 -29q86 0 145.5 45.5t78.5 134.5l94 442h102l-93 -438q-58 -276 -347 -276q-115 0 -176.5 54.5z" />
    <glyph glyph-name="Ucircumflex" unicode="&#xdb;" horiz-adv-x="697" 
d="M446 907h89l106 -166h-99l-61 107l-107 -107h-105zM118.5 39.5q-61.5 54.5 -61.5 150.5q0 31 8 71l93 438h102l-94 -442q-7 -31 -7 -60q0 -62 38.5 -91t117.5 -29q86 0 145.5 45.5t78.5 134.5l94 442h102l-93 -438q-58 -276 -347 -276q-115 0 -176.5 54.5z" />
    <glyph glyph-name="Udieresis" unicode="&#xdc;" horiz-adv-x="697" 
d="M308.5 754q-13.5 13 -13.5 33q0 27 22.5 48.5t49.5 21.5q20 0 32.5 -12.5t12.5 -32.5q0 -28 -21.5 -49.5t-48.5 -21.5q-20 0 -33.5 13zM534.5 754q-13.5 13 -13.5 33q0 27 23 48.5t50 21.5q20 0 32.5 -12.5t12.5 -32.5q0 -28 -21.5 -49.5t-48.5 -21.5q-21 0 -34.5 13z
M118.5 39.5q-61.5 54.5 -61.5 150.5q0 31 8 71l93 438h102l-94 -442q-7 -31 -7 -60q0 -62 38.5 -91t117.5 -29q86 0 145.5 45.5t78.5 134.5l94 442h102l-93 -438q-58 -276 -347 -276q-115 0 -176.5 54.5z" />
    <glyph glyph-name="Yacute" unicode="&#xdd;" horiz-adv-x="700" 
d="M502 926h107l-120 -172h-92zM305 265l-162 434h106l123 -337l270 337h111l-349 -434l-56 -265h-99z" />
    <glyph glyph-name="Thorn" unicode="&#xde;" horiz-adv-x="603" 
d="M163 699h102l-29 -138h173q94 0 146 -41t52 -119q0 -28 -5 -51q-40 -209 -283 -209h-173l-29 -141h-102zM321 226q71 0 117 26.5t61 97.5q5 27 5 42q0 48 -32.5 65.5t-98.5 17.5h-156l-52 -249h156z" />
    <glyph glyph-name="germandbls" unicode="&#xdf;" horiz-adv-x="633" 
d="M183 4l20 94q41 -21 112 -21q63 0 107.5 38t57.5 101q4 16 4 33q0 88 -130 88h-50l18 86h43q51 0 83.5 30t44.5 84q3 14 3 26q0 40 -28.5 63.5t-78.5 23.5q-139 0 -169 -140l-108 -510h-102l107 504q24 115 99.5 177.5t191.5 62.5q97 0 145 -45.5t48 -115.5q0 -21 -5 -46
q-12 -51 -42 -91.5t-74 -59.5q52 -13 79 -46.5t27 -85.5q0 -25 -6 -52q-21 -98 -91 -157.5t-178 -59.5q-87 0 -128 19z" />
    <glyph glyph-name="agrave" unicode="&#xe0;" horiz-adv-x="655" 
d="M357 706h107l32 -172h-93zM138.5 9q-46.5 24 -73 68t-26.5 103q0 28 6 59q16 75 61 133t109.5 90.5t136.5 32.5q129 0 180 -79l14 64h101l-102 -480h-98l14 70q-49 -44 -101 -64.5t-117 -20.5q-58 0 -104.5 24zM398.5 97.5q53.5 32.5 84.5 87.5l23 108q-5 55 -46 88
t-103 33q-74 0 -133.5 -48.5t-76.5 -126.5q-7 -35 -7 -57q0 -117 143 -117q62 0 115.5 32.5z" />
    <glyph glyph-name="aacute" unicode="&#xe1;" horiz-adv-x="655" 
d="M491 706h107l-120 -172h-92zM138.5 9q-46.5 24 -73 68t-26.5 103q0 28 6 59q16 75 61 133t109.5 90.5t136.5 32.5q129 0 180 -79l14 64h101l-102 -480h-98l14 70q-49 -44 -101 -64.5t-117 -20.5q-58 0 -104.5 24zM398.5 97.5q53.5 32.5 84.5 87.5l23 108q-5 55 -46 88
t-103 33q-74 0 -133.5 -48.5t-76.5 -126.5q-7 -35 -7 -57q0 -117 143 -117q62 0 115.5 32.5z" />
    <glyph glyph-name="acircumflex" unicode="&#xe2;" horiz-adv-x="655" 
d="M433 700h89l106 -166h-99l-61 107l-107 -107h-105zM138.5 9q-46.5 24 -73 68t-26.5 103q0 28 6 59q16 75 61 133t109.5 90.5t136.5 32.5q129 0 180 -79l14 64h101l-102 -480h-98l14 70q-49 -44 -101 -64.5t-117 -20.5q-58 0 -104.5 24zM398.5 97.5q53.5 32.5 84.5 87.5
l23 108q-5 55 -46 88t-103 33q-74 0 -133.5 -48.5t-76.5 -126.5q-7 -35 -7 -57q0 -117 143 -117q62 0 115.5 32.5z" />
    <glyph glyph-name="atilde" unicode="&#xe3;" horiz-adv-x="655" 
d="M278 620q40 43 107 43q22 0 41 -6t49 -19q24 -12 43.5 -18.5t41.5 -6.5q30 0 55.5 11.5t50.5 39.5l-18 -86q-37 -42 -105 -42q-25 0 -46 6.5t-47 19.5q-25 12 -42.5 18t-38.5 6q-29 0 -55.5 -12t-53.5 -40zM138.5 9q-46.5 24 -73 68t-26.5 103q0 28 6 59q16 75 61 133
t109.5 90.5t136.5 32.5q129 0 180 -79l14 64h101l-102 -480h-98l14 70q-49 -44 -101 -64.5t-117 -20.5q-58 0 -104.5 24zM398.5 97.5q53.5 32.5 84.5 87.5l23 108q-5 55 -46 88t-103 33q-74 0 -133.5 -48.5t-76.5 -126.5q-7 -35 -7 -57q0 -117 143 -117q62 0 115.5 32.5z
" />
    <glyph glyph-name="adieresis" unicode="&#xe4;" horiz-adv-x="655" 
d="M289.5 543q-13.5 13 -13.5 33q0 27 22.5 48.5t49.5 21.5q20 0 32.5 -12.5t12.5 -32.5q0 -28 -21.5 -49.5t-48.5 -21.5q-20 0 -33.5 13zM515.5 543q-13.5 13 -13.5 33q0 27 23 48.5t50 21.5q20 0 32.5 -12.5t12.5 -32.5q0 -28 -21.5 -49.5t-48.5 -21.5q-21 0 -34.5 13z
M138.5 9q-46.5 24 -73 68t-26.5 103q0 28 6 59q16 75 61 133t109.5 90.5t136.5 32.5q129 0 180 -79l14 64h101l-102 -480h-98l14 70q-49 -44 -101 -64.5t-117 -20.5q-58 0 -104.5 24zM398.5 97.5q53.5 32.5 84.5 87.5l23 108q-5 55 -46 88t-103 33q-74 0 -133.5 -48.5
t-76.5 -126.5q-7 -35 -7 -57q0 -117 143 -117q62 0 115.5 32.5z" />
    <glyph glyph-name="aring" unicode="&#xe5;" horiz-adv-x="655" 
d="M381 560.5q-26 25.5 -26 65.5q0 12 3 25q11 49 50 82.5t91 33.5q42 0 68 -26t26 -65q0 -13 -3 -25q-11 -50 -50 -83t-91 -33q-42 0 -68 25.5zM508 617q21 21 21 47q0 18 -11 29.5t-33 11.5t-41 -16t-24 -38q-2 -10 -2 -15q0 -18 11 -29t33 -11q25 0 46 21zM138.5 9
q-46.5 24 -73 68t-26.5 103q0 28 6 59q16 75 61 133t109.5 90.5t136.5 32.5q129 0 180 -79l14 64h101l-102 -480h-98l14 70q-49 -44 -101 -64.5t-117 -20.5q-58 0 -104.5 24zM398.5 97.5q53.5 32.5 84.5 87.5l23 108q-5 55 -46 88t-103 33q-74 0 -133.5 -48.5t-76.5 -126.5
q-7 -35 -7 -57q0 -117 143 -117q62 0 115.5 32.5z" />
    <glyph glyph-name="ae" unicode="&#xe6;" horiz-adv-x="972" 
d="M66.5 20q-44.5 35 -44.5 95q0 19 4 35q17 80 77 123.5t153 43.5q99 0 159 -40l6 25q4 22 4 32q0 41 -30 60.5t-94 19.5q-44 0 -87 -8.5t-79 -23.5l17 82q33 14 83 22.5t95 8.5q64 0 109 -21.5t64 -58.5q41 38 97.5 59t122.5 21q104 0 159 -52.5t55 -134.5q0 -23 -7 -58
l-11 -50h-420q-2 -18 -2 -26q0 -57 41.5 -83t128.5 -26q47 0 95.5 8.5t87.5 22.5l-17 -81q-35 -13 -89.5 -21.5t-105.5 -8.5q-73 0 -125.5 23t-80.5 66q-99 -89 -245 -89q-76 0 -120.5 35zM838 271q4 19 4 39q0 104 -138 104q-76 0 -125 -39t-65 -104h324zM315 80.5
q42 18.5 70 52.5l14 66q-28 21 -61 31.5t-75 10.5q-116 0 -135 -91q-3 -13 -3 -24q0 -32 24 -48t76 -16q48 0 90 18.5z" />
    <glyph glyph-name="ccedilla" unicode="&#xe7;" horiz-adv-x="547" 
d="M121 -237l13 58q9 -5 25 -8t30 -3q64 0 74 46q1 4 1 11q0 44 -90 44l45 77q-82 12 -131.5 62t-49.5 130q0 22 7 59q26 120 112.5 188t217.5 68q110 0 167 -43l-18 -83q-55 45 -157 45q-80 0 -140.5 -45t-79.5 -130q-6 -30 -6 -55q0 -60 37.5 -89.5t112.5 -29.5
q101 0 185 48l-18 -82q-63 -38 -148 -44l-26 -43q73 -10 73 -71q0 -54 -43 -87.5t-113 -33.5q-55 0 -80 11z" />
    <glyph glyph-name="egrave" unicode="&#xe8;" horiz-adv-x="608" 
d="M288 706h107l32 -172h-93zM101.5 35.5q-63.5 50.5 -63.5 142.5q0 30 7 61q26 120 105.5 188t209.5 68q67 0 115 -24.5t72.5 -67.5t24.5 -97q0 -27 -6 -56l-11 -50h-422q-2 -18 -2 -26q0 -57 42 -83t131 -26q46 0 95 8.5t88 22.5l-17 -81q-35 -13 -89.5 -21.5t-105.5 -8.5
q-110 0 -173.5 50.5zM475 271q4 26 4 37q0 106 -139 106q-76 0 -126.5 -39t-65.5 -104h327z" />
    <glyph glyph-name="eacute" unicode="&#xe9;" horiz-adv-x="608" 
d="M419 706h107l-120 -172h-92zM101.5 35.5q-63.5 50.5 -63.5 142.5q0 30 7 61q26 120 105.5 188t209.5 68q67 0 115 -24.5t72.5 -67.5t24.5 -97q0 -27 -6 -56l-11 -50h-422q-2 -18 -2 -26q0 -57 42 -83t131 -26q46 0 95 8.5t88 22.5l-17 -81q-35 -13 -89.5 -21.5
t-105.5 -8.5q-110 0 -173.5 50.5zM475 271q4 26 4 37q0 106 -139 106q-76 0 -126.5 -39t-65.5 -104h327z" />
    <glyph glyph-name="ecircumflex" unicode="&#xea;" horiz-adv-x="608" 
d="M365 700h89l106 -166h-99l-61 107l-107 -107h-105zM101.5 35.5q-63.5 50.5 -63.5 142.5q0 30 7 61q26 120 105.5 188t209.5 68q67 0 115 -24.5t72.5 -67.5t24.5 -97q0 -27 -6 -56l-11 -50h-422q-2 -18 -2 -26q0 -57 42 -83t131 -26q46 0 95 8.5t88 22.5l-17 -81
q-35 -13 -89.5 -21.5t-105.5 -8.5q-110 0 -173.5 50.5zM475 271q4 26 4 37q0 106 -139 106q-76 0 -126.5 -39t-65.5 -104h327z" />
    <glyph glyph-name="edieresis" unicode="&#xeb;" horiz-adv-x="608" 
d="M225.5 547q-13.5 13 -13.5 33q0 27 22.5 48.5t49.5 21.5q20 0 32.5 -12.5t12.5 -32.5q0 -28 -21.5 -49.5t-48.5 -21.5q-20 0 -33.5 13zM451.5 547q-13.5 13 -13.5 33q0 27 23 48.5t50 21.5q20 0 32.5 -12.5t12.5 -32.5q0 -28 -21.5 -49.5t-48.5 -21.5q-21 0 -34.5 13z
M101.5 35.5q-63.5 50.5 -63.5 142.5q0 30 7 61q26 120 105.5 188t209.5 68q67 0 115 -24.5t72.5 -67.5t24.5 -97q0 -27 -6 -56l-11 -50h-422q-2 -18 -2 -26q0 -57 42 -83t131 -26q46 0 95 8.5t88 22.5l-17 -81q-35 -13 -89.5 -21.5t-105.5 -8.5q-110 0 -173.5 50.5zM475 271
q4 26 4 37q0 106 -139 106q-76 0 -126.5 -39t-65.5 -104h327z" />
    <glyph glyph-name="igrave" unicode="&#xec;" horiz-adv-x="232" 
d="M87 706h107l32 -172h-93zM117 480h102l-102 -480h-102z" />
    <glyph glyph-name="iacute" unicode="&#xed;" horiz-adv-x="232" 
d="M237 706h107l-120 -172h-92zM117 480h102l-102 -480h-102z" />
    <glyph glyph-name="icircumflex" unicode="&#xee;" horiz-adv-x="232" 
d="M170 700h89l106 -166h-99l-61 107l-107 -107h-105zM117 480h102l-102 -480h-102z" />
    <glyph glyph-name="idieresis" unicode="&#xef;" horiz-adv-x="232" 
d="M32.5 547q-13.5 13 -13.5 33q0 27 22.5 48.5t49.5 21.5q20 0 32.5 -12.5t12.5 -32.5q0 -28 -21.5 -49.5t-48.5 -21.5q-20 0 -33.5 13zM258.5 547q-13.5 13 -13.5 33q0 27 23 48.5t50 21.5q20 0 32.5 -12.5t12.5 -32.5q0 -28 -21.5 -49.5t-48.5 -21.5q-21 0 -34.5 13z
M117 480h102l-102 -480h-102z" />
    <glyph glyph-name="eth" unicode="&#xf0;" horiz-adv-x="625" 
d="M90.5 34q-55.5 49 -55.5 130q0 26 6 54q23 106 102.5 168t196.5 62q54 0 96.5 -20t63.5 -58q11 61 11 107q0 53 -14 85l-165 -71l14 67l116 50q-34 26 -91 26q-27 0 -61 -4.5t-54 -11.5l18 83q22 5 54.5 9t57.5 4q114 0 168 -67l125 54l-15 -67l-83 -36q19 -51 19 -119
q0 -73 -21 -172q-22 -104 -72 -176.5t-118 -109t-145 -36.5q-98 0 -153.5 49zM347.5 83q38.5 21 64.5 56.5t35 76.5q5 23 5 41q0 51 -32.5 81.5t-90.5 30.5q-72 0 -123 -41.5t-66 -111.5q-5 -25 -5 -42q0 -53 32.5 -82.5t96.5 -29.5q45 0 83.5 21z" />
    <glyph glyph-name="ntilde" unicode="&#xf1;" horiz-adv-x="600" 
d="M186 621q40 43 107 43q22 0 41 -6t49 -19q24 -12 43.5 -18.5t41.5 -6.5q30 0 55.5 11.5t50.5 39.5l-18 -86q-37 -42 -105 -42q-25 0 -46 6.5t-47 19.5q-25 12 -42.5 18t-38.5 6q-29 0 -55.5 -12t-53.5 -40zM117 480h98l-15 -69q44 43 97.5 63.5t107.5 20.5
q76 0 115.5 -39t39.5 -103q0 -19 -5 -46l-65 -307h-101l63 297q6 29 6 50q0 35 -21.5 51t-72.5 16q-48 0 -94 -22.5t-86 -68.5l-68 -323h-101z" />
    <glyph glyph-name="ograve" unicode="&#xf2;" horiz-adv-x="637" 
d="M300 706h107l32 -172h-93zM98.5 36q-60.5 51 -60.5 141q0 31 7 62q16 77 61.5 135t114 89.5t152.5 31.5q105 0 165.5 -52.5t60.5 -142.5q0 -30 -7 -61q-25 -118 -112.5 -186t-215.5 -68q-105 0 -165.5 51zM415 113q56 48 73 126q6 30 6 56q0 119 -139 119q-78 0 -134 -47
t-73 -128q-6 -28 -6 -53q0 -58 34 -89.5t105 -31.5q78 0 134 48z" />
    <glyph glyph-name="oacute" unicode="&#xf3;" horiz-adv-x="637" 
d="M430 706h107l-120 -172h-92zM98.5 36q-60.5 51 -60.5 141q0 31 7 62q16 77 61.5 135t114 89.5t152.5 31.5q105 0 165.5 -52.5t60.5 -142.5q0 -30 -7 -61q-25 -118 -112.5 -186t-215.5 -68q-105 0 -165.5 51zM415 113q56 48 73 126q6 30 6 56q0 119 -139 119
q-78 0 -134 -47t-73 -128q-6 -28 -6 -53q0 -58 34 -89.5t105 -31.5q78 0 134 48z" />
    <glyph glyph-name="ocircumflex" unicode="&#xf4;" horiz-adv-x="655" 
d="M390 700h89l106 -166h-99l-61 107l-107 -107h-105zM116.5 36q-60.5 51 -60.5 141q0 31 7 62q16 77 61.5 135t114 89.5t152.5 31.5q105 0 165.5 -52.5t60.5 -142.5q0 -30 -7 -61q-25 -118 -112.5 -186t-215.5 -68q-105 0 -165.5 51zM433 113q56 48 73 126q6 30 6 56
q0 119 -139 119q-78 0 -134 -47t-73 -128q-6 -28 -6 -53q0 -58 34 -89.5t105 -31.5q78 0 134 48z" />
    <glyph glyph-name="otilde" unicode="&#xf5;" horiz-adv-x="651" 
d="M225 627q40 43 107 43q22 0 41 -6t49 -19q24 -12 43.5 -18.5t41.5 -6.5q30 0 55.5 11.5t50.5 39.5l-18 -86q-37 -42 -105 -42q-25 0 -46 6.5t-47 19.5q-25 12 -42.5 18t-38.5 6q-29 0 -55.5 -12t-53.5 -40zM112.5 36q-60.5 51 -60.5 141q0 31 7 62q16 77 61.5 135
t114 89.5t152.5 31.5q105 0 165.5 -52.5t60.5 -142.5q0 -30 -7 -61q-25 -118 -112.5 -186t-215.5 -68q-105 0 -165.5 51zM429 113q56 48 73 126q6 30 6 56q0 119 -139 119q-78 0 -134 -47t-73 -128q-6 -28 -6 -53q0 -58 34 -89.5t105 -31.5q78 0 134 48z" />
    <glyph glyph-name="odieresis" unicode="&#xf6;" horiz-adv-x="646" 
d="M243.5 547q-13.5 13 -13.5 33q0 27 22.5 48.5t49.5 21.5q20 0 32.5 -12.5t12.5 -32.5q0 -28 -21.5 -49.5t-48.5 -21.5q-20 0 -33.5 13zM469.5 547q-13.5 13 -13.5 33q0 27 23 48.5t50 21.5q20 0 32.5 -12.5t12.5 -32.5q0 -28 -21.5 -49.5t-48.5 -21.5q-21 0 -34.5 13z
M107.5 36q-60.5 51 -60.5 141q0 31 7 62q16 77 61.5 135t114 89.5t152.5 31.5q105 0 165.5 -52.5t60.5 -142.5q0 -30 -7 -61q-25 -118 -112.5 -186t-215.5 -68q-105 0 -165.5 51zM424 113q56 48 73 126q6 30 6 56q0 119 -139 119q-78 0 -134 -47t-73 -128q-6 -28 -6 -53
q0 -58 34 -89.5t105 -31.5q78 0 134 48z" />
    <glyph glyph-name="divide" unicode="&#xf7;" horiz-adv-x="409" 
d="M206 395.5q-11 10.5 -11 27.5q0 25 19 43.5t43 18.5q18 0 29 -11t11 -29q0 -24 -19 -42t-43 -18q-18 0 -29 10.5zM66 338h319l-17 -81h-319zM147.5 120.5q-11.5 10.5 -11.5 27.5q0 26 19 44t43 18q18 0 29 -11t11 -29q0 -24 -18.5 -42t-42.5 -18q-18 0 -29.5 10.5z" />
    <glyph glyph-name="oslash" unicode="&#xf8;" horiz-adv-x="637" 
d="M129 15q-44 24 -67.5 65.5t-23.5 96.5q0 31 7 62q16 77 61.5 135t114 89.5t152.5 31.5q17 0 49 -4l46 75h100l-62 -101q45 -25 69 -67t24 -98q0 -30 -7 -61q-25 -118 -112.5 -186t-215.5 -68q-30 0 -51 4l-46 -75h-100zM374 413q-6 1 -19 1q-78 0 -134 -47t-73 -128
q-6 -28 -6 -53q0 -61 36 -91zM281 65q78 0 134 48t73 126q6 30 6 55q0 62 -37 92l-197 -321h21z" />
    <glyph glyph-name="ugrave" unicode="&#xf9;" horiz-adv-x="600" 
d="M274 706h107l32 -172h-93zM84 25.5q-42 40.5 -42 105.5q0 18 5 45l65 304h101l-64 -300q-5 -25 -5 -41q0 -38 22.5 -56t72.5 -18q101 0 178 91l69 324h101l-102 -480h-98l14 68q-83 -83 -199 -83q-76 0 -118 40.5z" />
    <glyph glyph-name="uacute" unicode="&#xfa;" horiz-adv-x="600" 
d="M414 706h107l-120 -172h-92zM84 25.5q-42 40.5 -42 105.5q0 18 5 45l65 304h101l-64 -300q-5 -25 -5 -41q0 -38 22.5 -56t72.5 -18q101 0 178 91l69 324h101l-102 -480h-98l14 68q-83 -83 -199 -83q-76 0 -118 40.5z" />
    <glyph glyph-name="ucircumflex" unicode="&#xfb;" horiz-adv-x="600" 
d="M346 700h89l106 -166h-99l-61 107l-107 -107h-105zM84 25.5q-42 40.5 -42 105.5q0 18 5 45l65 304h101l-64 -300q-5 -25 -5 -41q0 -38 22.5 -56t72.5 -18q101 0 178 91l69 324h101l-102 -480h-98l14 68q-83 -83 -199 -83q-76 0 -118 40.5z" />
    <glyph glyph-name="udieresis" unicode="&#xfc;" horiz-adv-x="600" 
d="M212.5 547q-13.5 13 -13.5 33q0 27 22.5 48.5t49.5 21.5q20 0 32.5 -12.5t12.5 -32.5q0 -28 -21.5 -49.5t-48.5 -21.5q-20 0 -33.5 13zM438.5 547q-13.5 13 -13.5 33q0 27 23 48.5t50 21.5q20 0 32.5 -12.5t12.5 -32.5q0 -28 -21.5 -49.5t-48.5 -21.5q-21 0 -34.5 13z
M84 25.5q-42 40.5 -42 105.5q0 18 5 45l65 304h101l-64 -300q-5 -25 -5 -41q0 -38 22.5 -56t72.5 -18q101 0 178 91l69 324h101l-102 -480h-98l14 68q-83 -83 -199 -83q-76 0 -118 40.5z" />
    <glyph glyph-name="yacute" unicode="&#xfd;" horiz-adv-x="587" 
d="M409 708h107l-120 -172h-92zM73 -222q-45 8 -74 23l18 83q68 -34 167 -34q90 0 134.5 39.5t67.5 123.5l18 70q-83 -83 -199 -83q-76 0 -118 40.5t-42 105.5q0 18 5 45l62 289h101l-61 -285q-5 -25 -5 -41q0 -38 22.5 -56t72.5 -18q101 0 178 91l66 309h101l-97 -456
q-27 -126 -102 -190t-221 -64q-49 0 -94 8z" />
    <glyph glyph-name="thorn" unicode="&#xfe;" horiz-adv-x="660" 
d="M163 699h101l-60 -283q42 38 98 58.5t116 20.5q91 0 147.5 -53t56.5 -141q0 -28 -6 -60q-25 -116 -107 -186t-200 -70q-60 0 -107.5 20t-72.5 59l-60 -283h-101zM396 87q44 22 75.5 62t42.5 92q5 28 5 47q0 59 -36.5 92.5t-105.5 33.5q-62 0 -115 -32t-84 -88l-23 -108
q5 -55 46 -88t102 -33q49 0 93 22z" />
    <glyph glyph-name="ydieresis" unicode="&#xff;" horiz-adv-x="587" 
d="M225.5 547q-13.5 13 -13.5 33q0 27 22.5 48.5t49.5 21.5q20 0 32.5 -12.5t12.5 -32.5q0 -28 -21.5 -49.5t-48.5 -21.5q-20 0 -33.5 13zM451.5 547q-13.5 13 -13.5 33q0 27 23 48.5t50 21.5q20 0 32.5 -12.5t12.5 -32.5q0 -28 -21.5 -49.5t-48.5 -21.5q-21 0 -34.5 13z
M73 -222q-45 8 -74 23l18 83q68 -34 167 -34q90 0 134.5 39.5t67.5 123.5l18 70q-83 -83 -199 -83q-76 0 -118 40.5t-42 105.5q0 18 5 45l62 289h101l-61 -285q-5 -25 -5 -41q0 -38 22.5 -56t72.5 -18q101 0 178 91l66 309h101l-97 -456q-27 -126 -102 -190t-221 -64
q-49 0 -94 8z" />
    <glyph glyph-name="Amacron" unicode="&#x100;" horiz-adv-x="746" 
d="M342 821h311l-15 -69h-311zM422 699h98l131 -699h-101l-34 174h-309l-104 -174h-108zM507 259l-57 327l-195 -327h252z" />
    <glyph glyph-name="amacron" unicode="&#x101;" horiz-adv-x="655" 
d="M314 614h311l-15 -69h-311zM138.5 9q-46.5 24 -73 68t-26.5 103q0 28 6 59q16 75 61 133t109.5 90.5t136.5 32.5q129 0 180 -79l14 64h101l-102 -480h-98l14 70q-49 -44 -101 -64.5t-117 -20.5q-58 0 -104.5 24zM398.5 97.5q53.5 32.5 84.5 87.5l23 108q-5 55 -46 88
t-103 33q-74 0 -133.5 -48.5t-76.5 -126.5q-7 -35 -7 -57q0 -117 143 -117q62 0 115.5 32.5z" />
    <glyph glyph-name="Abreve" unicode="&#x102;" horiz-adv-x="746" 
d="M387 771q-32 29 -32 79q0 16 3 32h75q-2 -7 -2 -20q0 -25 15.5 -38t44.5 -13q34 0 57 18.5t31 52.5h80q-13 -62 -62 -101t-118 -39q-60 0 -92 29zM422 699h98l131 -699h-101l-34 174h-309l-104 -174h-108zM507 259l-57 327l-195 -327h252z" />
    <glyph glyph-name="abreve" unicode="&#x103;" horiz-adv-x="655" 
d="M358 564q-32 29 -32 79q0 16 3 32h75q-2 -7 -2 -20q0 -25 15.5 -38t44.5 -13q34 0 57 18.5t31 52.5h80q-13 -62 -62 -101t-118 -39q-60 0 -92 29zM138.5 9q-46.5 24 -73 68t-26.5 103q0 28 6 59q16 75 61 133t109.5 90.5t136.5 32.5q129 0 180 -79l14 64h101l-102 -480
h-98l14 70q-49 -44 -101 -64.5t-117 -20.5q-58 0 -104.5 24zM398.5 97.5q53.5 32.5 84.5 87.5l23 108q-5 55 -46 88t-103 33q-74 0 -133.5 -48.5t-76.5 -126.5q-7 -35 -7 -57q0 -117 143 -117q62 0 115.5 32.5z" />
    <glyph glyph-name="Aogonek" unicode="&#x104;" horiz-adv-x="746" 
d="M479 -194.5q-24 17.5 -24 50.5q0 10 3 22q8 36 33.5 67.5t58.5 54.5l-34 174h-309l-104 -174h-108l427 699h98l131 -699q-45 -25 -69.5 -50.5t-31.5 -55.5q-1 -5 -1 -13q0 -30 35 -30q25 0 50 10l-13 -61q-34 -12 -79 -12q-39 0 -63 17.5zM507 259l-57 327l-195 -327h252
z" />
    <glyph glyph-name="aogonek" unicode="&#x105;" horiz-adv-x="655" 
d="M373 -194.5q-24 17.5 -24 50.5q0 10 3 22q8 37 34 68.5t61 53.5l14 70q-49 -44 -101 -64.5t-117 -20.5q-58 0 -104.5 24t-73 68t-26.5 103q0 28 6 59q16 75 61 133t109.5 90.5t136.5 32.5q129 0 180 -79l14 64h101l-102 -480q-45 -25 -69.5 -50.5t-31.5 -55.5
q-1 -5 -1 -13q0 -30 35 -30q25 0 50 10l-13 -61q-34 -12 -79 -12q-39 0 -63 17.5zM398.5 97.5q53.5 32.5 84.5 87.5l23 108q-5 55 -46 88t-103 33q-74 0 -133.5 -48.5t-76.5 -126.5q-7 -35 -7 -57q0 -117 143 -117q62 0 115.5 32.5z" />
    <glyph glyph-name="Cacute" unicode="&#x106;" horiz-adv-x="710" 
d="M579 913h107l-120 -172h-92zM207.5 19.5q-68.5 34.5 -108 98t-39.5 148.5q0 40 9 83q23 110 85.5 192.5t155.5 127.5t206 45q144 0 226 -73l-21 -98q-71 77 -216 77q-128 0 -217.5 -73t-115.5 -198q-8 -35 -8 -74q0 -94 58.5 -146t167.5 -52q74 0 136.5 19.5t121.5 62.5
l-21 -99q-106 -75 -266 -75q-85 0 -153.5 34.5z" />
    <glyph glyph-name="cacute" unicode="&#x107;" horiz-adv-x="547" 
d="M433 706h107l-120 -172h-92zM101.5 37q-62.5 52 -62.5 143q0 28 6 59q26 120 112.5 188t217.5 68q110 0 167 -43l-18 -83q-55 45 -157 45q-80 0 -140.5 -45t-79.5 -130q-6 -30 -6 -55q0 -60 37.5 -89.5t112.5 -29.5q101 0 185 48l-18 -82q-40 -24 -87 -35t-107 -11
q-100 0 -162.5 52z" />
    <glyph glyph-name="Ccircumflex" unicode="&#x108;" horiz-adv-x="710" 
d="M504 907h89l106 -166h-99l-61 107l-107 -107h-105zM207.5 19.5q-68.5 34.5 -108 98t-39.5 148.5q0 40 9 83q23 110 85.5 192.5t155.5 127.5t206 45q144 0 226 -73l-21 -98q-71 77 -216 77q-128 0 -217.5 -73t-115.5 -198q-8 -35 -8 -74q0 -94 58.5 -146t167.5 -52
q74 0 136.5 19.5t121.5 62.5l-21 -99q-106 -75 -266 -75q-85 0 -153.5 34.5z" />
    <glyph glyph-name="ccircumflex" unicode="&#x109;" horiz-adv-x="547" 
d="M361 700h89l106 -166h-99l-61 107l-107 -107h-105zM101.5 37q-62.5 52 -62.5 143q0 28 6 59q26 120 112.5 188t217.5 68q110 0 167 -43l-18 -83q-55 45 -157 45q-80 0 -140.5 -45t-79.5 -130q-6 -30 -6 -55q0 -60 37.5 -89.5t112.5 -29.5q101 0 185 48l-18 -82
q-40 -24 -87 -35t-107 -11q-100 0 -162.5 52z" />
    <glyph glyph-name="Cdotaccent" unicode="&#x10a;" horiz-adv-x="710" 
d="M479.5 754q-13.5 13 -13.5 33q0 27 23 48.5t50 21.5q20 0 32.5 -12.5t12.5 -32.5q0 -28 -21.5 -49.5t-48.5 -21.5q-21 0 -34.5 13zM207.5 19.5q-68.5 34.5 -108 98t-39.5 148.5q0 40 9 83q23 110 85.5 192.5t155.5 127.5t206 45q144 0 226 -73l-21 -98q-71 77 -216 77
q-128 0 -217.5 -73t-115.5 -198q-8 -35 -8 -74q0 -94 58.5 -146t167.5 -52q74 0 136.5 19.5t121.5 62.5l-21 -99q-106 -75 -266 -75q-85 0 -153.5 34.5z" />
    <glyph glyph-name="cdotaccent" unicode="&#x10b;" horiz-adv-x="547" 
d="M339.5 547q-13.5 13 -13.5 33q0 27 23 48.5t50 21.5q20 0 32.5 -12.5t12.5 -32.5q0 -28 -21.5 -49.5t-48.5 -21.5q-21 0 -34.5 13zM101.5 37q-62.5 52 -62.5 143q0 28 6 59q26 120 112.5 188t217.5 68q110 0 167 -43l-18 -83q-55 45 -157 45q-80 0 -140.5 -45t-79.5 -130
q-6 -30 -6 -55q0 -60 37.5 -89.5t112.5 -29.5q101 0 185 48l-18 -82q-40 -24 -87 -35t-107 -11q-100 0 -162.5 52z" />
    <glyph glyph-name="Ccaron" unicode="&#x10c;" horiz-adv-x="710" 
d="M368 908h99l61 -107l107 107h105l-178 -166h-89zM207.5 19.5q-68.5 34.5 -108 98t-39.5 148.5q0 40 9 83q23 110 85.5 192.5t155.5 127.5t206 45q144 0 226 -73l-21 -98q-71 77 -216 77q-128 0 -217.5 -73t-115.5 -198q-8 -35 -8 -74q0 -94 58.5 -146t167.5 -52
q74 0 136.5 19.5t121.5 62.5l-21 -99q-106 -75 -266 -75q-85 0 -153.5 34.5z" />
    <glyph glyph-name="ccaron" unicode="&#x10d;" horiz-adv-x="547" 
d="M218 701h99l61 -107l107 107h105l-178 -166h-89zM101.5 37q-62.5 52 -62.5 143q0 28 6 59q26 120 112.5 188t217.5 68q110 0 167 -43l-18 -83q-55 45 -157 45q-80 0 -140.5 -45t-79.5 -130q-6 -30 -6 -55q0 -60 37.5 -89.5t112.5 -29.5q101 0 185 48l-18 -82
q-40 -24 -87 -35t-107 -11q-100 0 -162.5 52z" />
    <glyph glyph-name="Dcaron" unicode="&#x10e;" horiz-adv-x="703" 
d="M275 908h99l61 -107l107 107h105l-178 -166h-89zM163 699h225q145 0 224 -72t79 -195q0 -36 -8 -79q-33 -176 -150.5 -264.5t-306.5 -88.5h-211zM243 85q140 0 224.5 69t112.5 199q9 44 9 81q0 179 -218 179h-124l-112 -528h108z" />
    <glyph glyph-name="dcaron" unicode="&#x10f;" horiz-adv-x="815" 
d="M827 769h86l-126 -182h-76zM92 23.5q-56 51.5 -56 139.5q0 33 7 64q16 76 60.5 134t108.5 89.5t137 31.5q62 0 111 -25.5t66 -71.5l73 341h101l-157 -739h-98l18 86q-42 -48 -99.5 -74.5t-122.5 -26.5q-93 0 -149 51.5zM396.5 83.5q53.5 30.5 83.5 85.5l25 116
q-6 55 -47 86t-103 31q-74 0 -132.5 -47.5t-75.5 -128.5q-5 -25 -5 -44q0 -60 38.5 -94.5t100.5 -34.5t115.5 30.5z" />
    <glyph glyph-name="Dcroat" unicode="&#x110;" horiz-adv-x="727" 
d="M104 310h-64l17 78h64l66 311h225q145 0 224 -72t79 -195q0 -36 -8 -79q-33 -176 -150.5 -264.5t-306.5 -88.5h-211zM267 85q140 0 225 69t112 199q10 48 10 81q0 179 -219 179h-124l-48 -225h185l-17 -78h-185l-47 -225h108z" />
    <glyph glyph-name="dcroat" unicode="&#x111;" horiz-adv-x="675" 
d="M137.5 8.5q-46.5 23.5 -73 67.5t-26.5 103q0 23 7 60q16 76 59.5 134t107.5 90t140 32q129 0 180 -79l30 141h-196l16 78h196l23 104h101l-22 -104h54l-16 -78h-55l-118 -557h-98l14 70q-49 -44 -101 -64.5t-117 -20.5q-59 0 -105.5 23.5zM398.5 97.5
q53.5 32.5 84.5 87.5l23 108q-5 55 -46 88t-103 33q-80 0 -136.5 -47.5t-73.5 -127.5q-5 -21 -5 -48q0 -60 36 -93t105 -33q62 0 115.5 32.5z" />
    <glyph glyph-name="Emacron" unicode="&#x112;" horiz-adv-x="571" 
d="M270 831h311l-15 -69h-311zM163 699h461l-18 -86h-359l-47 -221h268l-18 -85h-268l-47 -222h359l-18 -85h-461z" />
    <glyph glyph-name="emacron" unicode="&#x113;" horiz-adv-x="608" 
d="M234 614h311l-15 -69h-311zM101.5 35.5q-63.5 50.5 -63.5 142.5q0 30 7 61q26 120 105.5 188t209.5 68q67 0 115 -24.5t72.5 -67.5t24.5 -97q0 -27 -6 -56l-11 -50h-422q-2 -18 -2 -26q0 -57 42 -83t131 -26q46 0 95 8.5t88 22.5l-17 -81q-35 -13 -89.5 -21.5
t-105.5 -8.5q-110 0 -173.5 50.5zM475 271q4 26 4 37q0 106 -139 106q-76 0 -126.5 -39t-65.5 -104h327z" />
    <glyph glyph-name="Ebreve" unicode="&#x114;" horiz-adv-x="571" 
d="M317 771q-32 29 -32 79q0 16 3 32h75q-2 -7 -2 -20q0 -25 15.5 -38t44.5 -13q34 0 57 18.5t31 52.5h80q-13 -62 -62 -101t-118 -39q-60 0 -92 29zM163 699h461l-18 -86h-359l-47 -221h268l-18 -85h-268l-47 -222h359l-18 -85h-461z" />
    <glyph glyph-name="ebreve" unicode="&#x115;" horiz-adv-x="608" 
d="M279 564q-32 29 -32 79q0 16 3 32h75q-2 -7 -2 -20q0 -25 15.5 -38t44.5 -13q34 0 57 18.5t31 52.5h80q-13 -62 -62 -101t-118 -39q-60 0 -92 29zM101.5 35.5q-63.5 50.5 -63.5 142.5q0 30 7 61q26 120 105.5 188t209.5 68q67 0 115 -24.5t72.5 -67.5t24.5 -97
q0 -27 -6 -56l-11 -50h-422q-2 -18 -2 -26q0 -57 42 -83t131 -26q46 0 95 8.5t88 22.5l-17 -81q-35 -13 -89.5 -21.5t-105.5 -8.5q-110 0 -173.5 50.5zM475 271q4 26 4 37q0 106 -139 106q-76 0 -126.5 -39t-65.5 -104h327z" />
    <glyph glyph-name="Edotaccent" unicode="&#x116;" horiz-adv-x="571" 
d="M370.5 753q-13.5 13 -13.5 33q0 27 23 48.5t50 21.5q20 0 32.5 -12.5t12.5 -32.5q0 -28 -21.5 -49.5t-48.5 -21.5q-21 0 -34.5 13zM163 699h461l-18 -86h-359l-47 -221h268l-18 -85h-268l-47 -222h359l-18 -85h-461z" />
    <glyph glyph-name="edotaccent" unicode="&#x117;" horiz-adv-x="608" 
d="M337.5 546q-13.5 13 -13.5 33q0 27 23 48.5t50 21.5q20 0 32.5 -12.5t12.5 -32.5q0 -28 -21.5 -49.5t-48.5 -21.5q-21 0 -34.5 13zM101.5 35.5q-63.5 50.5 -63.5 142.5q0 30 7 61q26 120 105.5 188t209.5 68q67 0 115 -24.5t72.5 -67.5t24.5 -97q0 -27 -6 -56l-11 -50
h-422q-2 -18 -2 -26q0 -57 42 -83t131 -26q46 0 95 8.5t88 22.5l-17 -81q-35 -13 -89.5 -21.5t-105.5 -8.5q-110 0 -173.5 50.5zM475 271q4 26 4 37q0 106 -139 106q-76 0 -126.5 -39t-65.5 -104h327z" />
    <glyph glyph-name="Eogonek" unicode="&#x118;" horiz-adv-x="571" 
d="M304 -194.5q-24 17.5 -24 50.5q0 10 3 22q8 37 35 68.5t64 53.5h-367l148 699h461l-18 -86h-359l-47 -221h268l-18 -85h-268l-47 -222h359l-18 -85q-45 -25 -69.5 -50.5t-31.5 -55.5q-1 -5 -1 -13q0 -30 35 -30q25 0 50 10l-13 -61q-34 -12 -79 -12q-39 0 -63 17.5z" />
    <glyph glyph-name="eogonek" unicode="&#x119;" horiz-adv-x="608" 
d="M240 -194.5q-24 17.5 -24 50.5q0 37 22 70t57 59h-20q-110 0 -173.5 50.5t-63.5 142.5q0 30 7 61q26 120 105.5 188t209.5 68q67 0 115 -24.5t72.5 -67.5t24.5 -97q0 -27 -6 -56l-11 -50h-422q-2 -18 -2 -26q0 -57 42 -83t131 -26q46 0 95 8.5t88 22.5l-17 -81
q-30 -11 -61 -16q-44 -26 -67.5 -50.5t-30.5 -54.5q-1 -5 -1 -13q0 -30 35 -30q25 0 50 10l-13 -61q-34 -12 -79 -12q-39 0 -63 17.5zM475 271q4 26 4 37q0 106 -139 106q-76 0 -126.5 -39t-65.5 -104h327z" />
    <glyph glyph-name="Ecaron" unicode="&#x11a;" horiz-adv-x="571" 
d="M260 908h99l61 -107l107 107h105l-178 -166h-89zM163 699h461l-18 -86h-359l-47 -221h268l-18 -85h-268l-47 -222h359l-18 -85h-461z" />
    <glyph glyph-name="ecaron" unicode="&#x11b;" horiz-adv-x="608" 
d="M223 701h99l61 -107l107 107h105l-178 -166h-89zM101.5 35.5q-63.5 50.5 -63.5 142.5q0 30 7 61q26 120 105.5 188t209.5 68q67 0 115 -24.5t72.5 -67.5t24.5 -97q0 -27 -6 -56l-11 -50h-422q-2 -18 -2 -26q0 -57 42 -83t131 -26q46 0 95 8.5t88 22.5l-17 -81
q-35 -13 -89.5 -21.5t-105.5 -8.5q-110 0 -173.5 50.5zM475 271q4 26 4 37q0 106 -139 106q-76 0 -126.5 -39t-65.5 -104h327z" />
    <glyph glyph-name="Gcircumflex" unicode="&#x11c;" horiz-adv-x="716" 
d="M508 907h89l106 -166h-99l-61 107l-107 -107h-105zM203.5 18.5q-68.5 33.5 -106.5 96.5t-38 147q0 43 10 87q23 109 87.5 192t158 128t201.5 45q74 0 129.5 -17.5t96.5 -54.5l-21 -98q-38 39 -89.5 57.5t-126.5 18.5q-79 0 -149 -33t-118.5 -94.5t-65.5 -143.5
q-9 -42 -9 -78q0 -92 57 -143t166 -51q46 0 87 9.5t70 27.5l39 183h-133l17 83h235l-68 -320q-106 -75 -272 -75q-89 0 -157.5 33.5z" />
    <glyph glyph-name="gcircumflex" unicode="&#x11d;" horiz-adv-x="660" 
d="M395 700h89l106 -166h-99l-61 107l-107 -107h-105zM123 -222q-45 8 -74 23l18 83q68 -34 167 -34q93 0 144 41t68 122l11 51q-82 -79 -211 -79q-59 0 -106 24.5t-73.5 69t-26.5 103.5q0 28 6 58q24 117 105.5 186t200.5 69q67 0 109 -19.5t73 -64.5l15 69h98l-97 -456
q-27 -125 -106 -189.5t-227 -64.5q-49 0 -94 8zM399.5 98q54.5 33 83.5 88l23 108q-7 56 -47 88t-102 32q-79 0 -135.5 -47.5t-73.5 -126.5q-6 -25 -6 -49q0 -59 36.5 -92.5t104.5 -33.5q62 0 116.5 33z" />
    <glyph glyph-name="Gbreve" unicode="&#x11e;" horiz-adv-x="716" 
d="M433 771q-32 29 -32 79q0 16 3 32h75q-2 -7 -2 -20q0 -25 15.5 -38t44.5 -13q34 0 57 18.5t31 52.5h80q-13 -62 -62 -101t-118 -39q-60 0 -92 29zM203.5 18.5q-68.5 33.5 -106.5 96.5t-38 147q0 43 10 87q23 109 87.5 192t158 128t201.5 45q74 0 129.5 -17.5t96.5 -54.5
l-21 -98q-38 39 -89.5 57.5t-126.5 18.5q-79 0 -149 -33t-118.5 -94.5t-65.5 -143.5q-9 -42 -9 -78q0 -92 57 -143t166 -51q46 0 87 9.5t70 27.5l39 183h-133l17 83h235l-68 -320q-106 -75 -272 -75q-89 0 -157.5 33.5z" />
    <glyph glyph-name="gbreve" unicode="&#x11f;" horiz-adv-x="660" 
d="M304 564q-32 29 -32 79q0 16 3 32h75q-2 -7 -2 -20q0 -25 15.5 -38t44.5 -13q34 0 57 18.5t31 52.5h80q-13 -62 -62 -101t-118 -39q-60 0 -92 29zM123 -222q-45 8 -74 23l18 83q68 -34 167 -34q93 0 144 41t68 122l11 51q-82 -79 -211 -79q-59 0 -106 24.5t-73.5 69
t-26.5 103.5q0 28 6 58q24 117 105.5 186t200.5 69q67 0 109 -19.5t73 -64.5l15 69h98l-97 -456q-27 -125 -106 -189.5t-227 -64.5q-49 0 -94 8zM399.5 98q54.5 33 83.5 88l23 108q-7 56 -47 88t-102 32q-79 0 -135.5 -47.5t-73.5 -126.5q-6 -25 -6 -49q0 -59 36.5 -92.5
t104.5 -33.5q62 0 116.5 33z" />
    <glyph glyph-name="Gdotaccent" unicode="&#x120;" horiz-adv-x="716" 
d="M487.5 754q-13.5 13 -13.5 33q0 27 23 48.5t50 21.5q20 0 32.5 -12.5t12.5 -32.5q0 -28 -21.5 -49.5t-48.5 -21.5q-21 0 -34.5 13zM203.5 18.5q-68.5 33.5 -106.5 96.5t-38 147q0 43 10 87q23 109 87.5 192t158 128t201.5 45q74 0 129.5 -17.5t96.5 -54.5l-21 -98
q-38 39 -89.5 57.5t-126.5 18.5q-79 0 -149 -33t-118.5 -94.5t-65.5 -143.5q-9 -42 -9 -78q0 -92 57 -143t166 -51q46 0 87 9.5t70 27.5l39 183h-133l17 83h235l-68 -320q-106 -75 -272 -75q-89 0 -157.5 33.5z" />
    <glyph glyph-name="gdotaccent" unicode="&#x121;" horiz-adv-x="660" 
d="M368.5 547q-13.5 13 -13.5 33q0 27 23 48.5t50 21.5q20 0 32.5 -12.5t12.5 -32.5q0 -28 -21.5 -49.5t-48.5 -21.5q-21 0 -34.5 13zM123 -222q-45 8 -74 23l18 83q68 -34 167 -34q93 0 144 41t68 122l11 51q-82 -79 -211 -79q-59 0 -106 24.5t-73.5 69t-26.5 103.5
q0 28 6 58q24 117 105.5 186t200.5 69q67 0 109 -19.5t73 -64.5l15 69h98l-97 -456q-27 -125 -106 -189.5t-227 -64.5q-49 0 -94 8zM399.5 98q54.5 33 83.5 88l23 108q-7 56 -47 88t-102 32q-79 0 -135.5 -47.5t-73.5 -126.5q-6 -25 -6 -49q0 -59 36.5 -92.5t104.5 -33.5
q62 0 116.5 33z" />
    <glyph glyph-name="Gcommaaccent" unicode="&#x122;" horiz-adv-x="716" 
d="M203.5 18.5q-68.5 33.5 -106.5 96.5t-38 147q0 43 10 87q23 109 87.5 192t158 128t201.5 45q74 0 129.5 -17.5t96.5 -54.5l-21 -98q-38 39 -89.5 57.5t-126.5 18.5q-79 0 -149 -33t-118.5 -94.5t-65.5 -143.5q-9 -42 -9 -78q0 -92 57 -143t166 -51q46 0 87 9.5t70 27.5
l39 183h-133l17 83h235l-68 -320q-106 -75 -272 -75q-89 0 -157.5 33.5zM308 -60h106l-138 -200h-91z" />
    <glyph glyph-name="gcommaaccent" unicode="&#x123;" horiz-adv-x="660" 
d="M486 735h91l-123 -200h-106zM123 -222q-45 8 -74 23l18 83q68 -34 167 -34q93 0 144 41t68 122l11 51q-82 -79 -211 -79q-59 0 -106 24.5t-73.5 69t-26.5 103.5q0 28 6 58q24 117 105.5 186t200.5 69q67 0 109 -19.5t73 -64.5l15 69h98l-97 -456q-27 -125 -106 -189.5
t-227 -64.5q-49 0 -94 8zM399.5 98q54.5 33 83.5 88l23 108q-7 56 -47 88t-102 32q-79 0 -135.5 -47.5t-73.5 -126.5q-6 -25 -6 -49q0 -59 36.5 -92.5t104.5 -33.5q62 0 116.5 33z" />
    <glyph glyph-name="Hcircumflex" unicode="&#x124;" horiz-adv-x="699" 
d="M447 907h89l106 -166h-99l-61 107l-107 -107h-105zM163 699h102l-64 -300h365l64 300h102l-148 -699h-102l66 313h-365l-66 -313h-102z" />
    <glyph glyph-name="hcircumflex" unicode="&#x125;" horiz-adv-x="600" 
d="M360 941h89l106 -166h-99l-61 107l-107 -107h-105zM172 739h101l-70 -325q86 81 202 81q76 0 115.5 -37.5t39.5 -101.5q0 -28 -5 -49l-65 -307h-101l63 297q5 21 5 46q0 36 -21.5 53.5t-71.5 17.5q-48 0 -94 -22.5t-86 -68.5l-68 -323h-101z" />
    <glyph glyph-name="Hbar" unicode="&#x126;" horiz-adv-x="720" 
d="M128 505h-49l17 83h49l24 111h102l-24 -111h365l24 111h102l-24 -111h52l-17 -83h-52l-107 -505h-102l66 312h-365l-66 -312h-102zM573 400l22 105h-365l-22 -105h365z" />
    <glyph glyph-name="hbar" unicode="&#x127;" horiz-adv-x="606" 
d="M142 569h-47l16 75h47l20 95h101l-21 -95h166l-16 -75h-166l-33 -155q86 81 202 81q76 0 115.5 -37.5t39.5 -101.5q0 -28 -5 -49l-65 -307h-101l63 297q5 21 5 46q0 36 -21.5 53.5t-71.5 17.5q-48 0 -94 -22.5t-86 -68.5l-68 -323h-101z" />
    <glyph glyph-name="Itilde" unicode="&#x128;" horiz-adv-x="236" 
d="M53 828q40 43 107 43q22 0 41 -6t49 -19q24 -12 43.5 -18.5t41.5 -6.5q30 0 55.5 11.5t50.5 39.5l-18 -86q-37 -42 -105 -42q-25 0 -46 6.5t-47 19.5q-25 12 -42.5 18t-38.5 6q-29 0 -55.5 -12t-53.5 -40zM164 699h103l-148 -699h-103z" />
    <glyph glyph-name="itilde" unicode="&#x129;" horiz-adv-x="232" 
d="M8 620q40 43 107 43q22 0 41 -6t49 -19q24 -12 43.5 -18.5t41.5 -6.5q30 0 55.5 11.5t50.5 39.5l-18 -86q-37 -42 -105 -42q-25 0 -46 6.5t-47 19.5q-25 12 -42.5 18t-38.5 6q-29 0 -55.5 -12t-53.5 -40zM117 480h102l-102 -480h-102z" />
    <glyph glyph-name="Imacron" unicode="&#x12a;" horiz-adv-x="236" 
d="M85 832h319l-15 -70h-319zM164 699h103l-148 -699h-103z" />
    <glyph glyph-name="imacron" unicode="&#x12b;" horiz-adv-x="232" 
d="M39 625h319l-15 -70h-319zM117 480h102l-102 -480h-102z" />
    <glyph glyph-name="Ibreve" unicode="&#x12c;" horiz-adv-x="236" 
d="M132 771q-32 29 -32 79q0 16 3 32h75q-2 -7 -2 -20q0 -25 15.5 -38t44.5 -13q34 0 57 18.5t31 52.5h80q-13 -62 -62 -101t-118 -39q-60 0 -92 29zM164 699h103l-148 -699h-103z" />
    <glyph glyph-name="ibreve" unicode="&#x12d;" horiz-adv-x="232" 
d="M86 564q-32 29 -32 79q0 16 3 32h75q-2 -7 -2 -20q0 -25 15.5 -38t44.5 -13q34 0 57 18.5t31 52.5h80q-13 -62 -62 -101t-118 -39q-60 0 -92 29zM117 480h102l-102 -480h-102z" />
    <glyph glyph-name="Iogonek" unicode="&#x12e;" horiz-adv-x="236" 
d="M267 699l-148 -699h-3q-45 -25 -69.5 -50.5t-31.5 -55.5q-1 -5 -1 -13q0 -30 35 -30q25 0 50 10l-13 -61q-34 -12 -79 -12q-39 0 -63 17.5t-24 50.5q0 10 3 22q8 37 35 68.5t64 53.5h-6l148 699h103z" />
    <glyph glyph-name="iogonek" unicode="&#x12f;" horiz-adv-x="250" 
d="M256.5 679q13.5 -13 13.5 -34q0 -29 -22.5 -50t-51.5 -21q-22 0 -35 13t-13 33q0 29 22.5 50.5t50.5 21.5q22 0 35.5 -13zM125 480h103l-102 -480h-4q-45 -25 -69.5 -50.5t-31.5 -55.5q-1 -5 -1 -13q0 -30 35 -30q25 0 50 10l-13 -61q-34 -12 -79 -12q-39 0 -63 17.5
t-24 50.5q0 10 3 22q8 37 35 68.5t64 53.5h-5z" />
    <glyph glyph-name="Idotaccent" unicode="&#x130;" horiz-adv-x="236" 
d="M191.5 754q-13.5 13 -13.5 33q0 27 23 48.5t50 21.5q20 0 32.5 -12.5t12.5 -32.5q0 -28 -21.5 -49.5t-48.5 -21.5q-21 0 -34.5 13zM164 699h103l-148 -699h-103z" />
    <glyph glyph-name="dotlessi" unicode="&#x131;" horiz-adv-x="232" 
d="M117 480h102l-102 -480h-102z" />
    <glyph glyph-name="IJ" unicode="&#x132;" horiz-adv-x="613" 
d="M164 699h103l-148 -699h-103zM257.5 -10q-29.5 5 -44.5 12l18 87q14 -6 36.5 -10t43.5 -4q56 0 85 24t40 76l111 524h102l-113 -531q-19 -89 -74 -136t-147 -47q-28 0 -57.5 5z" />
    <glyph glyph-name="ij" unicode="&#x133;" horiz-adv-x="446" 
d="M161 587q-13 13 -13 33q0 29 22.5 50.5t50.5 21.5q22 0 35.5 -13t13.5 -34q0 -29 -22.5 -50t-51.5 -21q-22 0 -35 13zM357.5 587q-13.5 13 -13.5 33q0 29 22.5 50.5t51.5 21.5q22 0 35 -13t13 -34q0 -29 -22.5 -50t-50.5 -21q-22 0 -35.5 13zM125 480h103l-102 -480h-103
zM30 -220l17 83q24 -12 58 -12q44 0 67.5 21t34.5 70l115 538h102l-116 -545q-18 -86 -69.5 -126t-135.5 -40q-45 0 -73 11z" />
    <glyph glyph-name="Jcircumflex" unicode="&#x134;" horiz-adv-x="375" 
d="M359 907h89l106 -166h-99l-61 107l-107 -107h-105zM19.5 -10q-29.5 5 -44.5 12l18 87q14 -6 37 -10t43 -4q56 0 85 24t40 76l111 524h102l-113 -531q-19 -89 -74 -136t-147 -47q-28 0 -57.5 5z" />
    <glyph glyph-name="jcircumflex" unicode="&#x135;" horiz-adv-x="236" 
d="M173 700h89l106 -166h-99l-61 107l-107 -107h-105zM-171 -220l17 83q24 -12 58 -12q44 0 68 21.5t34 69.5l115 538h102l-116 -545q-18 -83 -73 -124.5t-132 -41.5q-45 0 -73 11z" />
    <glyph glyph-name="Kcommaaccent" unicode="&#x136;" horiz-adv-x="670" 
d="M163 699h102l-148 -699h-102zM197 356l392 343h124l-394 -345l264 -354h-122zM200 -60h106l-138 -200h-91z" />
    <glyph glyph-name="kcommaaccent" unicode="&#x137;" horiz-adv-x="569" 
d="M172 739h101l-157 -739h-101zM168 243l272 237h123l-273 -237l194 -243h-123zM159 -60h106l-138 -200h-91z" />
    <glyph glyph-name="kgreenlandic" unicode="&#x138;" horiz-adv-x="567" 
d="M117 480h98l-102 -480h-98zM168 240l275 240h117l-276 -240l198 -240h-117z" />
    <glyph glyph-name="Lacute" unicode="&#x139;" horiz-adv-x="546" 
d="M285 929h107l-120 -172h-92zM163 699h102l-130 -614h354l-18 -85h-456z" />
    <glyph glyph-name="lacute" unicode="&#x13a;" horiz-adv-x="231" 
d="M289 938h106l-120 -173h-93zM172 739h101l-157 -739h-101z" />
    <glyph glyph-name="Lcommaaccent" unicode="&#x13b;" horiz-adv-x="546" 
d="M163 699h102l-130 -614h354l-18 -85h-456zM183 -60h106l-138 -200h-91z" />
    <glyph glyph-name="lcommaaccent" unicode="&#x13c;" horiz-adv-x="248" 
d="M189 739h101l-157 -739h-101zM17 -60h106l-138 -200h-91z" />
    <glyph glyph-name="Lcaron" unicode="&#x13d;" horiz-adv-x="546" 
d="M452 702h106l-138 -200h-91zM163 699h102l-130 -614h354l-18 -85h-456z" />
    <glyph glyph-name="lcaron" unicode="&#x13e;" horiz-adv-x="435" 
d="M404 745h106l-138 -200h-91zM172 739h101l-157 -739h-101z" />
    <glyph glyph-name="Ldot" unicode="&#x13f;" horiz-adv-x="546" 
d="M163 699h102l-130 -614h354l-18 -85h-456zM347.5 338q-13.5 13 -13.5 33q0 27 22.5 48.5t49.5 21.5q20 0 33 -13t13 -33q0 -27 -22 -48.5t-49 -21.5q-20 0 -33.5 13z" />
    <glyph glyph-name="ldot" unicode="&#x140;" horiz-adv-x="356" 
d="M172 739h101l-157 -739h-101zM267.5 337q-13.5 13 -13.5 33q0 27 22.5 48.5t49.5 21.5q20 0 33 -13t13 -33q0 -27 -22 -48.5t-49 -21.5q-20 0 -33.5 13z" />
    <glyph glyph-name="Lslash" unicode="&#x141;" horiz-adv-x="598" 
d="M130 296l-112 -45l20 96l112 46l65 306h102l-55 -261l177 73l-20 -96l-178 -73l-54 -257h354l-18 -85h-456z" />
    <glyph glyph-name="lslash" unicode="&#x142;" horiz-adv-x="316" 
d="M114 296l-138 -56l20 96l138 56l74 347h102l-64 -302l151 62l-21 -96l-151 -62l-72 -341h-102z" />
    <glyph glyph-name="Nacute" unicode="&#x143;" horiz-adv-x="686" 
d="M502 913h107l-120 -172h-92zM163 699h97l244 -527l112 527h103l-148 -699h-98l-244 527l-112 -527h-102z" />
    <glyph glyph-name="nacute" unicode="&#x144;" horiz-adv-x="600" 
d="M408 718h107l-120 -172h-92zM117 480h98l-15 -69q44 43 97.5 63.5t107.5 20.5q76 0 115.5 -39t39.5 -103q0 -19 -5 -46l-65 -307h-101l63 297q6 29 6 50q0 35 -21.5 51t-72.5 16q-48 0 -94 -22.5t-86 -68.5l-68 -323h-101z" />
    <glyph glyph-name="Ncommaaccent" unicode="&#x145;" horiz-adv-x="686" 
d="M163 699h97l244 -527l112 527h103l-148 -699h-98l-244 527l-112 -527h-102zM240 -60h106l-138 -200h-91z" />
    <glyph glyph-name="ncommaaccent" unicode="&#x146;" horiz-adv-x="600" 
d="M117 480h98l-15 -69q44 43 97.5 63.5t107.5 20.5q76 0 115.5 -39t39.5 -103q0 -19 -5 -46l-65 -307h-101l63 297q6 29 6 50q0 35 -21.5 51t-72.5 16q-48 0 -94 -22.5t-86 -68.5l-68 -323h-101zM199 -60h106l-138 -200h-91z" />
    <glyph glyph-name="Ncaron" unicode="&#x147;" horiz-adv-x="686" 
d="M301 908h99l61 -107l107 107h105l-178 -166h-89zM163 699h97l244 -527l112 527h103l-148 -699h-98l-244 527l-112 -527h-102z" />
    <glyph glyph-name="ncaron" unicode="&#x148;" horiz-adv-x="600" 
d="M219 701h99l61 -107l107 107h105l-178 -166h-89zM117 480h98l-15 -69q44 43 97.5 63.5t107.5 20.5q76 0 115.5 -39t39.5 -103q0 -19 -5 -46l-65 -307h-101l63 297q6 29 6 50q0 35 -21.5 51t-72.5 16q-48 0 -94 -22.5t-86 -68.5l-68 -323h-101z" />
    <glyph glyph-name="napostrophe" unicode="&#x149;" horiz-adv-x="706" 
d="M210 703h106l-138 -200h-91zM223 480h98l-15 -69q44 43 97.5 63.5t107.5 20.5q76 0 115.5 -39t39.5 -103q0 -19 -5 -46l-65 -307h-101l63 297q6 29 6 50q0 35 -21.5 51t-72.5 16q-48 0 -94 -22.5t-86 -68.5l-68 -323h-101z" />
    <glyph glyph-name="Eng" unicode="&#x14a;" horiz-adv-x="686" 
d="M278 -220l18 84q24 -13 57 -13q45 0 69 21.5t34 69.5l14 65l-241 520l-112 -527h-102l148 699h97l244 -527l112 527h103l-148 -699h-1l-13 -64q-18 -83 -73 -125t-133 -42q-45 0 -73 11z" />
    <glyph glyph-name="eng" unicode="&#x14b;" horiz-adv-x="600" 
d="M197 -220l18 84q24 -13 57 -13q45 0 69.5 22t34.5 69l62 293h1l13 62q4 19 4 38q0 79 -92 79q-48 0 -94 -22.5t-86 -68.5l-68 -323h-101l102 480h98l-15 -69q44 43 97.5 63.5t107.5 20.5q79 0 117.5 -35.5t38.5 -98.5q0 -25 -6 -54l-65 -307h-1l-13 -64
q-18 -83 -72.5 -125t-132.5 -42q-46 0 -74 11z" />
    <glyph glyph-name="Omacron" unicode="&#x14c;" horiz-adv-x="826" 
d="M384 831h311l-15 -69h-311zM206.5 20q-68.5 35 -107.5 99.5t-39 148.5q0 39 9 81q23 108 87 191t157 128.5t201 45.5q86 0 154.5 -35t107 -99t38.5 -149q0 -38 -9 -82q-23 -108 -86.5 -190.5t-156.5 -128t-203 -45.5q-84 0 -152.5 35zM520.5 110.5q67.5 33.5 115.5 95
t66 143.5q8 36 8 76q0 92 -55.5 143.5t-160.5 51.5q-75 0 -142 -33.5t-115 -95t-65 -142.5q-9 -40 -9 -75q0 -93 56.5 -145t159.5 -52q74 0 141.5 33.5z" />
    <glyph glyph-name="omacron" unicode="&#x14d;" horiz-adv-x="637" 
d="M245 624h311l-15 -69h-311zM98.5 36q-60.5 51 -60.5 141q0 31 7 62q16 77 61.5 135t114 89.5t152.5 31.5q105 0 165.5 -52.5t60.5 -142.5q0 -30 -7 -61q-25 -118 -112.5 -186t-215.5 -68q-105 0 -165.5 51zM415 113q56 48 73 126q6 30 6 56q0 119 -139 119
q-78 0 -134 -47t-73 -128q-6 -28 -6 -53q0 -58 34 -89.5t105 -31.5q78 0 134 48z" />
    <glyph glyph-name="Obreve" unicode="&#x14e;" horiz-adv-x="826" 
d="M427 771q-32 29 -32 79q0 16 3 32h75q-2 -7 -2 -20q0 -25 15.5 -38t44.5 -13q34 0 57 18.5t31 52.5h80q-13 -62 -62 -101t-118 -39q-60 0 -92 29zM206.5 20q-68.5 35 -107.5 99.5t-39 148.5q0 39 9 81q23 108 87 191t157 128.5t201 45.5q86 0 154.5 -35t107 -99
t38.5 -149q0 -38 -9 -82q-23 -108 -86.5 -190.5t-156.5 -128t-203 -45.5q-84 0 -152.5 35zM520.5 110.5q67.5 33.5 115.5 95t66 143.5q8 36 8 76q0 92 -55.5 143.5t-160.5 51.5q-75 0 -142 -33.5t-115 -95t-65 -142.5q-9 -40 -9 -75q0 -93 56.5 -145t159.5 -52
q74 0 141.5 33.5z" />
    <glyph glyph-name="obreve" unicode="&#x14f;" horiz-adv-x="637" 
d="M288 555q-32 29 -32 79q0 16 3 32h75q-2 -7 -2 -20q0 -25 15.5 -38t44.5 -13q34 0 57 18.5t31 52.5h80q-13 -62 -62 -101t-118 -39q-60 0 -92 29zM98.5 36q-60.5 51 -60.5 141q0 31 7 62q16 77 61.5 135t114 89.5t152.5 31.5q105 0 165.5 -52.5t60.5 -142.5q0 -30 -7 -61
q-25 -118 -112.5 -186t-215.5 -68q-105 0 -165.5 51zM415 113q56 48 73 126q6 30 6 56q0 119 -139 119q-78 0 -134 -47t-73 -128q-6 -28 -6 -53q0 -58 34 -89.5t105 -31.5q78 0 134 48z" />
    <glyph glyph-name="Ohungarumlaut" unicode="&#x150;" horiz-adv-x="826" 
d="M467 913h102l-120 -172h-86zM674 913h102l-120 -172h-88zM206.5 20q-68.5 35 -107.5 99.5t-39 148.5q0 39 9 81q23 108 87 191t157 128.5t201 45.5q86 0 154.5 -35t107 -99t38.5 -149q0 -38 -9 -82q-23 -108 -86.5 -190.5t-156.5 -128t-203 -45.5q-84 0 -152.5 35z
M520.5 110.5q67.5 33.5 115.5 95t66 143.5q8 36 8 76q0 92 -55.5 143.5t-160.5 51.5q-75 0 -142 -33.5t-115 -95t-65 -142.5q-9 -40 -9 -75q0 -93 56.5 -145t159.5 -52q74 0 141.5 33.5z" />
    <glyph glyph-name="ohungarumlaut" unicode="&#x151;" horiz-adv-x="646" 
d="M339 706h102l-120 -172h-86zM546 706h102l-120 -172h-88zM107.5 36q-60.5 51 -60.5 141q0 31 7 62q16 77 61.5 135t114 89.5t152.5 31.5q105 0 165.5 -52.5t60.5 -142.5q0 -30 -7 -61q-25 -118 -112.5 -186t-215.5 -68q-105 0 -165.5 51zM424 113q56 48 73 126q6 30 6 56
q0 119 -139 119q-78 0 -134 -47t-73 -128q-6 -28 -6 -53q0 -58 34 -89.5t105 -31.5q78 0 134 48z" />
    <glyph glyph-name="OE" unicode="&#x152;" horiz-adv-x="891" 
d="M210.5 32q-70.5 32 -110.5 93t-40 144q0 38 9 80q23 108 87 187t158 121t206 42h424l-18 -86h-309l-47 -221h219l-18 -85h-219l-47 -222h309l-18 -85h-424q-91 0 -161.5 32zM403 85l112 528h-20q-72 0 -140 -32t-117 -92t-66 -140q-9 -42 -9 -79q0 -90 55.5 -137.5
t164.5 -47.5h20z" />
    <glyph glyph-name="oe" unicode="&#x153;" horiz-adv-x="1047" 
d="M88.5 36q-60.5 51 -60.5 141q0 31 7 62q16 77 61.5 135t114 89.5t152.5 31.5q69 0 118.5 -26t76.5 -73q42 46 104 72.5t137 26.5q67 0 115 -24.5t72.5 -67.5t24.5 -97q0 -27 -6 -56l-11 -50h-422q-2 -18 -2 -26q0 -57 42 -83t131 -26q46 0 95 8.5t88 22.5l-17 -81
q-35 -13 -89.5 -21.5t-105.5 -8.5q-75 0 -130.5 27t-82.5 74q-46 -48 -109 -74.5t-138 -26.5q-105 0 -165.5 51zM405 113q56 48 73 126q6 30 6 56q0 119 -139 119q-78 0 -134 -47t-73 -128q-6 -28 -6 -54q0 -120 139 -120q78 0 134 48zM914 271q4 26 4 37q0 106 -139 106
q-75 0 -125.5 -38.5t-66.5 -102.5v-2h327z" />
    <glyph glyph-name="Racute" unicode="&#x154;" horiz-adv-x="623" 
d="M439 913h107l-120 -172h-92zM163 699h281q91 0 142 -42.5t51 -117.5q0 -25 -6 -52q-17 -79 -67.5 -132t-132.5 -71l94 -284h-106l-91 276h-153l-58 -276h-102zM355 362q67 0 113.5 31.5t59.5 93.5q5 21 5 44q0 45 -28.5 63.5t-87.5 18.5h-170l-54 -251h162z" />
    <glyph glyph-name="racute" unicode="&#x155;" horiz-adv-x="399" 
d="M270 706h107l-120 -172h-92zM117 480h98l-19 -86q39 44 98.5 65t131.5 21l-17 -79q-77 0 -137 -25t-93 -79l-63 -297h-101z" />
    <glyph glyph-name="Rcommaaccent" unicode="&#x156;" horiz-adv-x="623" 
d="M163 699h281q91 0 142 -42.5t51 -117.5q0 -25 -6 -52q-17 -79 -67.5 -132t-132.5 -71l94 -284h-106l-91 276h-153l-58 -276h-102zM355 362q67 0 113.5 31.5t59.5 93.5q5 21 5 44q0 45 -28.5 63.5t-87.5 18.5h-170l-54 -251h162zM187 -60h106l-138 -200h-91z" />
    <glyph glyph-name="rcommaaccent" unicode="&#x157;" horiz-adv-x="399" 
d="M117 480h98l-19 -86q39 44 98.5 65t131.5 21l-17 -79q-77 0 -137 -25t-93 -79l-63 -297h-101zM-1 -60h106l-138 -200h-91z" />
    <glyph glyph-name="Rcaron" unicode="&#x158;" horiz-adv-x="623" 
d="M234 908h99l61 -107l107 107h105l-178 -166h-89zM163 699h281q91 0 142 -42.5t51 -117.5q0 -25 -6 -52q-17 -79 -67.5 -132t-132.5 -71l94 -284h-106l-91 276h-153l-58 -276h-102zM355 362q67 0 113.5 31.5t59.5 93.5q5 21 5 44q0 45 -28.5 63.5t-87.5 18.5h-170
l-54 -251h162z" />
    <glyph glyph-name="rcaron" unicode="&#x159;" horiz-adv-x="441" 
d="M111 701h99l61 -107l107 107h105l-178 -166h-89zM158 480h98l-19 -86q39 44 98.5 65t131.5 21l-17 -79q-77 0 -137 -25t-93 -79l-63 -297h-101z" />
    <glyph glyph-name="Sacute" unicode="&#x15a;" horiz-adv-x="561" 
d="M443 913h107l-120 -172h-92zM89.5 -4.5q-55.5 10.5 -89.5 28.5l19 92q87 -45 198 -45q156 0 178 105q3 15 3 26q0 26 -15 44t-42.5 32.5t-85.5 39.5q-74 31 -110.5 71t-36.5 94q0 19 5 44q17 85 91 136t186 51q57 0 101.5 -9t83.5 -29l-19 -88q-78 39 -167 39
q-72 0 -115.5 -26t-53.5 -74q-3 -13 -3 -24q0 -36 29.5 -58.5t105.5 -56.5q83 -36 120 -71t37 -92q0 -22 -6 -49q-19 -92 -93 -141.5t-205 -49.5q-60 0 -115.5 10.5z" />
    <glyph glyph-name="sacute" unicode="&#x15b;" horiz-adv-x="489" 
d="M345 706h107l-120 -172h-92zM84.5 -2.5q-53.5 12.5 -80.5 33.5l18 86q34 -24 82.5 -38t95.5 -14q54 0 82 13t34 42q2 10 2 14q0 16 -11 27t-34.5 20.5t-71.5 24.5q-67 21 -100.5 48.5t-33.5 71.5q0 14 3 29q31 140 231 140q48 0 91.5 -9t68.5 -25l-17 -84q-25 17 -66 27
t-85 10q-53 0 -83.5 -13t-37.5 -46q-2 -10 -2 -13q0 -16 11.5 -26t35 -18.5t73.5 -23.5q69 -20 101 -48t32 -72q0 -9 -4 -33q-29 -136 -231 -136q-50 0 -103.5 12.5z" />
    <glyph glyph-name="Scircumflex" unicode="&#x15c;" horiz-adv-x="561" 
d="M379 907h89l106 -166h-99l-61 107l-107 -107h-105zM89.5 -4.5q-55.5 10.5 -89.5 28.5l19 92q87 -45 198 -45q156 0 178 105q3 15 3 26q0 26 -15 44t-42.5 32.5t-85.5 39.5q-74 31 -110.5 71t-36.5 94q0 19 5 44q17 85 91 136t186 51q57 0 101.5 -9t83.5 -29l-19 -88
q-78 39 -167 39q-72 0 -115.5 -26t-53.5 -74q-3 -13 -3 -24q0 -36 29.5 -58.5t105.5 -56.5q83 -36 120 -71t37 -92q0 -22 -6 -49q-19 -92 -93 -141.5t-205 -49.5q-60 0 -115.5 10.5z" />
    <glyph glyph-name="scircumflex" unicode="&#x15d;" horiz-adv-x="489" 
d="M299 700h89l106 -166h-99l-61 107l-107 -107h-105zM84.5 -2.5q-53.5 12.5 -80.5 33.5l18 86q34 -24 82.5 -38t95.5 -14q54 0 82 13t34 42q2 10 2 14q0 16 -11 27t-34.5 20.5t-71.5 24.5q-67 21 -100.5 48.5t-33.5 71.5q0 14 3 29q31 140 231 140q48 0 91.5 -9t68.5 -25
l-17 -84q-25 17 -66 27t-85 10q-53 0 -83.5 -13t-37.5 -46q-2 -10 -2 -13q0 -16 11.5 -26t35 -18.5t73.5 -23.5q69 -20 101 -48t32 -72q0 -9 -4 -33q-29 -136 -231 -136q-50 0 -103.5 12.5z" />
    <glyph glyph-name="Scedilla" unicode="&#x15e;" horiz-adv-x="561" 
d="M67 -237l13 58q9 -5 25 -8t30 -3q64 0 74 46q1 4 1 11q0 44 -90 44l44 76q-50 3 -93.5 12.5t-70.5 24.5l19 92q87 -45 198 -45q156 0 178 105q3 15 3 26q0 26 -15 44t-42.5 32.5t-85.5 39.5q-74 31 -110.5 71t-36.5 94q0 19 5 44q17 85 91 136t186 51q57 0 101.5 -9
t83.5 -29l-19 -88q-78 39 -167 39q-72 0 -115.5 -26t-53.5 -74q-3 -13 -3 -24q0 -36 29.5 -58.5t105.5 -56.5q83 -36 120 -71t37 -92q0 -22 -6 -49q-37 -170 -247 -189l-26 -43q73 -10 73 -71q0 -54 -43 -87.5t-113 -33.5q-55 0 -80 11z" />
    <glyph glyph-name="scedilla" unicode="&#x15f;" horiz-adv-x="489" 
d="M34 -237l13 58q9 -5 25 -8t30 -3q64 0 74 46q1 4 1 11q0 44 -90 44l45 78q-90 13 -128 42l18 86q34 -24 82.5 -38t95.5 -14q54 0 82 13t34 42q2 10 2 14q0 16 -11 27t-34.5 20.5t-71.5 24.5q-67 21 -100.5 48.5t-33.5 71.5q0 14 3 29q31 140 231 140q48 0 91.5 -9
t68.5 -25l-17 -84q-25 17 -66 27t-85 10q-53 0 -83.5 -13t-37.5 -46q-2 -10 -2 -13q0 -16 11.5 -26t35 -18.5t73.5 -23.5q69 -20 101 -48t32 -72q0 -9 -4 -33q-27 -124 -197 -135l-25 -42q73 -10 73 -71q0 -54 -43 -87.5t-113 -33.5q-55 0 -80 11z" />
    <glyph glyph-name="Scaron" unicode="&#x160;" horiz-adv-x="561" 
d="M250 908h99l61 -107l107 107h105l-178 -166h-89zM89.5 -4.5q-55.5 10.5 -89.5 28.5l19 92q87 -45 198 -45q156 0 178 105q3 15 3 26q0 26 -15 44t-42.5 32.5t-85.5 39.5q-74 31 -110.5 71t-36.5 94q0 19 5 44q17 85 91 136t186 51q57 0 101.5 -9t83.5 -29l-19 -88
q-78 39 -167 39q-72 0 -115.5 -26t-53.5 -74q-3 -13 -3 -24q0 -36 29.5 -58.5t105.5 -56.5q83 -36 120 -71t37 -92q0 -22 -6 -49q-19 -92 -93 -141.5t-205 -49.5q-60 0 -115.5 10.5z" />
    <glyph glyph-name="scaron" unicode="&#x161;" horiz-adv-x="489" 
d="M155 701h99l61 -107l107 107h105l-178 -166h-89zM84.5 -2.5q-53.5 12.5 -80.5 33.5l18 86q34 -24 82.5 -38t95.5 -14q54 0 82 13t34 42q2 10 2 14q0 16 -11 27t-34.5 20.5t-71.5 24.5q-67 21 -100.5 48.5t-33.5 71.5q0 14 3 29q31 140 231 140q48 0 91.5 -9t68.5 -25
l-17 -84q-25 17 -66 27t-85 10q-53 0 -83.5 -13t-37.5 -46q-2 -10 -2 -13q0 -16 11.5 -26t35 -18.5t73.5 -23.5q69 -20 101 -48t32 -72q0 -9 -4 -33q-29 -136 -231 -136q-50 0 -103.5 12.5z" />
    <glyph glyph-name="uni0162" unicode="&#x162;" horiz-adv-x="587" 
d="M93 -237l13 58q9 -5 25 -8t30 -3q64 0 74 46q1 4 1 11q0 44 -90 44l52 89h-6l130 613h-217l18 86h537l-18 -86h-217l-130 -613h-5l-34 -56q73 -10 73 -71q0 -54 -43 -87.5t-113 -33.5q-55 0 -80 11z" />
    <glyph glyph-name="uni0163" unicode="&#x163;" horiz-adv-x="377" 
d="M36 -237l13 58q9 -5 25 -8t30 -3q64 0 74 46q1 4 1 11q0 44 -90 44l48 83q-31 11 -47.5 37t-16.5 64q0 24 6 51l54 256h-73l17 78h73l30 144h102l-30 -144h118l-17 -78h-118l-53 -249q-5 -27 -5 -40q0 -26 14.5 -37t49.5 -11q15 0 34.5 3.5t34.5 9.5l-17 -80
q-32 -11 -69 -12l-25 -42q73 -10 73 -71q0 -54 -43 -87.5t-113 -33.5q-55 0 -80 11z" />
    <glyph glyph-name="Tcaron" unicode="&#x164;" horiz-adv-x="587" 
d="M250 908h99l61 -107l107 107h105l-178 -166h-89zM322 613h-217l18 86h537l-18 -86h-217l-130 -613h-103z" />
    <glyph glyph-name="tcaron" unicode="&#x165;" horiz-adv-x="438" 
d="M450 784h106l-138 -200h-91zM104 13.5q-31 28.5 -31 82.5q0 23 6 50l54 256h-73l17 78h73l30 144h102l-30 -144h118l-17 -78h-118l-53 -249q-5 -27 -5 -40q0 -26 14.5 -37t49.5 -11q15 0 34.5 3.5t34.5 9.5l-17 -80q-40 -13 -97 -13q-61 0 -92 28.5z" />
    <glyph glyph-name="Tbar" unicode="&#x166;" horiz-adv-x="587" 
d="M253 292h-125l18 86h125l49 232h-216l19 89h537l-19 -89h-216l-49 -232h125l-18 -86h-125l-62 -292h-105z" />
    <glyph glyph-name="tbar" unicode="&#x167;" horiz-adv-x="375" 
d="M106.5 14.5q-32.5 29.5 -32.5 84.5q0 18 5 45l18 86h-74l13 60h73l26 119h-73l16 71h73l30 144h102l-30 -144h119l-16 -71h-119l-25 -119h118l-13 -60h-118l-15 -74q-5 -25 -5 -39q0 -28 16 -40t55 -12q31 0 61 12l-17 -78q-44 -14 -97 -14q-58 0 -90.5 29.5z" />
    <glyph glyph-name="Utilde" unicode="&#x168;" horiz-adv-x="697" 
d="M287 828q40 43 107 43q22 0 41 -6t49 -19q24 -12 43.5 -18.5t41.5 -6.5q30 0 55.5 11.5t50.5 39.5l-18 -86q-37 -42 -105 -42q-25 0 -46 6.5t-47 19.5q-25 12 -42.5 18t-38.5 6q-29 0 -55.5 -12t-53.5 -40zM118.5 39.5q-61.5 54.5 -61.5 150.5q0 31 8 71l93 438h102
l-94 -442q-7 -31 -7 -60q0 -62 38.5 -91t117.5 -29q86 0 145.5 45.5t78.5 134.5l94 442h102l-93 -438q-58 -276 -347 -276q-115 0 -176.5 54.5z" />
    <glyph glyph-name="utilde" unicode="&#x169;" horiz-adv-x="600" 
d="M195 621q40 43 107 43q22 0 41 -6t49 -19q24 -12 43.5 -18.5t41.5 -6.5q30 0 55.5 11.5t50.5 39.5l-18 -86q-37 -42 -105 -42q-25 0 -46 6.5t-47 19.5q-25 12 -42.5 18t-38.5 6q-29 0 -55.5 -12t-53.5 -40zM84 25.5q-42 40.5 -42 105.5q0 18 5 45l65 304h101l-64 -300
q-5 -25 -5 -41q0 -38 22.5 -56t72.5 -18q101 0 178 91l69 324h101l-102 -480h-98l14 68q-83 -83 -199 -83q-76 0 -118 40.5z" />
    <glyph glyph-name="Umacron" unicode="&#x16a;" horiz-adv-x="697" 
d="M319 831h311l-15 -69h-311zM118.5 39.5q-61.5 54.5 -61.5 150.5q0 31 8 71l93 438h102l-94 -442q-7 -31 -7 -60q0 -62 38.5 -91t117.5 -29q86 0 145.5 45.5t78.5 134.5l94 442h102l-93 -438q-58 -276 -347 -276q-115 0 -176.5 54.5z" />
    <glyph glyph-name="umacron" unicode="&#x16b;" horiz-adv-x="600" 
d="M224 624h311l-15 -69h-311zM84 25.5q-42 40.5 -42 105.5q0 18 5 45l65 304h101l-64 -300q-5 -25 -5 -41q0 -38 22.5 -56t72.5 -18q101 0 178 91l69 324h101l-102 -480h-98l14 68q-83 -83 -199 -83q-76 0 -118 40.5z" />
    <glyph glyph-name="Ubreve" unicode="&#x16c;" horiz-adv-x="697" 
d="M363 771q-32 29 -32 79q0 16 3 32h75q-2 -7 -2 -20q0 -25 15.5 -38t44.5 -13q34 0 57 18.5t31 52.5h80q-13 -62 -62 -101t-118 -39q-60 0 -92 29zM118.5 39.5q-61.5 54.5 -61.5 150.5q0 31 8 71l93 438h102l-94 -442q-7 -31 -7 -60q0 -62 38.5 -91t117.5 -29
q86 0 145.5 45.5t78.5 134.5l94 442h102l-93 -438q-58 -276 -347 -276q-115 0 -176.5 54.5z" />
    <glyph glyph-name="ubreve" unicode="&#x16d;" horiz-adv-x="600" 
d="M266 564q-32 29 -32 79q0 16 3 32h75q-2 -7 -2 -20q0 -25 15.5 -38t44.5 -13q34 0 57 18.5t31 52.5h80q-13 -62 -62 -101t-118 -39q-60 0 -92 29zM84 25.5q-42 40.5 -42 105.5q0 18 5 45l65 304h101l-64 -300q-5 -25 -5 -41q0 -38 22.5 -56t72.5 -18q101 0 178 91l69 324
h101l-102 -480h-98l14 68q-83 -83 -199 -83q-76 0 -118 40.5z" />
    <glyph glyph-name="Uring" unicode="&#x16e;" horiz-adv-x="697" 
d="M386 767.5q-26 25.5 -26 65.5q0 12 3 25q11 49 50 82.5t91 33.5q42 0 68 -26t26 -65q0 -13 -3 -25q-11 -50 -50 -83t-91 -33q-42 0 -68 25.5zM513 824q21 21 21 47q0 18 -11 29.5t-33 11.5t-41 -16t-24 -38q-2 -10 -2 -15q0 -18 11 -29t33 -11q25 0 46 21zM118.5 39.5
q-61.5 54.5 -61.5 150.5q0 31 8 71l93 438h102l-94 -442q-7 -31 -7 -60q0 -62 38.5 -91t117.5 -29q86 0 145.5 45.5t78.5 134.5l94 442h102l-93 -438q-58 -276 -347 -276q-115 0 -176.5 54.5z" />
    <glyph glyph-name="uring" unicode="&#x16f;" horiz-adv-x="600" 
d="M291 560.5q-26 25.5 -26 65.5q0 12 3 25q11 49 50 82.5t91 33.5q42 0 68 -26t26 -65q0 -13 -3 -25q-11 -50 -50 -83t-91 -33q-42 0 -68 25.5zM418 617q21 21 21 47q0 18 -11 29.5t-33 11.5t-41 -16t-24 -38q-2 -10 -2 -15q0 -18 11 -29t33 -11q25 0 46 21zM84 25.5
q-42 40.5 -42 105.5q0 18 5 45l65 304h101l-64 -300q-5 -25 -5 -41q0 -38 22.5 -56t72.5 -18q101 0 178 91l69 324h101l-102 -480h-98l14 68q-83 -83 -199 -83q-76 0 -118 40.5z" />
    <glyph glyph-name="Uhungarumlaut" unicode="&#x170;" horiz-adv-x="697" 
d="M409 913h102l-120 -172h-86zM616 913h102l-120 -172h-88zM118.5 39.5q-61.5 54.5 -61.5 150.5q0 31 8 71l93 438h102l-94 -442q-7 -31 -7 -60q0 -62 38.5 -91t117.5 -29q86 0 145.5 45.5t78.5 134.5l94 442h102l-93 -438q-58 -276 -347 -276q-115 0 -176.5 54.5z" />
    <glyph glyph-name="uhungarumlaut" unicode="&#x171;" horiz-adv-x="601" 
d="M313 706h102l-120 -172h-86zM520 706h102l-120 -172h-88zM84 25.5q-42 40.5 -42 105.5q0 18 5 45l65 304h101l-64 -300q-5 -25 -5 -41q0 -38 22.5 -56t72.5 -18q101 0 178 91l69 324h101l-102 -480h-98l14 68q-83 -83 -199 -83q-76 0 -118 40.5z" />
    <glyph glyph-name="Uogonek" unicode="&#x172;" horiz-adv-x="697" 
d="M735 699l-93 -438q-25 -120 -99 -191.5t-202 -82.5q-35 -22 -54 -44.5t-25 -48.5q-1 -5 -1 -13q0 -30 35 -30q25 0 50 10l-13 -61q-34 -12 -79 -12q-39 0 -63 17.5t-24 50.5q0 38 23 72.5t59 59.5q-93 10 -142.5 63.5t-49.5 138.5q0 31 8 71l93 438h102l-94 -442
q-7 -31 -7 -60q0 -62 38.5 -91t117.5 -29q86 0 145.5 45.5t78.5 134.5l94 442h102z" />
    <glyph glyph-name="uogonek" unicode="&#x173;" horiz-adv-x="585" 
d="M587 480l-102 -480h-3q-45 -25 -69.5 -50.5t-31.5 -55.5q-1 -5 -1 -13q0 -30 35 -30q25 0 50 10l-13 -61q-34 -12 -79 -12q-39 0 -63 17.5t-24 50.5q0 10 3 22q8 37 35 68.5t64 53.5h-1l14 68q-83 -83 -199 -83q-76 0 -118 40.5t-42 105.5q0 18 5 45l65 304h101l-64 -300
q-5 -25 -5 -41q0 -38 22.5 -56t72.5 -18q101 0 178 91l69 324h101z" />
    <glyph glyph-name="Wcircumflex" unicode="&#x174;" horiz-adv-x="1007" 
d="M601 907h89l106 -166h-99l-61 107l-107 -107h-105zM146 699h106l43 -531l267 531h80l40 -531l269 531h106l-352 -699h-94l-43 528l-266 -528h-100z" />
    <glyph glyph-name="wcircumflex" unicode="&#x175;" horiz-adv-x="818" 
d="M463 700h89l106 -166h-99l-61 107l-107 -107h-105zM97 480h103l32 -356l183 356h91l31 -356l184 356h104l-258 -480h-94l-35 358l-187 -358h-101z" />
    <glyph glyph-name="Ycircumflex" unicode="&#x176;" horiz-adv-x="706" 
d="M450 907h89l106 -166h-99l-61 107l-107 -107h-105zM308 265l-162 434h106l123 -337l270 337h111l-349 -434l-56 -265h-99z" />
    <glyph glyph-name="ycircumflex" unicode="&#x177;" horiz-adv-x="587" 
d="M364 700h89l106 -166h-99l-61 107l-107 -107h-105zM73 -222q-45 8 -74 23l18 83q68 -34 167 -34q90 0 134.5 39.5t67.5 123.5l18 70q-83 -83 -199 -83q-76 0 -118 40.5t-42 105.5q0 18 5 45l62 289h101l-61 -285q-5 -25 -5 -41q0 -38 22.5 -56t72.5 -18q101 0 178 91
l66 309h101l-97 -456q-27 -126 -102 -190t-221 -64q-49 0 -94 8z" />
    <glyph glyph-name="Ydieresis" unicode="&#x178;" horiz-adv-x="700" 
d="M299.5 765q-13.5 13 -13.5 33q0 27 22.5 48.5t49.5 21.5q20 0 32.5 -12.5t12.5 -32.5q0 -28 -21.5 -49.5t-48.5 -21.5q-20 0 -33.5 13zM525.5 765q-13.5 13 -13.5 33q0 27 23 48.5t50 21.5q20 0 32.5 -12.5t12.5 -32.5q0 -28 -21.5 -49.5t-48.5 -21.5q-21 0 -34.5 13z
M305 265l-162 434h106l123 -337l270 337h111l-349 -434l-56 -265h-99z" />
    <glyph glyph-name="Zacute" unicode="&#x179;" horiz-adv-x="618" 
d="M452 913h107l-120 -172h-92zM9 69l503 544h-378l18 86h502l-15 -70l-501 -544h403l-18 -85h-528z" />
    <glyph glyph-name="zacute" unicode="&#x17a;" horiz-adv-x="499" 
d="M356 706h107l-120 -172h-92zM8 65l345 337h-267l17 78h393l-15 -66l-344 -336h283l-16 -78h-409z" />
    <glyph glyph-name="Zdotaccent" unicode="&#x17b;" horiz-adv-x="618" 
d="M371.5 754q-13.5 13 -13.5 33q0 27 23 48.5t50 21.5q20 0 32.5 -12.5t12.5 -32.5q0 -28 -21.5 -49.5t-48.5 -21.5q-21 0 -34.5 13zM9 69l503 544h-378l18 86h502l-15 -70l-501 -544h403l-18 -85h-528z" />
    <glyph glyph-name="zdotaccent" unicode="&#x17c;" horiz-adv-x="499" 
d="M276.5 547q-13.5 13 -13.5 33q0 27 23 48.5t50 21.5q20 0 32.5 -12.5t12.5 -32.5q0 -28 -21.5 -49.5t-48.5 -21.5q-21 0 -34.5 13zM8 65l345 337h-267l17 78h393l-15 -66l-344 -336h283l-16 -78h-409z" />
    <glyph glyph-name="Zcaron" unicode="&#x17d;" horiz-adv-x="618" 
d="M264 908h99l61 -107l107 107h105l-178 -166h-89zM9 69l503 544h-378l18 86h502l-15 -70l-501 -544h403l-18 -85h-528z" />
    <glyph glyph-name="zcaron" unicode="&#x17e;" horiz-adv-x="499" 
d="M165 701h99l61 -107l107 107h105l-178 -166h-89zM8 65l345 337h-267l17 78h393l-15 -66l-344 -336h283l-16 -78h-409z" />
    <glyph glyph-name="uni018F" unicode="&#x18f;" horiz-adv-x="823" 
d="M131 55.5q-76 70.5 -76 189.5q0 36 10 88l11 52h624q5 37 5 61q0 91 -59.5 135.5t-200.5 44.5q-66 0 -136.5 -12t-123.5 -32l19 87q50 19 125.5 32t146.5 13q162 0 249.5 -70t87.5 -199q0 -42 -11 -95q-37 -173 -147.5 -269t-298.5 -96q-149 0 -225 70.5zM578.5 135
q78.5 64 106.5 172h-526q-6 -31 -6 -61q0 -175 220 -175q127 0 205.5 64z" />
    <glyph glyph-name="florin" unicode="&#x192;" horiz-adv-x="525" 
d="M-186 -218l32 83q21 -12 55 -12q48 0 78.5 22.5t51.5 69.5l195 462h-80l28 73h84l40 94q39 91 96 130.5t146 39.5q21 0 41.5 -3.5t33.5 -9.5l-31 -81q-24 11 -58 11q-47 0 -77 -21t-52 -72l-37 -88h133l-28 -73h-137l-198 -468q-38 -90 -94.5 -129.5t-146.5 -39.5
q-48 0 -75 12z" />
    <glyph glyph-name="Ohorn" unicode="&#x1a0;" horiz-adv-x="862" 
d="M206.5 20q-68.5 35 -107.5 99.5t-39 149.5q0 38 9 80q23 108 87 191t157 128.5t201 45.5q70 0 128.5 -23.5t99.5 -66.5q49 0 74.5 20.5t35.5 66.5l7 36h94l-8 -41q-12 -57 -54 -100t-100 -57q23 -54 23 -118q0 -38 -9 -82q-23 -108 -86 -190.5t-156.5 -128t-203.5 -45.5
q-84 0 -152.5 35zM520.5 110.5q67.5 33.5 115.5 95t66 143.5q8 36 8 76q0 92 -55.5 143.5t-160.5 51.5q-75 0 -142 -33.5t-115 -95t-65 -142.5q-9 -40 -9 -75q0 -93 56.5 -145t159.5 -52q74 0 141.5 33.5z" />
    <glyph glyph-name="ohorn" unicode="&#x1a1;" horiz-adv-x="677" 
d="M98.5 36q-60.5 51 -60.5 141q0 31 7 62q16 77 61.5 135t114 89.5t152.5 31.5q55 0 98.5 -15.5t73.5 -43.5q38 6 61 28.5t31 57.5l8 36h83l-9 -41q-10 -49 -46 -87.5t-88 -54.5q14 -36 14 -76q0 -23 -7 -60q-25 -118 -112.5 -186t-215.5 -68q-105 0 -165.5 51zM415 113
q56 48 73 126q6 30 6 56q0 119 -139 119q-78 0 -134 -47t-73 -128q-6 -28 -6 -53q0 -58 34 -89.5t105 -31.5q78 0 134 48z" />
    <glyph glyph-name="Uhorn" unicode="&#x1af;" horiz-adv-x="838" 
d="M118.5 39.5q-61.5 54.5 -61.5 150.5q0 31 8 71l93 438h102l-94 -442q-7 -31 -7 -60q0 -62 38.5 -91t117.5 -29q86 0 145.5 45.5t78.5 134.5l94 442h102l-16 -75q49 0 73.5 20t34.5 67l7 36h94l-8 -41q-15 -71 -72 -117t-146 -46l-60 -282q-58 -276 -347 -276
q-115 0 -176.5 54.5z" />
    <glyph glyph-name="uhorn" unicode="&#x1b0;" horiz-adv-x="718" 
d="M84 25.5q-42 40.5 -42 105.5q0 18 5 45l65 304h101l-64 -300q-5 -25 -5 -41q0 -38 22.5 -56t72.5 -18q101 0 178 91l69 324h101l-10 -46q40 2 66.5 25t34.5 60l8 39h83l-9 -41q-13 -63 -66 -105.5t-131 -45.5l-78 -366h-98l14 68q-83 -83 -199 -83q-76 0 -118 40.5z" />
    <glyph glyph-name="uni01CD" unicode="&#x1cd;" horiz-adv-x="746" 
d="M330 908h99l61 -107l107 107h105l-178 -166h-89zM422 699h98l131 -699h-101l-34 174h-309l-104 -174h-108zM507 259l-57 327l-195 -327h252z" />
    <glyph glyph-name="uni01CE" unicode="&#x1ce;" horiz-adv-x="655" 
d="M299 701h99l61 -107l107 107h105l-178 -166h-89zM138.5 9q-46.5 24 -73 68t-26.5 103q0 28 6 59q16 75 61 133t109.5 90.5t136.5 32.5q129 0 180 -79l14 64h101l-102 -480h-98l14 70q-49 -44 -101 -64.5t-117 -20.5q-58 0 -104.5 24zM398.5 97.5q53.5 32.5 84.5 87.5
l23 108q-5 55 -46 88t-103 33q-74 0 -133.5 -48.5t-76.5 -126.5q-7 -35 -7 -57q0 -117 143 -117q62 0 115.5 32.5z" />
    <glyph glyph-name="uni01CF" unicode="&#x1cf;" horiz-adv-x="247" 
d="M83 919h99l61 -107l107 107h105l-178 -166h-89zM182 699h103l-148 -699h-103z" />
    <glyph glyph-name="uni01D0" unicode="&#x1d0;" horiz-adv-x="246" 
d="M36 704h99l61 -107l107 107h105l-178 -166h-89zM136 480h102l-102 -480h-102z" />
    <glyph glyph-name="uni01D1" unicode="&#x1d1;" horiz-adv-x="826" 
d="M370 908h99l61 -107l107 107h105l-178 -166h-89zM206.5 20q-68.5 35 -107.5 99.5t-39 148.5q0 39 9 81q23 108 87 191t157 128.5t201 45.5q86 0 154.5 -35t107 -99t38.5 -149q0 -38 -9 -82q-23 -108 -86.5 -190.5t-156.5 -128t-203 -45.5q-84 0 -152.5 35zM520.5 110.5
q67.5 33.5 115.5 95t66 143.5q8 36 8 76q0 92 -55.5 143.5t-160.5 51.5q-75 0 -142 -33.5t-115 -95t-65 -142.5q-9 -40 -9 -75q0 -93 56.5 -145t159.5 -52q74 0 141.5 33.5z" />
    <glyph glyph-name="uni01D2" unicode="&#x1d2;" horiz-adv-x="655" 
d="M249 701h99l61 -107l107 107h105l-178 -166h-89zM116.5 36q-60.5 51 -60.5 141q0 31 7 62q16 77 61.5 135t114 89.5t152.5 31.5q105 0 165.5 -52.5t60.5 -142.5q0 -30 -7 -61q-25 -118 -112.5 -186t-215.5 -68q-105 0 -165.5 51zM433 113q56 48 73 126q6 30 6 56
q0 119 -139 119q-78 0 -134 -47t-73 -128q-6 -28 -6 -53q0 -58 34 -89.5t105 -31.5q78 0 134 48z" />
    <glyph glyph-name="uni01D3" unicode="&#x1d3;" horiz-adv-x="697" 
d="M305 908h99l61 -107l107 107h105l-178 -166h-89zM118.5 39.5q-61.5 54.5 -61.5 150.5q0 31 8 71l93 438h102l-94 -442q-7 -31 -7 -60q0 -62 38.5 -91t117.5 -29q86 0 145.5 45.5t78.5 134.5l94 442h102l-93 -438q-58 -276 -347 -276q-115 0 -176.5 54.5z" />
    <glyph glyph-name="uni01D4" unicode="&#x1d4;" horiz-adv-x="600" 
d="M210 701h99l61 -107l107 107h105l-178 -166h-89zM84 25.5q-42 40.5 -42 105.5q0 18 5 45l65 304h101l-64 -300q-5 -25 -5 -41q0 -38 22.5 -56t72.5 -18q101 0 178 91l69 324h101l-102 -480h-98l14 68q-83 -83 -199 -83q-76 0 -118 40.5z" />
    <glyph glyph-name="uni01D5" unicode="&#x1d5;" horiz-adv-x="697" 
d="M353 990h311l-15 -69h-311zM308.5 754q-13.5 13 -13.5 33q0 27 22.5 48.5t49.5 21.5q20 0 32.5 -12.5t12.5 -32.5q0 -28 -21.5 -49.5t-48.5 -21.5q-20 0 -33.5 13zM534.5 754q-13.5 13 -13.5 33q0 27 23 48.5t50 21.5q20 0 32.5 -12.5t12.5 -32.5q0 -28 -21.5 -49.5
t-48.5 -21.5q-21 0 -34.5 13zM118.5 39.5q-61.5 54.5 -61.5 150.5q0 31 8 71l93 438h102l-94 -442q-7 -31 -7 -60q0 -62 38.5 -91t117.5 -29q86 0 145.5 45.5t78.5 134.5l94 442h102l-93 -438q-58 -276 -347 -276q-115 0 -176.5 54.5z" />
    <glyph glyph-name="uni01D6" unicode="&#x1d6;" horiz-adv-x="600" 
d="M257 779h311l-15 -69h-311zM214.5 547q-13.5 13 -13.5 33q0 27 22.5 48.5t49.5 21.5q20 0 32.5 -12.5t12.5 -32.5q0 -28 -21.5 -49.5t-48.5 -21.5q-20 0 -33.5 13zM440.5 547q-13.5 13 -13.5 33q0 27 23 48.5t50 21.5q20 0 32.5 -12.5t12.5 -32.5q0 -28 -21.5 -49.5
t-48.5 -21.5q-21 0 -34.5 13zM84 25.5q-42 40.5 -42 105.5q0 18 5 45l65 304h101l-64 -300q-5 -25 -5 -41q0 -38 22.5 -56t72.5 -18q101 0 178 91l69 324h101l-102 -480h-98l14 68q-83 -83 -199 -83q-76 0 -118 40.5z" />
    <glyph glyph-name="uni01D7" unicode="&#x1d7;" horiz-adv-x="697" 
d="M520 971h90l-97 -125h-76zM307.5 762q-13.5 13 -13.5 33q0 27 22.5 48.5t49.5 21.5q20 0 33 -13t13 -33q0 -27 -22 -48.5t-49 -21.5q-20 0 -33.5 13zM543.5 762q-13.5 13 -13.5 33q0 27 22.5 48.5t49.5 21.5q20 0 33 -13t13 -33q0 -27 -22 -48.5t-49 -21.5
q-20 0 -33.5 13zM118.5 39.5q-61.5 54.5 -61.5 150.5q0 31 8 71l93 438h102l-94 -442q-7 -31 -7 -60q0 -62 38.5 -91t117.5 -29q86 0 145.5 45.5t78.5 134.5l94 442h102l-93 -438q-58 -276 -347 -276q-115 0 -176.5 54.5z" />
    <glyph glyph-name="uni01D8" unicode="&#x1d8;" horiz-adv-x="600" 
d="M417 757h90l-97 -125h-76zM204.5 548q-13.5 13 -13.5 33q0 27 22.5 48.5t49.5 21.5q20 0 33 -13t13 -33q0 -27 -22 -48.5t-49 -21.5q-20 0 -33.5 13zM440.5 548q-13.5 13 -13.5 33q0 27 22.5 48.5t49.5 21.5q20 0 33 -13t13 -33q0 -27 -22 -48.5t-49 -21.5
q-20 0 -33.5 13zM84 25.5q-42 40.5 -42 105.5q0 18 5 45l65 304h101l-64 -300q-5 -25 -5 -41q0 -38 22.5 -56t72.5 -18q101 0 178 91l69 324h101l-102 -480h-98l14 68q-83 -83 -199 -83q-76 0 -118 40.5z" />
    <glyph glyph-name="uni01D9" unicode="&#x1d9;" horiz-adv-x="697" 
d="M349 968h85l55 -78l86 78h85l-145 -125h-73zM303.5 754q-13.5 13 -13.5 33q0 27 22.5 48.5t49.5 21.5q20 0 33 -13t13 -33q0 -27 -22 -48.5t-49 -21.5q-20 0 -33.5 13zM539.5 754q-13.5 13 -13.5 33q0 27 22.5 48.5t49.5 21.5q20 0 33 -13t13 -33q0 -27 -22 -48.5
t-49 -21.5q-20 0 -33.5 13zM118.5 39.5q-61.5 54.5 -61.5 150.5q0 31 8 71l93 438h102l-94 -442q-7 -31 -7 -60q0 -62 38.5 -91t117.5 -29q86 0 145.5 45.5t78.5 134.5l94 442h102l-93 -438q-58 -276 -347 -276q-115 0 -176.5 54.5z" />
    <glyph glyph-name="uni01DA" unicode="&#x1da;" horiz-adv-x="600" 
d="M247 761h85l55 -78l86 78h85l-145 -125h-73zM201.5 547q-13.5 13 -13.5 33q0 27 22.5 48.5t49.5 21.5q20 0 33 -13t13 -33q0 -27 -22 -48.5t-49 -21.5q-20 0 -33.5 13zM437.5 547q-13.5 13 -13.5 33q0 27 22.5 48.5t49.5 21.5q20 0 33 -13t13 -33q0 -27 -22 -48.5
t-49 -21.5q-20 0 -33.5 13zM84 25.5q-42 40.5 -42 105.5q0 18 5 45l65 304h101l-64 -300q-5 -25 -5 -41q0 -38 22.5 -56t72.5 -18q101 0 178 91l69 324h101l-102 -480h-98l14 68q-83 -83 -199 -83q-76 0 -118 40.5z" />
    <glyph glyph-name="uni01DB" unicode="&#x1db;" horiz-adv-x="697" 
d="M401 963h90l29 -125h-76zM306.5 754q-13.5 13 -13.5 33q0 27 22.5 48.5t49.5 21.5q20 0 33 -13t13 -33q0 -27 -22 -48.5t-49 -21.5q-20 0 -33.5 13zM542.5 754q-13.5 13 -13.5 33q0 27 22.5 48.5t49.5 21.5q20 0 33 -13t13 -33q0 -27 -22 -48.5t-49 -21.5q-20 0 -33.5 13
zM118.5 39.5q-61.5 54.5 -61.5 150.5q0 31 8 71l93 438h102l-94 -442q-7 -31 -7 -60q0 -62 38.5 -91t117.5 -29q86 0 145.5 45.5t78.5 134.5l94 442h102l-93 -438q-58 -276 -347 -276q-115 0 -176.5 54.5z" />
    <glyph glyph-name="uni01DC" unicode="&#x1dc;" horiz-adv-x="600" 
d="M301 756h90l29 -125h-76zM206.5 547q-13.5 13 -13.5 33q0 27 22.5 48.5t49.5 21.5q20 0 33 -13t13 -33q0 -27 -22 -48.5t-49 -21.5q-20 0 -33.5 13zM442.5 547q-13.5 13 -13.5 33q0 27 22.5 48.5t49.5 21.5q20 0 33 -13t13 -33q0 -27 -22 -48.5t-49 -21.5q-20 0 -33.5 13
zM84 25.5q-42 40.5 -42 105.5q0 18 5 45l65 304h101l-64 -300q-5 -25 -5 -41q0 -38 22.5 -56t72.5 -18q101 0 178 91l69 324h101l-102 -480h-98l14 68q-83 -83 -199 -83q-76 0 -118 40.5z" />
    <glyph glyph-name="Gcaron" unicode="&#x1e6;" horiz-adv-x="716" 
d="M336 919h99l61 -107l107 107h105l-178 -166h-89zM203.5 18.5q-68.5 33.5 -106.5 96.5t-38 147q0 43 10 87q23 109 87.5 192t158 128t201.5 45q74 0 129.5 -17.5t96.5 -54.5l-21 -98q-38 39 -89.5 57.5t-126.5 18.5q-79 0 -149 -33t-118.5 -94.5t-65.5 -143.5
q-9 -42 -9 -78q0 -92 57 -143t166 -51q46 0 87 9.5t70 27.5l39 183h-133l17 83h235l-68 -320q-106 -75 -272 -75q-89 0 -157.5 33.5z" />
    <glyph glyph-name="gcaron" unicode="&#x1e7;" horiz-adv-x="660" 
d="M211 707h99l61 -107l107 107h105l-178 -166h-89zM123 -222q-45 8 -74 23l18 83q68 -34 167 -34q93 0 144 41t68 122l11 51q-82 -79 -211 -79q-59 0 -106 24.5t-73.5 69t-26.5 103.5q0 28 6 58q24 117 105.5 186t200.5 69q67 0 109 -19.5t73 -64.5l15 69h98l-97 -456
q-27 -125 -106 -189.5t-227 -64.5q-49 0 -94 8zM399.5 98q54.5 33 83.5 88l23 108q-7 56 -47 88t-102 32q-79 0 -135.5 -47.5t-73.5 -126.5q-6 -25 -6 -49q0 -59 36.5 -92.5t104.5 -33.5q62 0 116.5 33z" />
    <glyph glyph-name="Aringacute" unicode="&#x1fa;" horiz-adv-x="746" 
d="M599 1050h107l-120 -138h-92zM403 669q-18 12 -27.5 31t-9.5 43q0 13 3 26q11 49 50 82.5t91 33.5q42 0 68 -26t26 -65q0 -13 -3 -25q-8 -32 -28 -58.5t-48 -41.5l126 -669h-101l-34 174h-309l-104 -174h-108zM519 735q21 21 21 47q0 18 -11 29.5t-33 11.5t-41 -16
t-24 -38q-2 -10 -2 -15q0 -18 11 -29t33 -11q25 0 46 21zM507 259l-57 327l-195 -327h252z" />
    <glyph glyph-name="aringacute" unicode="&#x1fb;" horiz-adv-x="655" 
d="M586 937h107l-120 -138h-92zM377 560.5q-26 25.5 -26 65.5q0 12 3 25q11 49 50 82.5t91 33.5q42 0 68 -26t26 -65q0 -13 -3 -25q-11 -50 -50 -83t-91 -33q-42 0 -68 25.5zM504 617q21 21 21 47q0 18 -11 29.5t-33 11.5t-41 -16t-24 -38q-2 -10 -2 -15q0 -18 11 -29
t33 -11q25 0 46 21zM138.5 9q-46.5 24 -73 68t-26.5 103q0 28 6 59q16 75 61 133t109.5 90.5t136.5 32.5q129 0 180 -79l14 64h101l-102 -480h-98l14 70q-49 -44 -101 -64.5t-117 -20.5q-58 0 -104.5 24zM398.5 97.5q53.5 32.5 84.5 87.5l23 108q-5 55 -46 88t-103 33
q-74 0 -133.5 -48.5t-76.5 -126.5q-7 -35 -7 -57q0 -117 143 -117q62 0 115.5 32.5z" />
    <glyph glyph-name="AEacute" unicode="&#x1fc;" horiz-adv-x="922" 
d="M723 913h107l-120 -172h-92zM486 699h489l-18 -86h-320l-47 -221h229l-18 -85h-229l-47 -222h320l-18 -85h-422l38 179h-215l-125 -179h-108zM460 259l74 348h-8l-240 -348h174z" />
    <glyph glyph-name="aeacute" unicode="&#x1fd;" horiz-adv-x="972" 
d="M595 706h107l-120 -172h-92zM66.5 20q-44.5 35 -44.5 95q0 19 4 35q17 80 77 123.5t153 43.5q99 0 159 -40l6 25q4 22 4 32q0 41 -30 60.5t-94 19.5q-44 0 -87 -8.5t-79 -23.5l17 82q33 14 83 22.5t95 8.5q64 0 109 -21.5t64 -58.5q41 38 97.5 59t122.5 21
q104 0 159 -52.5t55 -134.5q0 -23 -7 -58l-11 -50h-420q-2 -18 -2 -26q0 -57 41.5 -83t128.5 -26q47 0 95.5 8.5t87.5 22.5l-17 -81q-35 -13 -89.5 -21.5t-105.5 -8.5q-73 0 -125.5 23t-80.5 66q-99 -89 -245 -89q-76 0 -120.5 35zM838 271q4 19 4 39q0 104 -138 104
q-76 0 -125 -39t-65 -104h324zM315 80.5q42 18.5 70 52.5l14 66q-28 21 -61 31.5t-75 10.5q-116 0 -135 -91q-3 -13 -3 -24q0 -32 24 -48t76 -16q48 0 90 18.5z" />
    <glyph glyph-name="Oslashacute" unicode="&#x1fe;" horiz-adv-x="826" 
d="M576 920h107l-120 -172h-93zM191 27q-62 36 -96.5 97.5t-34.5 141.5q0 40 9 83q23 108 87 191t157 128.5t201 45.5q50 0 93 -12l50 82h100l-71 -115q60 -36 94 -97t34 -140q0 -39 -9 -83q-23 -108 -86.5 -190.5t-156.5 -128t-203 -45.5q-42 0 -87 10l-50 -81h-100z
M553 616q-36 4 -59 4q-75 0 -142 -33.5t-115 -95t-65 -142.5q-10 -44 -10 -87q0 -109 78 -155zM520.5 110.5q67.5 33.5 115.5 95t66 143.5q9 45 9 84q0 110 -75 155l-312 -508q26 -3 55 -3q74 0 141.5 33.5z" />
    <glyph glyph-name="oslashacute" unicode="&#x1ff;" horiz-adv-x="637" 
d="M411 706h107l-120 -172h-92zM129 15q-44 24 -67.5 65.5t-23.5 96.5q0 31 7 62q16 77 61.5 135t114 89.5t152.5 31.5q17 0 49 -4l46 75h100l-62 -101q45 -25 69 -67t24 -98q0 -30 -7 -61q-25 -118 -112.5 -186t-215.5 -68q-30 0 -51 4l-46 -75h-100zM374 413q-6 1 -19 1
q-78 0 -134 -47t-73 -128q-6 -28 -6 -53q0 -61 36 -91zM281 65q78 0 134 48t73 126q6 30 6 55q0 62 -37 92l-197 -321h21z" />
    <glyph glyph-name="Scommaaccent" unicode="&#x218;" horiz-adv-x="561" 
d="M89.5 -4.5q-55.5 10.5 -89.5 28.5l19 92q87 -45 198 -45q156 0 178 105q3 15 3 26q0 26 -15 44t-42.5 32.5t-85.5 39.5q-74 31 -110.5 71t-36.5 94q0 19 5 44q17 85 91 136t186 51q57 0 101.5 -9t83.5 -29l-19 -88q-78 39 -167 39q-72 0 -115.5 -26t-53.5 -74
q-3 -13 -3 -24q0 -36 29.5 -58.5t105.5 -56.5q83 -36 120 -71t37 -92q0 -22 -6 -49q-19 -92 -93 -141.5t-205 -49.5q-60 0 -115.5 10.5zM160 -60h105l-137 -199h-93z" />
    <glyph glyph-name="scommaaccent" unicode="&#x219;" horiz-adv-x="489" 
d="M84.5 -2.5q-53.5 12.5 -80.5 33.5l18 86q34 -24 82.5 -38t95.5 -14q54 0 82 13t34 42q2 10 2 14q0 16 -11 27t-34.5 20.5t-71.5 24.5q-67 21 -100.5 48.5t-33.5 71.5q0 14 3 29q31 140 231 140q48 0 91.5 -9t68.5 -25l-17 -84q-25 17 -66 27t-85 10q-53 0 -83.5 -13
t-37.5 -46q-2 -10 -2 -13q0 -16 11.5 -26t35 -18.5t73.5 -23.5q69 -20 101 -48t32 -72q0 -9 -4 -33q-29 -136 -231 -136q-50 0 -103.5 12.5zM133 -60h105l-137 -199h-93z" />
    <glyph glyph-name="uni021A" unicode="&#x21a;" horiz-adv-x="587" 
d="M322 613h-217l18 86h537l-18 -86h-217l-130 -613h-103zM175 -60h106l-138 -200h-91z" />
    <glyph glyph-name="uni021B" unicode="&#x21b;" horiz-adv-x="374" 
d="M104 13.5q-31 28.5 -31 82.5q0 23 6 50l54 256h-73l17 78h73l30 144h102l-30 -144h118l-17 -78h-118l-53 -249q-5 -27 -5 -40q0 -26 14.5 -37t49.5 -11q15 0 34.5 3.5t34.5 9.5l-17 -80q-40 -13 -97 -13q-61 0 -92 28.5zM123 -60h106l-138 -200h-91z" />
    <glyph glyph-name="uni0237" unicode="&#x237;" horiz-adv-x="241" 
d="M-166 -220l17 83q24 -12 58 -12q44 0 68 21.5t34 69.5l115 538h102l-116 -545q-18 -83 -73 -124.5t-132 -41.5q-45 0 -73 11z" />
    <glyph glyph-name="uni0251" unicode="&#x251;" horiz-adv-x="660" 
d="M138.5 9q-46.5 24 -73 68t-26.5 103q0 28 6 59q16 75 61 133t109.5 90.5t136.5 32.5q129 0 180 -79l14 64h101l-102 -480h-98l14 70q-49 -44 -101 -64.5t-117 -20.5q-58 0 -104.5 24zM398.5 97.5q53.5 32.5 84.5 87.5l23 108q-5 55 -46 88t-103 33q-74 0 -133.5 -48.5
t-76.5 -126.5q-7 -35 -7 -57q0 -117 143 -117q62 0 115.5 32.5z" />
    <glyph glyph-name="uni0259" unicode="&#x259;" horiz-adv-x="608" 
d="M134.5 10q-47.5 25 -72.5 68t-25 97q0 27 6 54l11 50h422q2 20 2 29q0 56 -40 81.5t-133 25.5q-46 0 -95 -8.5t-88 -22.5l17 81q35 13 89.5 21.5t105.5 8.5q113 0 175 -49.5t62 -140.5q0 -32 -7 -64q-26 -122 -103 -189t-212 -67q-67 0 -114.5 25zM395 104.5
q51 39.5 66 104.5h-327q-5 -28 -5 -47q0 -49 32 -73t107 -24q76 0 127 39.5z" />
    <glyph glyph-name="uni02BB" unicode="&#x2bb;" horiz-adv-x="256" 
d="M224 714h88l-108 -195h-99z" />
    <glyph glyph-name="uni02BC" unicode="&#x2bc;" horiz-adv-x="256" 
d="M212 714h100l-120 -195h-87z" />
    <glyph glyph-name="uni02BE" unicode="&#x2be;" 
d="M8 608q35 0 56 14.5t28 47.5q2 14 2 18q0 23 -15 33.5t-45 10.5l16 73q55 0 87 -25t32 -74q0 -19 -4 -36q-14 -67 -61 -101t-112 -34z" />
    <glyph glyph-name="uni02BF" unicode="&#x2bf;" 
d="M49 559.5q-32 24.5 -32 73.5q0 20 4 37q14 66 61 100.5t112 34.5l-16 -73q-72 0 -84 -62q-2 -7 -2 -19q0 -43 60 -43l-16 -73q-55 0 -87 24.5z" />
    <glyph glyph-name="circumflex" unicode="&#x2c6;" horiz-adv-x="463" 
d="M298 761h89l107 -166h-99l-61 106l-107 -106h-106z" />
    <glyph glyph-name="caron" unicode="&#x2c7;" horiz-adv-x="463" 
d="M157 764h100l61 -107l107 107h105l-177 -166h-89z" />
    <glyph glyph-name="uni02C8" unicode="&#x2c8;" 
d="M68 756h82l-37 -174h-82z" />
    <glyph glyph-name="uni02C9" unicode="&#x2c9;" horiz-adv-x="589" 
d="M228 674h319l-15 -70h-319z" />
    <glyph glyph-name="uni02CA" unicode="&#x2ca;" 
d="M91 760h107l-120 -172h-93z" />
    <glyph glyph-name="uni02CB" unicode="&#x2cb;" 
d="M105 760h92l-105 -172h-107z" />
    <glyph glyph-name="uni02CC" unicode="&#x2cc;" 
d="M-105 -64h81l-36 -173h-82z" />
    <glyph glyph-name="breve" unicode="&#x2d8;" horiz-adv-x="390" 
d="M174.5 602q-32.5 29 -32.5 78q0 9 4 33h74q-2 -7 -2 -20q0 -25 15.5 -38t44.5 -13q34 0 57 18.5t31 52.5h80q-13 -62 -62 -101t-118 -39q-59 0 -91.5 29z" />
    <glyph glyph-name="dotaccent" unicode="&#x2d9;" horiz-adv-x="206" 
d="M143.5 598q-13.5 13 -13.5 33q0 27 22.5 48.5t49.5 21.5q20 0 33 -13t13 -33q0 -27 -22 -48.5t-49 -21.5q-20 0 -33.5 13z" />
    <glyph glyph-name="ring" unicode="&#x2da;" horiz-adv-x="322" 
d="M159 571q-27 26 -27 66q0 12 3 24q11 49 50.5 82.5t90.5 33.5q40 0 67 -26.5t27 -65.5q0 -12 -3 -24q-11 -49 -50.5 -82.5t-90.5 -33.5q-40 0 -67 26zM281 622.5q20 16.5 24 38.5q1 5 1 14q0 18 -11 29t-33 11t-41 -16t-24 -38q-2 -10 -2 -16q0 -18 10.5 -28.5
t33.5 -10.5q22 0 42 16.5z" />
    <glyph glyph-name="ogonek" unicode="&#x2db;" horiz-adv-x="271" 
d="M-9.5 -194.5q-23.5 17.5 -23.5 50.5q0 14 2 22q8 37 35 69t65 53h94q-46 -26 -70.5 -51t-31.5 -55q-1 -5 -1 -13q0 -30 37 -30q24 0 49 10l-13 -61q-34 -12 -80 -12q-39 0 -62.5 17.5z" />
    <glyph glyph-name="tilde" unicode="&#x2dc;" horiz-adv-x="470" 
d="M140 685q40 43 106 43q22 0 41 -6t49 -19q24 -12 43.5 -18.5t41.5 -6.5q30 0 56 11.5t52 39.5l-18 -86q-38 -42 -107 -42q-25 0 -46 6.5t-47 19.5q-25 12 -42.5 18t-38.5 6q-29 0 -55.5 -12t-52.5 -40z" />
    <glyph glyph-name="hungarumlaut" unicode="&#x2dd;" horiz-adv-x="467" 
d="M224 753h101l-120 -172h-87zM430 753h102l-120 -172h-87z" />
    <glyph glyph-name="gravecomb" unicode="&#x300;" 
d="M-351 760h107l32 -172h-93z" />
    <glyph glyph-name="acutecomb" unicode="&#x301;" 
d="M-168 760h107l-120 -172h-92z" />
    <glyph glyph-name="uni0302" unicode="&#x302;" 
d="M66 758h89l106 -166h-99l-61 107l-107 -107h-105z" />
    <glyph glyph-name="tildecomb" unicode="&#x303;" 
d="M-403 685q40 43 107 43q22 0 41 -6t49 -19q24 -12 43.5 -18.5t41.5 -6.5q30 0 55.5 11.5t50.5 39.5l-18 -86q-37 -42 -105 -42q-25 0 -46 6.5t-47 19.5q-25 12 -42.5 18t-38.5 6q-29 0 -55.5 -12t-53.5 -40z" />
    <glyph glyph-name="uni0304" unicode="&#x304;" 
d="M-57 673h311l-15 -69h-311z" />
    <glyph glyph-name="uni0306" unicode="&#x306;" 
d="M-21 602q-32 29 -32 79q0 16 3 32h75q-2 -7 -2 -20q0 -25 15.5 -38t44.5 -13q34 0 57 18.5t31 52.5h80q-13 -62 -62 -101t-118 -39q-60 0 -92 29z" />
    <glyph glyph-name="uni0307" unicode="&#x307;" 
d="M39.5 598q-13.5 13 -13.5 33q0 27 23 48.5t50 21.5q20 0 32.5 -12.5t12.5 -32.5q0 -28 -21.5 -49.5t-48.5 -21.5q-21 0 -34.5 13z" />
    <glyph glyph-name="uni0308" unicode="&#x308;" 
d="M-73.5 598q-13.5 13 -13.5 33q0 27 22.5 48.5t49.5 21.5q20 0 32.5 -12.5t12.5 -32.5q0 -28 -21.5 -49.5t-48.5 -21.5q-20 0 -33.5 13zM152.5 598q-13.5 13 -13.5 33q0 27 23 48.5t50 21.5q20 0 32.5 -12.5t12.5 -32.5q0 -28 -21.5 -49.5t-48.5 -21.5q-21 0 -34.5 13z
" />
    <glyph glyph-name="hookabovecomb" unicode="&#x309;" 
d="M-311 637q47 0 72 12.5t31 40.5l2 12q0 32 -58 32q-13 0 -34.5 -3.5t-31.5 -7.5l12 55q16 5 41.5 9t48.5 4q56 0 84 -20t28 -56q0 -44 -31 -76t-83 -39l-7 -34h-89z" />
    <glyph glyph-name="uni030A" unicode="&#x30a;" 
d="M-3 570.5q-26 25.5 -26 65.5q0 12 3 25q11 49 50 82.5t91 33.5q42 0 68 -26t26 -65q0 -13 -3 -25q-11 -50 -50 -83t-91 -33q-42 0 -68 25.5zM124 627q21 21 21 47q0 18 -11 29.5t-33 11.5t-41 -16t-24 -38q-2 -10 -2 -15q0 -18 11 -29t33 -11q25 0 46 21z" />
    <glyph glyph-name="uni030B" unicode="&#x30b;" 
d="M-19 760h102l-120 -172h-86zM188 760h102l-120 -172h-88z" />
    <glyph glyph-name="uni030C" unicode="&#x30c;" 
d="M-75 758h99l61 -107l107 107h105l-178 -166h-89z" />
    <glyph glyph-name="uni031B" unicode="&#x31b;" 
d="M-1 626q45 0 74 23t37 62l7 36h81l-8 -41q-14 -65 -70 -108t-137 -43z" />
    <glyph glyph-name="dotbelowcomb" unicode="&#x323;" 
d="M-119 -153q-13 13 -13 33q0 27 22.5 48.5t49.5 21.5q19 0 32 -13.5t13 -33.5q0 -27 -22 -48t-48 -21q-21 0 -34 13z" />
    <glyph glyph-name="uni0324" unicode="&#x324;" 
d="M-227 -153q-13 13 -13 33q0 27 22 48.5t49 21.5q20 0 33.5 -13.5t13.5 -33.5q0 -27 -23 -48t-49 -21q-20 0 -33 13zM-12 -153q-13 13 -13 33q0 27 22 48.5t49 21.5q20 0 33.5 -13.5t13.5 -33.5q0 -27 -23 -48t-49 -21q-20 0 -33 13z" />
    <glyph glyph-name="uni0326" unicode="&#x326;" 
d="M-214 -60h106l-138 -200h-91z" />
    <glyph glyph-name="uni0327" unicode="&#x327;" 
d="M-203 -237l13 58q9 -5 25 -8t30 -3q64 0 74 46q1 4 1 11q0 44 -90 44l52 89h92l-34 -56q73 -10 73 -71q0 -54 -43 -87.5t-113 -33.5q-55 0 -80 11z" />
    <glyph glyph-name="uni0328" unicode="&#x328;" 
d="M-141 -194.5q-24 17.5 -24 50.5q0 10 3 22q8 37 35 68.5t64 53.5h94q-45 -25 -69.5 -50.5t-31.5 -55.5q-1 -5 -1 -13q0 -30 35 -30q25 0 50 10l-13 -61q-34 -12 -79 -12q-39 0 -63 17.5z" />
    <glyph glyph-name="uni032E" unicode="&#x32e;" 
d="M-184 -173q-33 29 -33 78q0 18 4 34h75q-2 -7 -2 -21q0 -24 15.5 -37.5t43.5 -13.5q34 0 57 19t31 53h80q-14 -63 -62.5 -102t-116.5 -39q-59 0 -92 29z" />
    <glyph glyph-name="uni0331" unicode="&#x331;" 
d="M-217 -71h313l-14 -70h-313z" />
    <glyph glyph-name="uni0394" unicode="&#x394;" horiz-adv-x="687" 
d="M10 73l388 641h93l116 -641l-15 -73h-597zM515 84l-92 517l-312 -517h404z" />
    <glyph glyph-name="uni03A9" unicode="&#x3a9;" horiz-adv-x="820" 
d="M13 85h139q-41 35 -64.5 86.5t-23.5 114.5q0 32 8 72q22 104 81.5 184.5t151 126t206.5 45.5q93 0 160 -33.5t102.5 -95t35.5 -142.5q0 -40 -9 -85q-19 -87 -71.5 -157t-124.5 -116h139l-18 -85h-284l17 80q104 52 161.5 118.5t77.5 159.5q8 42 8 73q0 89 -54 139
t-160 50q-75 0 -141.5 -33t-112.5 -92.5t-62 -136.5q-8 -35 -8 -73q0 -64 31 -114t97 -91l-17 -80h-283z" />
    <glyph glyph-name="uni03BC" unicode="&#x3bc;" horiz-adv-x="605" 
d="M117 480h101l-65 -303q-5 -25 -5 -41q0 -37 23 -54t73 -17q101 0 178 91l69 324h101l-102 -480h-98l14 68q-83 -83 -199 -83q-55 0 -89 26l-49 -230h-101z" />
    <glyph glyph-name="pi" unicode="&#x3c0;" horiz-adv-x="697" 
d="M432.5 14.5q-33.5 29.5 -33.5 86.5q0 24 6 52l51 241h-191l-83 -394h-103l83 394h-94l19 86h585l-19 -86h-94l-50 -238q-5 -27 -5 -40q0 -25 13.5 -37t45.5 -12q39 0 65 11l-17 -82q-36 -11 -81 -11q-64 0 -97.5 29.5z" />
    <glyph glyph-name="uni0E01" unicode="&#xe01;" horiz-adv-x="640" 
d="M115 333l-33 81q68 67 143.5 101.5t167.5 34.5q101 0 155.5 -41t54.5 -116q0 -23 -6 -50l-72 -343h-102l71 335q6 27 6 48q0 45 -29 65.5t-95 20.5q-55 0 -100.5 -16.5t-86.5 -52.5l28 -67l-70 -333h-102z" />
    <glyph glyph-name="uni0E02" unicode="&#xe02;" horiz-adv-x="582" 
d="M87 29q-52 44 -52 115q0 22 4 41l7 34q7 34 27.5 62t55.5 66q25 27 37 42t15 30q1 4 1 12q0 12 -8 17.5t-27 5.5h-56l17 81h105q37 0 57 -18.5t20 -51.5q0 -15 -2 -23q-6 -30 -23 -55t-50 -62q-29 -32 -45 -54.5t-21 -47.5l-8 -37q-4 -19 -4 -38q0 -41 26.5 -62t84.5 -21
q66 0 105 32.5t52 91.5l73 346h102l-70 -329q-22 -105 -92 -163t-187 -58q-92 0 -144 44z" />
    <glyph glyph-name="uni0E03" unicode="&#xe03;" horiz-adv-x="589" 
d="M132.5 5.5q-44.5 20.5 -68.5 56.5t-24 81q0 17 5 40l9 39q7 32 29.5 60.5t63.5 67.5q26 25 39 40t16 28l1 3q-22 -11 -50 -11q-26 0 -42 14t-16 40q0 11 3 23l10 48h73l-7 -35q-2 -10 -2 -13q0 -18 27 -18q19 0 36 13l11 53h79l-19 -91q-7 -35 -28 -63.5t-59 -68.5
q-28 -29 -43.5 -49.5t-20.5 -41.5l-7 -36q-4 -17 -4 -37q0 -41 26 -62t84 -21q67 0 106.5 32.5t51.5 91.5l73 346h102l-70 -329q-22 -105 -91.5 -163t-188.5 -58q-60 0 -104.5 20.5z" />
    <glyph glyph-name="uni0E04" unicode="&#xe04;" horiz-adv-x="639" 
d="M85 331q22 106 100.5 162.5t200.5 56.5q101 0 157.5 -44.5t56.5 -122.5q0 -25 -6 -52l-70 -331h-102l70 331q5 20 5 45q0 47 -31 70t-97 23q-73 0 -120 -33.5t-62 -104.5l-21 -99q18 24 49 38.5t69 14.5h80l-18 -84h-88q-42 0 -76.5 -29.5t-42.5 -67.5l-22 -104h-102z
" />
    <glyph glyph-name="uni0E05" unicode="&#xe05;" horiz-adv-x="639" 
d="M96 380q17 80 59 125t120 45q75 0 94 -61q22 29 54.5 45t72.5 16q61 0 88 -28.5t27 -81.5q0 -34 -9 -73l-78 -367h-102l80 381q6 26 6 44q0 22 -11 33t-36 11q-27 0 -44 -14.5t-32 -47.5h-60q-1 33 -11.5 47.5t-37.5 14.5q-34 0 -51 -21t-27 -66l-32 -150q18 24 49 38.5
t69 14.5h80l-18 -84h-88q-42 0 -76.5 -29t-42.5 -68l-22 -104h-102z" />
    <glyph glyph-name="uni0E06" unicode="&#xe06;" horiz-adv-x="620" 
d="M195.5 6.5q-45.5 21.5 -75.5 65.5l-15 -72h-98l45 212q8 35 33 68t65 74q24 24 36.5 38.5t15.5 25.5l1 3q-22 -11 -50 -11q-26 0 -41.5 15t-15.5 41q0 13 2 21l10 48h73l-7 -35q-2 -10 -2 -13q0 -18 27 -18q19 0 36 13l11 53h79l-20 -93q-7 -34 -27.5 -62.5t-56.5 -66.5
q-31 -34 -46.5 -55t-20.5 -44l-12 -57q39 -92 142 -92q70 0 107.5 29.5t50.5 91.5l74 349h102l-75 -353q-20 -93 -83 -145t-166 -52q-53 0 -98.5 21.5z" />
    <glyph glyph-name="uni0E07" unicode="&#xe07;" horiz-adv-x="619" 
d="M94 468h102l45 -388q94 0 156 52t82 147q10 50 10 81q0 55 -27.5 82t-89.5 27q-36 0 -72 -9l17 79q42 11 89 11q93 0 140 -48t47 -136q0 -43 -10 -87q-18 -87 -69 -150t-122 -96t-149 -33h-96z" />
    <glyph glyph-name="uni0E08" unicode="&#xe08;" horiz-adv-x="587" 
d="M84 294h101l7 -214q97 0 166 50.5t88 141.5q8 40 8 69q0 64 -40 96t-132 32q-51 0 -104 -9.5t-91 -25.5l17 80q40 17 95.5 26.5t111.5 9.5q117 0 181.5 -53t64.5 -151q0 -39 -8 -74q-17 -82 -68.5 -143.5t-126.5 -95t-161 -33.5h-99z" />
    <glyph glyph-name="uni0E09" unicode="&#xe09;" horiz-adv-x="608" 
d="M83 24q-43 39 -43 105q0 24 6 49l28 128h102l-26 -122q-6 -27 -6 -47q0 -38 24 -55t80 -17q102 0 176 92l28 132q9 39 9 70q0 57 -37.5 83.5t-125.5 26.5q-54 0 -113 -9.5t-98 -25.5l17 80q40 16 101.5 26t118.5 10q123 0 181.5 -44.5t58.5 -133.5q0 -35 -9 -79l-62 -293
h-98l15 72q-43 -44 -97 -65.5t-111 -21.5q-76 0 -119 39z" />
    <glyph glyph-name="uni0E0A" unicode="&#xe0a;" horiz-adv-x="584" 
d="M89 30q-54 45 -54 116q0 22 4 39l7 34q7 35 28 64t56 66q23 24 35.5 40t15.5 30q1 4 1 12q0 12 -8 17.5t-27 5.5h-56l17 81h105q37 0 57 -18.5t20 -51.5q0 -15 -2 -23q-6 -31 -23.5 -56.5t-49.5 -60.5q-29 -32 -45 -54.5t-21 -47.5l-8 -37q-4 -17 -4 -36q0 -85 114 -85
q68 0 114 37t61 109q7 29 7 57q0 87 -94 87l12 55l136 140h110l-144 -149q41 -18 61 -52.5t20 -82.5q0 -26 -6 -55q-21 -106 -96.5 -166t-197.5 -60q-91 0 -145 45z" />
    <glyph glyph-name="uni0E0B" unicode="&#xe0b;" horiz-adv-x="591" 
d="M136.5 6.5q-45.5 21.5 -70.5 58.5t-25 82q0 20 4 36l9 39q7 33 31 63t64 69q24 24 36.5 38.5t16.5 25.5l1 3q-22 -11 -50 -11q-26 0 -42 14t-16 40q0 11 3 23l10 48h73l-7 -35q-2 -12 -2 -15q0 -9 6 -12.5t21 -3.5q19 0 36 13l11 53h79l-19 -91q-7 -34 -27.5 -62
t-58.5 -68q-30 -31 -45.5 -51.5t-19.5 -41.5l-7 -36q-4 -26 -4 -36q0 -42 27.5 -63t86.5 -21q67 0 113.5 37t61.5 109q7 29 7 57q0 87 -94 87l12 55l135 140h111l-145 -149q83 -37 83 -132q0 -21 -7 -58q-22 -106 -98 -166t-196 -60q-59 0 -104.5 21.5z" />
    <glyph glyph-name="uni0E0C" unicode="&#xe0c;" horiz-adv-x="996" 
d="M586 5.5q-43 20.5 -71 64.5l-14 -70h-98l71 335q5 23 5 47q0 45 -27 66t-86 21q-52 0 -94 -16t-83 -53l28 -67l-42 -198q-3 -13 -3 -23q0 -14 9 -20.5t29 -6.5h61l-18 -85h-106q-42 0 -63 19t-21 55q0 9 4 31l48 228l-33 81q68 67 140.5 101.5t160.5 34.5
q96 0 147.5 -40.5t51.5 -114.5q0 -25 -6 -52l-39 -186q20 -47 54 -69.5t79 -22.5q68 0 101.5 29t46.5 92l74 349h102l-75 -353q-19 -90 -78.5 -143.5t-160.5 -53.5q-51 0 -94 20.5z" />
    <glyph glyph-name="uni0E0D" unicode="&#xe0d;" horiz-adv-x="1005" 
d="M531 -86.5q-51 11.5 -80 30.5l18 85q74 -47 180 -47q79 0 125 23t46 69q0 16 -9 29q-64 -32 -150 -32q-95 0 -148.5 47t-53.5 123q0 27 5 48l10 46q6 30 6 53q0 43 -26 62t-88 19q-52 0 -94 -16t-83 -53l28 -67l-42 -198q-3 -13 -3 -23q0 -14 9 -20.5t29 -6.5h61l-18 -85
h-106q-42 0 -63 19t-21 55q0 9 4 31l48 228l-33 81q68 67 140.5 101.5t160.5 34.5q97 0 147.5 -42t50.5 -116q0 -21 -5 -49l-10 -50q-6 -30 -6 -53q0 -46 27.5 -67.5t90.5 -21.5q72 0 114.5 38t56.5 106l51 240h102l-52 -246q-17 -77 -63 -129q28 -31 28 -72q0 -13 -3 -30
q-16 -77 -87.5 -116.5t-192.5 -39.5q-50 0 -101 11.5z" />
    <glyph glyph-name="uni0E0E" unicode="&#xe0e;" horiz-adv-x="659" 
d="M102 -141q31 25 78.5 40t93.5 15q89 0 141 -41l98 462q6 26 6 47q0 45 -29.5 66t-94.5 21q-55 0 -99 -15.5t-85 -50.5l45 -69l-48 -229q-11 -49 -43 -77t-82 -28h-88l18 85h42q27 0 39 10.5t18 39.5l42 198l-53 81q66 66 142.5 101t169.5 35q98 0 153 -44t55 -118
q0 -18 -5 -45l-119 -564h-91q-33 30 -68 42.5t-81 12.5q-45 0 -91 -16t-83 -45z" />
    <glyph glyph-name="uni0E0F" unicode="&#xe0f;" horiz-adv-x="659" 
d="M70.5 -216q-26.5 8 -42.5 21l17 79q18 -13 42.5 -20.5t50.5 -7.5q87 0 119 77h60l96 -65l100 467q5 21 5 46q0 46 -29.5 67t-93.5 21q-55 0 -99 -15.5t-85 -50.5l45 -69l-48 -229q-11 -49 -43 -77t-82 -28h-88l18 85h42q27 0 39 10.5t18 39.5l42 198l-53 81
q66 66 142.5 101t169.5 35q100 0 154 -43t54 -118q0 -19 -5 -46l-119 -564h-97l-114 75q-53 -78 -159 -78q-30 0 -56.5 8z" />
    <glyph glyph-name="uni0E10" unicode="&#xe10;" horiz-adv-x="605" 
d="M84 294h101l7 -214q97 0 166 50.5t88 141.5q8 40 8 68q0 64 -40.5 96.5t-131.5 32.5q-51 0 -104 -9.5t-91 -25.5l17 80q40 17 95.5 26.5t111.5 9.5q91 0 154 -33l64 58h113l-119 -109q35 -47 35 -120q0 -31 -8 -73q-18 -83 -69 -144.5t-126 -95t-162 -33.5h-99zM4 -216
q-28 8 -44 21l16 74q36 -27 93 -27q44 0 72.5 18.5t47.5 59.5h54l101 -70l20 93h102l-37 -174h-95l-114 78q-29 -44 -67 -62.5t-91 -18.5q-30 0 -58 8z" />
    <glyph glyph-name="uni0E11" unicode="&#xe11;" horiz-adv-x="626" 
d="M67 222q7 33 28.5 62.5t57.5 70.5q16 18 29.5 35t17.5 28l1 3q-20 -11 -49 -11q-26 0 -41.5 13.5t-15.5 40.5q0 10 3 23l10 48h73l-7 -35q-2 -8 -2 -11q0 -20 27 -20q19 0 36 13l11 53h79l-8 -41q29 27 71 41.5t83 14.5q126 0 126 -116q0 -31 -7 -62l-79 -372h-102
l81 383q4 22 4 31q0 55 -64 55q-83 0 -141 -64q-11 -26 -26.5 -47t-37.5 -43q-26 -30 -39 -49t-18 -45l-46 -221h-102z" />
    <glyph glyph-name="uni0E12" unicode="&#xe12;" horiz-adv-x="1038" 
d="M143 8.5q-47 23.5 -74.5 69t-27.5 110.5q0 30 8 70q30 140 95 216t155 76q39 0 60 -15.5t31 -45.5q25 31 60.5 46t77.5 15q55 0 81 -28t26 -79q0 -25 -6 -55l-49 -231q39 -92 132 -92q63 0 99.5 30t49.5 91l74 349h101l-75 -353q-19 -88 -82 -142.5t-157 -54.5
q-51 0 -93.5 20.5t-70.5 64.5l-14 -70h-98l80 381q6 26 6 43q0 23 -11 34t-36 11q-28 0 -47 -15.5t-33 -46.5h-60q1 29 -9 45.5t-36 16.5q-54 0 -91.5 -60t-56.5 -151q-8 -40 -8 -68q0 -125 138 -125q37 0 72 10l-16 -79q-38 -11 -90 -11q-58 0 -105 23.5z" />
    <glyph glyph-name="uni0E13" unicode="&#xe13;" horiz-adv-x="996" 
d="M479 27q-42 42 -42 110q0 29 5 50l32 148q6 27 6 49q0 44 -27 64.5t-87 20.5q-52 0 -94 -16t-83 -53l28 -67l-42 -198q-3 -13 -3 -23q0 -14 9 -20.5t29 -6.5h61l-18 -85h-106q-42 0 -63 19t-21 55q0 9 4 31l48 228l-33 81q68 67 140.5 101.5t160.5 34.5q96 0 147.5 -40.5
t51.5 -114.5q0 -25 -6 -52l-33 -157q-5 -27 -5 -42q0 -42 25 -60.5t77 -18.5q48 0 92.5 23t79.5 69l80 378h102l-113 -535h-98l14 70q-85 -85 -201 -85q-75 0 -117 42z" />
    <glyph glyph-name="uni0E14" unicode="&#xe14;" horiz-adv-x="675" 
d="M98.5 37q-57.5 52 -57.5 147q0 38 8 74q30 140 122 216t234 76q117 0 172.5 -49t55.5 -129q0 -23 -7 -58l-66 -314h-102l66 315q6 27 6 50q0 51 -33 77.5t-109 26.5q-88 0 -151 -54t-85 -157q-8 -42 -8 -70q0 -62 33.5 -92.5t104.5 -30.5q39 0 72 10l-16 -79
q-38 -11 -90 -11q-92 0 -149.5 52z" />
    <glyph glyph-name="uni0E15" unicode="&#xe15;" horiz-adv-x="675" 
d="M96 35q-56 50 -56 145q0 36 9 78q30 138 97.5 215t157.5 77q74 0 92 -61q24 31 62 46t80 15q55 0 82.5 -29.5t27.5 -80.5q0 -23 -6 -52l-82 -388h-102l80 381q5 27 5 41q0 24 -11.5 35.5t-36.5 11.5q-56 0 -84 -62h-60q2 31 -9.5 46.5t-38.5 15.5q-47 0 -88 -54t-63 -157
q-8 -40 -8 -69q0 -124 138 -124q39 0 72 10l-16 -79q-38 -11 -90 -11q-96 0 -152 50z" />
    <glyph glyph-name="uni0E16" unicode="&#xe16;" horiz-adv-x="640" 
d="M84 19q-21 19 -21 55q0 9 4 31l48 228l-33 81q68 67 143.5 101.5t167.5 34.5q99 0 154.5 -42t55.5 -116q0 -23 -6 -49l-72 -343h-102l71 335q5 28 5 45q0 46 -29.5 67.5t-93.5 21.5q-56 0 -100 -16t-87 -53l28 -67l-42 -198q-3 -13 -3 -23q0 -14 9 -20.5t29 -6.5h61
l-18 -85h-106q-42 0 -63 19z" />
    <glyph glyph-name="uni0E17" unicode="&#xe17;" horiz-adv-x="628" 
d="M128 535h98l-15 -72q48 44 105 65.5t111 21.5q79 0 122.5 -40.5t43.5 -106.5q0 -19 -5 -46l-75 -357h-102l74 352q5 27 5 42q0 39 -25 57t-82 18q-109 0 -186 -91l-80 -378h-102z" />
    <glyph glyph-name="uni0E18" unicode="&#xe18;" horiz-adv-x="558" 
d="M80.5 20.5q-56.5 35.5 -56.5 95.5q0 14 3 29l15 67h101l-13 -61q-3 -13 -3 -24q0 -33 29 -48.5t90 -15.5q67 0 102 19.5t44 61.5q3 14 3 25q0 22 -13.5 35.5t-42 23t-88.5 25.5q-87 22 -130 49t-43 78q0 13 3 28q16 74 84 108t174 34q57 0 113 -12.5t86 -31.5l-18 -84
q-32 22 -82.5 34.5t-104.5 12.5q-68 0 -105 -12t-45 -49q-1 -4 -1 -13q0 -18 14.5 -30t40 -20.5t81.5 -23.5l21 -6q83 -23 120.5 -53t37.5 -82q0 -19 -4 -36q-14 -74 -79.5 -116.5t-184.5 -42.5q-92 0 -148.5 35.5z" />
    <glyph glyph-name="uni0E19" unicode="&#xe19;" horiz-adv-x="628" 
d="M93 26.5q-45 41.5 -45 109.5q0 19 5 46l75 353h102l-74 -349q-5 -25 -5 -41q0 -42 27 -61t84 -19q103 0 182 92l80 378h102l-113 -535h-99l15 72q-94 -87 -211 -87q-80 0 -125 41.5z" />
    <glyph glyph-name="uni0E1A" unicode="&#xe1a;" horiz-adv-x="643" 
d="M111 33q-58 48 -58 127q0 20 5 47l70 328h102l-69 -326q-6 -27 -6 -49q0 -49 31.5 -72t98.5 -23q154 0 185 144l69 326h102l-70 -328q-48 -222 -303 -222q-99 0 -157 48z" />
    <glyph glyph-name="uni0E1B" unicode="&#xe1b;" horiz-adv-x="643" 
d="M111 33q-58 48 -58 127q0 20 5 47l70 328h102l-69 -326q-6 -27 -6 -49q0 -49 31.5 -72t98.5 -23q154 0 185 144l107 505h102l-108 -507q-48 -222 -303 -222q-99 0 -157 48z" />
    <glyph glyph-name="uni0E1C" unicode="&#xe1c;" horiz-adv-x="644" 
d="M105 426q11 53 45 81t86 28h79l-18 -86h-36q-27 0 -41 -11.5t-20 -39.5l-53 -249l181 218h44l87 -218l82 386h101l-113 -535h-89l-108 269l-222 -269h-95z" />
    <glyph glyph-name="uni0E1D" unicode="&#xe1d;" horiz-adv-x="644" 
d="M105 426q11 53 45 81t86 28h79l-18 -86h-36q-27 0 -41 -11.5t-20 -39.5l-53 -249l181 218h44l87 -218l120 565h101l-151 -714h-89l-108 269l-222 -269h-95z" />
    <glyph glyph-name="uni0E1E" unicode="&#xe1e;" horiz-adv-x="778" 
d="M98 535h102l14 -392l199 392h78l32 -392l181 392h102l-262 -535h-83l-34 402l-205 -402h-89z" />
    <glyph glyph-name="uni0E1F" unicode="&#xe1f;" horiz-adv-x="757" 
d="M98 535h102l14 -392l199 392h78l32 -392l250 571h100l-329 -714h-83l-34 402l-205 -402h-89z" />
    <glyph glyph-name="uni0E20" unicode="&#xe20;" horiz-adv-x="659" 
d="M13 85h42q27 0 39 10.5t18 39.5l42 198l-53 81q66 66 142.5 101t169.5 35q101 0 154.5 -43.5t53.5 -116.5q0 -20 -5 -47l-72 -343h-102l71 335q5 21 5 46q0 46 -29.5 67t-93.5 21q-55 0 -99 -15.5t-85 -50.5l45 -69l-48 -229q-11 -49 -43 -77t-82 -28h-88z" />
    <glyph glyph-name="uni0E21" unicode="&#xe21;" horiz-adv-x="628" 
d="M202 7q-45 22 -74 65l-15 -72h-98l113 535h102l-80 -378q39 -92 142 -92q70 0 107.5 29.5t50.5 91.5l74 349h102l-75 -353q-19 -89 -83 -143t-166 -54q-55 0 -100 22z" />
    <glyph glyph-name="uni0E22" unicode="&#xe22;" horiz-adv-x="631" 
d="M86 21q-62 36 -62 103q0 17 4 33q9 44 41 77.5t75 46.5q-29 14 -46 39t-17 57q0 14 3 27q14 66 66.5 106t137.5 40q24 0 48 -3.5t39 -7.5l-17 -80q-12 5 -32 7.5t-37 2.5q-43 0 -69.5 -18.5t-33.5 -52.5q-2 -14 -2 -19q0 -55 81 -55h64l-17 -84h-63q-48 0 -78.5 -20.5
t-39.5 -62.5q-3 -12 -3 -22q0 -35 32 -52.5t102 -17.5q166 0 195 140l70 330h102l-70 -328q-22 -100 -93.5 -161t-220.5 -61q-97 0 -159 36z" />
    <glyph glyph-name="uni0E23" unicode="&#xe23;" horiz-adv-x="511" 
d="M86 -2.5q-54 12.5 -81 36.5l17 82q37 -26 86 -39.5t96 -13.5q66 0 98.5 15.5t40.5 53.5q2 12 2 17q0 27 -26.5 43t-100.5 40q-70 23 -106.5 53t-36.5 79q0 17 4 33q15 74 80.5 113.5t164.5 39.5q51 0 96.5 -11.5t71.5 -30.5l-17 -84q-30 21 -71.5 33t-87.5 12
q-59 0 -93 -16.5t-42 -55.5q-2 -12 -2 -16q0 -21 14.5 -34t38.5 -22t81 -27q73 -23 104 -51.5t31 -72.5q0 -16 -5 -43q-14 -66 -74.5 -106t-173.5 -40q-55 0 -109 12.5z" />
    <glyph glyph-name="uni0E24" unicode="&#xe24;" horiz-adv-x="640" 
d="M494 335q5 21 5 47q0 45 -29 66t-94 21q-56 0 -100 -16t-87 -53l28 -67l-42 -198q-3 -13 -3 -23q0 -14 9 -20.5t29 -6.5h61l-18 -85h-106q-42 0 -63 19t-21 55q0 9 4 31l48 228l-33 81q68 67 143.5 101.5t167.5 34.5q98 0 153.5 -42t55.5 -117q0 -27 -5 -48l-114 -539
h-102z" />
    <glyph glyph-name="uni0E25" unicode="&#xe25;" horiz-adv-x="607" 
d="M67 19.5q-44 34.5 -44 97.5q0 17 5 42q17 81 84.5 127.5t169.5 46.5q101 0 170 -37l9 41q6 27 6 48q0 44 -32 64t-108 20q-48 0 -96 -9t-85 -25l17 80q34 15 89.5 25t106.5 10q106 0 158.5 -44t52.5 -117q0 -24 -6 -50l-72 -339h-102l45 215q-64 37 -159 37
q-126 0 -146 -95q-4 -22 -4 -30q0 -32 23.5 -47t77.5 -15q37 0 65 10l-16 -79q-39 -11 -91 -11q-74 0 -118 34.5z" />
    <glyph glyph-name="uni0E26" unicode="&#xe26;" horiz-adv-x="659" 
d="M513 335q6 27 6 47q0 46 -30 66.5t-94 20.5q-55 0 -99 -15.5t-85 -50.5l45 -69l-48 -229q-11 -49 -43 -77t-82 -28h-88l18 85h42q27 0 39 10.5t18 39.5l42 198l-53 81q66 66 142.5 101t169.5 35q102 0 155 -42t53 -116q0 -28 -5 -49l-114 -539h-102z" />
    <glyph glyph-name="uni0E27" unicode="&#xe27;" horiz-adv-x="576" 
d="M1 30l17 82q58 -47 165 -47q98 0 163.5 51t86.5 151q8 40 8 69q0 67 -41.5 100t-130.5 33q-105 0 -183 -47l18 83q78 45 202 45q112 0 176 -54.5t64 -153.5q0 -34 -9 -75q-29 -137 -117 -209.5t-234 -72.5q-126 0 -185 45z" />
    <glyph glyph-name="uni0E28" unicode="&#xe28;" horiz-adv-x="643" 
d="M85 331q22 106 100.5 162.5t200.5 56.5q73 0 126 -25l55 50h113l-109 -99q28 -38 28 -94q0 -28 -5 -51l-70 -331h-102l70 331q5 20 5 45q0 47 -31 70t-97 23q-73 0 -120 -33.5t-62 -104.5l-21 -99q18 24 49 38.5t69 14.5h80l-18 -84h-88q-42 0 -76.5 -29.5t-42.5 -67.5
l-22 -104h-102z" />
    <glyph glyph-name="uni0E29" unicode="&#xe29;" horiz-adv-x="656" 
d="M111 32.5q-58 47.5 -58 126.5q0 27 5 48l70 328h102l-69 -326q-6 -27 -6 -49q0 -49 31.5 -72t98.5 -23q154 0 185 144l13 61h-127l18 84h127l38 181h102l-39 -181h59l-18 -84h-59l-13 -63q-48 -222 -303 -222q-99 0 -157 47.5z" />
    <glyph glyph-name="uni0E2A" unicode="&#xe2a;" horiz-adv-x="624" 
d="M67 19.5q-44 34.5 -44 97.5q0 17 5 42q17 81 84.5 127.5t169.5 46.5q101 0 170 -37l9 41q6 27 6 48q0 44 -32 64t-108 20q-48 0 -96 -9t-85 -25l17 80q34 15 89.5 25t106.5 10q90 0 143 -33l64 58h113l-125 -114q15 -33 15 -71q0 -21 -5 -51l-72 -339h-102l45 215
q-64 37 -159 37q-126 0 -146 -95q-4 -22 -4 -30q0 -32 23.5 -47t77.5 -15q37 0 65 10l-16 -79q-39 -11 -91 -11q-74 0 -118 34.5z" />
    <glyph glyph-name="uni0E2B" unicode="&#xe2b;" horiz-adv-x="613" 
d="M128 535h102l-50 -236l309 236h119l-174 -133q113 -31 113 -136q0 -25 -6 -54l-45 -212h-102l43 206q7 37 7 53q0 35 -20 54t-67 28l-201 -153l-39 -188h-102z" />
    <glyph glyph-name="uni0E2C" unicode="&#xe2c;" horiz-adv-x="651" 
d="M128 535h101l-81 -381l188 236h43l88 -236l53 247q6 29 6 48q0 32 -21 45t-73 13l12 57l144 150h113l-149 -156q76 -27 76 -106q0 -24 -6 -50l-85 -402h-90l-107 288l-230 -288h-95z" />
    <glyph glyph-name="uni0E2D" unicode="&#xe2d;" horiz-adv-x="609" 
d="M93.5 -0.5q-54.5 14.5 -90.5 40.5l57 266h222l-18 -82h-120l-30 -137q41 -22 112 -22q96 0 157 51t83 151q9 42 9 74q0 66 -43.5 97t-142.5 31q-52 0 -104 -10.5t-95 -33.5l20 87q40 18 96 28t116 10q122 0 189 -55t67 -155q0 -38 -8 -73q-60 -282 -361 -282
q-61 0 -115.5 14.5z" />
    <glyph glyph-name="uni0E2E" unicode="&#xe2e;" horiz-adv-x="623" 
d="M93.5 -0.5q-54.5 14.5 -90.5 40.5l57 266h222l-18 -82h-120l-30 -137q41 -22 112 -22q96 0 157 51t83 151q9 42 9 74q0 66 -43.5 97t-142.5 31q-52 0 -104 -10.5t-95 -33.5l20 87q40 18 96 28t116 10q99 0 165 -39l70 64h113l-127 -115q35 -50 35 -121q0 -30 -8 -72
q-60 -282 -361 -282q-61 0 -115.5 14.5z" />
    <glyph glyph-name="uni0E2F" unicode="&#xe2f;" horiz-adv-x="528" 
d="M365 258q-65 -36 -159 -36q-68 0 -110.5 34t-42.5 95q0 16 3 34q15 79 71.5 122t136.5 43q53 0 83 -13l-17 -77q-27 9 -60 9q-94 0 -111 -84q-3 -16 -3 -28q0 -30 21 -42.5t69 -12.5q74 0 137 39l41 194h102l-113 -535h-102z" />
    <glyph glyph-name="uni0E30" unicode="&#xe30;" horiz-adv-x="331" 
d="M93.5 338q-15.5 13 -15.5 39q0 13 3 29l12 57h92l-8 -38l-2 -12q0 -9 6 -13t20 -4h119l-15 -71h-161q-35 0 -50.5 13zM35.5 65q-15.5 13 -15.5 39q0 13 3 29l12 57h92l-8 -38l-2 -12q0 -9 6 -13t20 -4h119l-15 -71h-161q-35 0 -50.5 13z" />
    <glyph glyph-name="uni0E31" unicode="&#xe31;" 
d="M-240 670q0 8 4 30l11 52h92l-8 -40l-2 -12q0 -10 6 -13.5t21 -3.5h235l-15 -69h-276q-68 0 -68 56z" />
    <glyph glyph-name="uni0E32" unicode="&#xe32;" horiz-adv-x="420" 
d="M276 346q7 31 7 57q0 36 -22 51t-77 15q-63 0 -126 -28l17 80q24 13 64.5 21t80.5 8q81 0 122.5 -39.5t41.5 -109.5q0 -31 -7 -62l-72 -339h-102z" />
    <glyph glyph-name="uni0E33" unicode="&#xe33;" horiz-adv-x="424" 
d="M-118 609.5q-25 24.5 -25 61.5q0 15 2 23q10 47 47.5 79t85.5 32q39 0 64 -25t25 -63q0 -11 -3 -23q-10 -47 -46.5 -78t-85.5 -31q-39 0 -64 24.5zM-7.5 661.5q16.5 14.5 20.5 32.5q1 4 1 12q0 16 -9 25t-27 9t-34 -14t-20 -32q-2 -10 -2 -14q0 -15 9.5 -24t26.5 -9
q18 0 34.5 14.5zM280 346q7 31 7 57q0 36 -22 51t-77 15q-63 0 -126 -28l17 80q24 13 64.5 21t80.5 8q81 0 122.5 -39.5t41.5 -109.5q0 -31 -7 -62l-72 -339h-102z" />
    <glyph glyph-name="uni0E34" unicode="&#xe34;" 
d="M-401 683h431l-15 -69h-431z" />
    <glyph glyph-name="uni0E35" unicode="&#xe35;" 
d="M-402 683h339l21 107h93l-37 -176h-431z" />
    <glyph glyph-name="uni0E36" unicode="&#xe36;" 
d="M-402 681h263q-2 10 -2 17q0 15 4 26q13 38 43.5 59t69.5 21t60 -20.5t21 -52.5q0 -6 -2 -20q-9 -43 -42.5 -70t-84.5 -27h-344zM-13 682.5q17 17.5 17 40.5q0 15 -9.5 24.5t-28.5 9.5q-21 0 -37.5 -17.5t-16.5 -39.5q0 -15 10 -25t26 -10q22 0 39 17.5z" />
    <glyph glyph-name="uni0E37" unicode="&#xe37;" 
d="M-402 681h201l23 109h75l-23 -109h80l23 109h74l-37 -176h-430z" />
    <glyph glyph-name="uni0E38" unicode="&#xe38;" 
d="M-242 -161q2 12 2 14q0 10 -6 13.5t-21 3.5h-33l15 73h82q34 0 49 -10.5t15 -34.5q0 -14 -5 -37l-26 -124h-93z" />
    <glyph glyph-name="uni0E39" unicode="&#xe39;" 
d="M-381 -250.5q-29 20.5 -29 55.5q0 6 2 20l6 27q2 10 2 11q0 7 -4 9.5t-14 2.5h-34l14 68h88q21 0 30 -7.5t9 -23.5q0 -12 -2 -20l-13 -57q-1 -5 -1 -13q0 -31 40 -31q47 0 56 44l23 108h80l-24 -115q-9 -44 -47.5 -71.5t-97.5 -27.5q-55 0 -84 20.5z" />
    <glyph glyph-name="uni0E3A" unicode="&#xe3a;" 
d="M-233 -152.5q-13 12.5 -13 32.5q0 27 22 47.5t48 20.5q19 0 32.5 -13.5t13.5 -32.5q0 -26 -22 -46.5t-48 -20.5q-20 0 -33 12.5z" />
    <glyph glyph-name="uni0E3F" unicode="&#xe3f;" horiz-adv-x="649" 
d="M211 0h-196l148 699h196l22 103h89l-22 -103h36q73 0 116.5 -36t43.5 -103q0 -28 -5 -49q-11 -52 -43.5 -91.5t-77.5 -58.5q84 -26 84 -114q0 -22 -6 -49q-21 -95 -82 -146.5t-161 -51.5h-53l-22 -103h-89zM295 399l46 217h-94l-46 -217h94zM407 399q49 0 83 27t45 80
q6 26 6 45q0 36 -22 50.5t-73 14.5h-16l-46 -217h23zM228 83l49 232h-94l-49 -232h94zM347 83q59 0 95.5 26t50.5 89q4 19 4 37q0 42 -27.5 61t-82.5 19h-21l-49 -232h30z" />
    <glyph glyph-name="uni0E40" unicode="&#xe40;" horiz-adv-x="297" 
d="M54 19q-21 19 -21 54q0 10 4 32l91 430h102l-85 -402q-2 -7 -2 -19q0 -16 9.5 -22.5t31.5 -6.5h36l-18 -85h-87q-40 0 -61 19z" />
    <glyph glyph-name="uni0E41" unicode="&#xe41;" horiz-adv-x="555" 
d="M54 19q-21 19 -21 54q0 10 4 32l91 430h102l-85 -402q-2 -7 -2 -19q0 -16 9.5 -22.5t31.5 -6.5h36l-18 -85h-87q-40 0 -61 19zM311 19q-21 19 -21 55q0 9 4 31l91 430h102l-85 -402q-2 -7 -2 -18q0 -17 10 -23.5t32 -6.5h36l-18 -85h-88q-40 0 -61 19z" />
    <glyph glyph-name="uni0E42" unicode="&#xe42;" horiz-adv-x="330" 
d="M103 19q-21 19 -21 54q0 10 4 32l81 384q8 37 8 61q0 44 -20.5 72t-62.5 47l17 83h315l-18 -86h-179q50 -38 50 -114q0 -28 -8 -66l-75 -353q-3 -13 -3 -22q0 -15 8 -20.5t29 -5.5h41l-18 -85h-87q-40 0 -61 19z" />
    <glyph glyph-name="uni0E43" unicode="&#xe43;" horiz-adv-x="302" 
d="M58 19q-21 19 -21 54q0 10 4 32l57 271q11 51 37 86t68 74q29 28 43 45t18 37q2 8 2 20q0 22 -15.5 32.5t-51.5 10.5q-61 0 -117 -34l17 80q67 35 148 35q65 0 96 -27t31 -72q0 -18 -4 -34q-7 -32 -25.5 -56.5t-52.5 -56.5q-38 -36 -60 -65.5t-31 -71.5l-52 -246
q-3 -13 -3 -22q0 -15 8 -20.5t29 -5.5h41l-18 -85h-87q-40 0 -61 19z" />
    <glyph glyph-name="uni0E44" unicode="&#xe44;" horiz-adv-x="330" 
d="M88 20q-21 19 -21 54q0 10 4 32l81 379q14 67 42 110t79 71h-182l18 86h315l-17 -82q-65 -26 -101 -67t-52 -114l-75 -354q-3 -13 -3 -22q0 -15 8 -20.5t29 -5.5h41l-18 -86h-87q-40 0 -61 19z" />
    <glyph glyph-name="uni0E45" unicode="&#xe45;" horiz-adv-x="420" 
d="M276 346q7 31 7 57q0 36 -22 51t-77 15q-63 0 -126 -28l17 80q24 13 64.5 21t80.5 8q81 0 122.5 -39.5t41.5 -109.5q0 -31 -7 -62l-114 -535h-102z" />
    <glyph glyph-name="uni0E46" unicode="&#xe46;" horiz-adv-x="598" 
d="M463 388q6 26 6 43q0 20 -11 29t-37 9q-55 0 -77 -62h-61q2 33 -5.5 47.5t-34.5 14.5q-31 0 -54 -26.5t-34 -79.5q-5 -23 -5 -37q0 -30 19 -42.5t61 -12.5q40 0 72 10l-17 -79q-42 -11 -89 -11q-63 0 -106 31.5t-43 95.5q0 25 5 45q18 86 64.5 136.5t125.5 50.5
q39 0 59.5 -15.5t28.5 -45.5q44 61 124 61q59 0 87 -31t28 -84q0 -26 -6 -56l-80 -379h-102z" />
    <glyph glyph-name="uni0E47" unicode="&#xe47;" 
d="M-343.5 634.5q-25.5 23.5 -25.5 61.5q0 15 2 23q27 123 157 123h236l-12 -58h-229q-68 0 -79 -58q-3 -12 -3 -22q0 -17 10 -25t34 -8q28 0 46 15t23 40h58q-2 -12 -2 -15q0 -36 47 -36h55l-13 -60h-54q-29 0 -50.5 14t-23.5 33q-13 -21 -40.5 -36t-67.5 -15
q-43 0 -68.5 23.5z" />
    <glyph glyph-name="uni0E48" unicode="&#xe48;" 
d="M-48 781h100l-35 -167h-100z" />
    <glyph glyph-name="uni0E49" unicode="&#xe49;" 
d="M-186 677q1 4 1 10q0 12 -17 12h-45l15 72h75q27 0 39.5 -11.5t12.5 -28.5q0 -4 -2 -14l-8 -35h204l-14 -68h-274z" />
    <glyph glyph-name="uni0E4A" unicode="&#xe4a;" 
d="M-388 666q0 19 4 36q11 53 43.5 83t74.5 30q29 0 43.5 -10.5t19.5 -30.5q27 40 80 40q64 0 64 -57q0 -8 -4 -30l-12 -55h15q16 0 23.5 7.5t11.5 24.5l23 107h59l-22 -105q-21 -92 -113 -92h-64l18 85q3 14 3 24q0 13 -6 19t-19 6q-22 0 -32.5 -11.5t-14.5 -34.5l-4 -17
h-49l4 16q2 14 2 19q0 14 -6 21t-21 7q-21 0 -33.5 -13t-18.5 -42q-3 -13 -3 -26q0 -29 12 -53h-68q-10 23 -10 52z" />
    <glyph glyph-name="uni0E4B" unicode="&#xe4b;" 
d="M-115 664h-65l17 78h64l11 51h98l-11 -51h65l-17 -78h-65l-10 -50h-98z" />
    <glyph glyph-name="uni0E4C" unicode="&#xe4c;" 
d="M-211 671q17 78 102 78h220l-15 -67h-180q-18 0 -26 -7t-12 -25l-8 -36h-93z" />
    <glyph glyph-name="uni0E4D" unicode="&#xe4d;" 
d="M-118 629.5q-25 24.5 -25 61.5q0 15 2 23q10 47 47.5 79t85.5 32q39 0 64 -25t25 -63q0 -11 -3 -23q-10 -47 -46.5 -78t-85.5 -31q-39 0 -64 24.5zM-7.5 681.5q16.5 14.5 20.5 32.5q1 4 1 12q0 16 -9 25t-27 9t-34 -14t-20 -32q-2 -10 -2 -14q0 -15 9.5 -24t26.5 -9
q18 0 34.5 14.5z" />
    <glyph glyph-name="uni0E4E" unicode="&#xe4e;" 
d="M-169.5 630.5q-22.5 16.5 -22.5 46.5q0 5 2 19q9 39 36 60.5t65 24.5q-9 12 -9 26q0 36 29.5 58.5t68.5 22.5q37 0 56 -13l-9 -46q-19 14 -46 14q-33 0 -39 -26t31 -35l-10 -44q-20 6 -40 6q-30 0 -46 -10.5t-21 -34.5q-1 -3 -1 -9q0 -15 12 -22.5t34 -7.5q36 0 60 17
l-10 -47q-28 -16 -76 -16q-42 0 -64.5 16.5z" />
    <glyph glyph-name="uni0E4F" unicode="&#xe4f;" horiz-adv-x="597" 
d="M137.5 9.5q-46.5 24.5 -72.5 69t-26 102.5q0 22 7 59q15 73 59.5 131t109 91t138.5 33q61 0 108 -25t72.5 -69.5t25.5 -102.5q0 -28 -6 -58q-16 -74 -60.5 -132t-109.5 -90.5t-139 -32.5q-60 0 -106.5 24.5zM357 80q46 23 78 64.5t44 95.5q5 23 5 50q0 62 -37 96.5
t-110 34.5q-51 0 -96.5 -23t-77.5 -64t-43 -94q-6 -28 -6 -55q0 -61 36.5 -94.5t109.5 -33.5q51 0 97 23zM181 121q-31 28 -31 79q0 21 4 40q13 64 64 105t113 41q56 0 88 -28.5t32 -78.5q0 -16 -5 -39q-15 -65 -65.5 -106t-112.5 -41q-56 0 -87 28zM344.5 180.5
q27.5 22.5 34.5 59.5q3 17 3 30q0 26 -15.5 38.5t-49.5 12.5q-35 0 -62 -22.5t-35 -58.5q-4 -16 -4 -31q0 -26 15.5 -38.5t50.5 -12.5t62.5 22.5z" />
    <glyph glyph-name="uni0E50" unicode="&#xe50;" horiz-adv-x="641" 
d="M100 37.5q-61 52.5 -61 142.5q0 31 7 60q16 76 62 134t115 89.5t152 31.5q105 0 166.5 -53t61.5 -143q0 -29 -6 -59q-16 -76 -61.5 -134t-114.5 -89.5t-155 -31.5q-105 0 -166 52.5zM417.5 112.5q58.5 47.5 76.5 127.5q6 29 6 52q0 58 -35.5 90t-107.5 32
q-75 0 -134 -47.5t-75 -126.5q-6 -28 -6 -53q0 -59 35.5 -90.5t105.5 -31.5q76 0 134.5 47.5z" />
    <glyph glyph-name="uni0E51" unicode="&#xe51;" horiz-adv-x="630" 
d="M219 0q118 26 179.5 80.5t82.5 152.5q8 40 8 67q0 57 -34 85.5t-112 28.5q-75 0 -125 -39t-64 -106q-5 -27 -5 -43q0 -40 25 -59t81 -19q51 0 89 20l-16 -76q-46 -24 -111 -24q-75 0 -122.5 42t-47.5 113q0 19 5 46q23 107 103 166.5t206 59.5q114 0 172.5 -51t58.5 -140
q0 -31 -8 -69q-26 -123 -117 -201.5t-267 -120.5z" />
    <glyph glyph-name="uni0E52" unicode="&#xe52;" horiz-adv-x="721" 
d="M127.5 35q-68.5 50 -68.5 146q0 31 7 63l65 306h91l-65 -310q-7 -29 -7 -58q0 -60 41 -89t135 -29q90 0 154 38.5t82 120.5l28 133q3 15 3 26q0 16 -8.5 23t-29.5 7q-45 0 -75 -63h-63q1 33 -7 49t-32 16q-55 0 -76 -97q-4 -17 -4 -35q0 -64 74 -64q42 0 69 9l-17 -78
q-31 -9 -77 -9q-62 0 -99.5 35.5t-37.5 97.5q0 17 5 44q15 76 59.5 127t110.5 51q38 0 56 -16.5t23 -47.5q19 29 51 46.5t69 17.5q50 0 76.5 -25.5t26.5 -69.5q0 -18 -4 -34l-31 -145q-24 -113 -114.5 -174.5t-228.5 -61.5q-113 0 -181.5 50z" />
    <glyph glyph-name="uni0E53" unicode="&#xe53;" horiz-adv-x="665" 
d="M77.5 29.5q-42.5 44.5 -42.5 125.5q0 36 9 76q56 264 244 264q68 0 89 -53q23 24 58 38.5t71 14.5q56 0 89.5 -28t33.5 -77q0 -11 -4 -33l-75 -357h-95l73 348q3 12 3 22q0 44 -55 44q-28 0 -48 -15.5t-26 -44.5l-38 -178h-85l38 178q2 14 2 20q0 40 -45 40
q-48 0 -78.5 -45.5t-50.5 -139.5q-9 -43 -9 -75q0 -46 19.5 -67.5t60.5 -21.5q21 0 44 3t37 8l-18 -81q-40 -10 -90 -10q-69 0 -111.5 44.5z" />
    <glyph glyph-name="uni0E54" unicode="&#xe54;" horiz-adv-x="629" 
d="M94 43.5q-57 43.5 -57 128.5q0 31 7 62q26 121 112 194t237 73q65 0 95.5 3t51.5 16.5t35 43.5h98q-24 -51 -56.5 -82t-82 -46t-125.5 -15q-117 0 -179 -44t-84 -144q-7 -31 -7 -57q0 -51 30 -72.5t95 -21.5h54q-14 11 -21.5 29.5t-7.5 40.5q0 13 3 28q13 61 64 98
t122 37q69 0 101 -19l-17 -80q-12 8 -32.5 13t-42.5 5q-83 0 -98 -74q-3 -12 -3 -22q0 -56 84 -56h87l-17 -82h-287q-102 0 -159 43.5z" />
    <glyph glyph-name="uni0E55" unicode="&#xe55;" horiz-adv-x="629" 
d="M94 43.5q-57 43.5 -57 128.5q0 31 7 62q23 108 98.5 175t182.5 81q-7 11 -7 35q0 11 1 16q9 44 41 66.5t76 22.5q37 0 58.5 -19t21.5 -50q0 -5 -2 -19q-5 -22 -19 -38q33 2 53 15.5t34 44.5h91q-22 -53 -54 -83.5t-80.5 -44.5t-123.5 -14q-118 0 -182.5 -44.5
t-86.5 -144.5q-7 -31 -7 -57q0 -51 30 -72.5t95 -21.5h54q-14 11 -21.5 29.5t-7.5 40.5q0 13 3 28q13 61 64 98t122 37q69 0 101 -19l-17 -80q-12 8 -32.5 13t-42.5 5q-83 0 -98 -74q-3 -12 -3 -22q0 -56 84 -56h87l-17 -82h-287q-102 0 -159 43.5zM439.5 505.5
q14.5 12.5 18.5 30.5q1 4 1 11q0 14 -9 22.5t-25 8.5q-17 0 -31 -12t-19 -30q-1 -3 -1 -10q0 -14 9 -23.5t24 -9.5q18 0 32.5 12.5z" />
    <glyph glyph-name="uni0E56" unicode="&#xe56;" horiz-adv-x="652" 
d="M159 0.5q-53 15.5 -81 45.5l19 86q36 -34 85 -50.5t105 -16.5q83 0 141 44.5t76 127.5q8 40 8 67q0 55 -31.5 82.5t-102.5 27.5q-63 0 -117.5 -32t-89.5 -96h-72l-7 265h85l3 -161q39 50 98.5 77.5t130.5 27.5q103 0 154.5 -50.5t51.5 -136.5q0 -31 -8 -71
q-24 -114 -111 -183t-223 -69q-61 0 -114 15.5z" />
    <glyph glyph-name="uni0E57" unicode="&#xe57;" horiz-adv-x="834" 
d="M77.5 29.5q-42.5 44.5 -42.5 125.5q0 36 9 76q28 133 86.5 198.5t155.5 65.5q35 0 57 -14t32 -39q23 25 58 39t71 14q54 0 85.5 -32.5t31.5 -81.5q0 -11 -4 -33l-56 -267q43 0 68 18t35 64l82 387h89l-78 -370q-22 -101 -79.5 -140.5t-148.5 -39.5h-78l73 348q3 12 3 23
q0 43 -54 43q-28 0 -48 -15t-26 -44l-38 -179h-83l38 179q2 14 2 20q0 39 -45 39q-88 0 -128 -185q-10 -52 -10 -78q0 -45 19.5 -65.5t61.5 -20.5q21 0 44 3t37 8l-18 -81q-40 -10 -90 -10q-69 0 -111.5 44.5z" />
    <glyph glyph-name="uni0E58" unicode="&#xe58;" horiz-adv-x="660" 
d="M68 22.5q-36 37.5 -36 113.5q0 38 11 91q27 127 114.5 200.5t233.5 73.5q64 0 95.5 3.5t53 16.5t35.5 43h98q-36 -75 -96.5 -109t-163.5 -34q-121 0 -184.5 -46t-84.5 -148q-12 -57 -12 -92q0 -37 14 -54t45 -17t50.5 15.5t25.5 45.5l12 55h95l-12 -55q-2 -12 -2 -16
q0 -22 14 -33.5t39 -11.5q34 0 59 25.5t36 75.5q4 24 4 32q0 53 -55 53q-41 0 -66 -14l17 81q37 14 85 14t79.5 -33.5t31.5 -90.5q0 -22 -4 -42q-17 -85 -71 -132.5t-125 -47.5q-34 0 -61.5 12.5t-44.5 37.5q-21 -24 -56 -37t-73 -13q-65 0 -101 37.5z" />
    <glyph glyph-name="uni0E59" unicode="&#xe59;" horiz-adv-x="721" 
d="M109.5 5q-34.5 20 -54.5 59t-20 94q0 29 8 71q28 131 90.5 198.5t158.5 67.5q37 0 60 -14.5t34 -36.5q21 23 50.5 37t63.5 14q87 0 100 -69l76 124h86l-171 -281h-80l29 48q9 26 9 46q0 51 -54 51q-38 0 -58 -20t-20 -55l1 -13l29 -326h-86l-30 344q-3 37 -14.5 53.5
t-44.5 16.5q-43 0 -76 -48t-52 -137q-9 -42 -9 -73q0 -47 21 -69t64 -22q35 0 64 10l-17 -81q-37 -9 -82 -9q-41 0 -75.5 20z" />
    <glyph glyph-name="uni0E5A" unicode="&#xe5a;" horiz-adv-x="859" 
d="M385 258q-65 -36 -159 -36q-65 0 -109.5 34t-44.5 95q0 10 4 34q17 77 74.5 121t129.5 44q57 0 87 -13l-17 -77q-27 9 -60 9q-48 0 -74.5 -20t-36.5 -64q-3 -13 -3 -24q0 -31 22 -45t68 -14q74 0 137 39l41 194h102l-44 -208q25 -25 77 -25q72 0 135 39l41 194h102
l-113 -535h-102l54 258q-65 -36 -153 -36q-33 0 -61 13l-49 -235h-102z" />
    <glyph glyph-name="uni0E5B" unicode="&#xe5b;" horiz-adv-x="1135" 
d="M95.5 32q-58.5 47 -58.5 137q0 29 8 69q15 73 57 131.5t103 92t132 33.5q89 0 133.5 -37.5t44.5 -105.5q0 -24 -6 -53q-20 -92 -78 -136.5t-132 -44.5q-53 0 -87 22l18 83q13 -12 33.5 -19t44.5 -7q46 0 76 22.5t42 79.5q4 17 4 37q0 80 -105 80q-72 0 -125.5 -47
t-71.5 -131q-7 -37 -7 -57q0 -60 38.5 -88.5t119.5 -28.5q229 0 279 239l21 98h97l11 -160h2l56 146h81l8 -145h2l50 125h63l17 -121h2l30 52h105l-15 -68h-74l-40 -74h-52l-17 104h-2l-62 -129h-58l-18 144h-2l-72 -165h-60l-9 165h-2q-14 -86 -63.5 -152t-126 -102
t-168.5 -36q-108 0 -166.5 47z" />
    <glyph glyph-name="uni1E0C" unicode="&#x1e0c;" horiz-adv-x="703" 
d="M163 699h225q145 0 224 -72t79 -195q0 -36 -8 -79q-33 -176 -150.5 -264.5t-306.5 -88.5h-211zM243 85q140 0 224.5 69t112.5 199q9 44 9 81q0 179 -218 179h-124l-112 -528h108zM157 -153q-13 13 -13 33q0 27 22.5 48.5t49.5 21.5q19 0 32 -13.5t13 -33.5q0 -27 -22 -48
t-48 -21q-21 0 -34 13z" />
    <glyph glyph-name="uni1E0D" unicode="&#x1e0d;" horiz-adv-x="660" 
d="M137.5 8.5q-46.5 23.5 -73 67.5t-26.5 103q0 23 7 60q16 76 59.5 134t107.5 90t140 32q129 0 180 -79l69 323h101l-157 -739h-98l14 70q-49 -44 -101 -64.5t-117 -20.5q-59 0 -105.5 23.5zM398.5 97.5q53.5 32.5 84.5 87.5l23 108q-5 55 -46 88t-103 33
q-80 0 -136.5 -47.5t-73.5 -127.5q-5 -21 -5 -48q0 -60 36 -93t105 -33q62 0 115.5 32.5zM205 -153q-13 13 -13 33q0 27 22.5 48.5t49.5 21.5q19 0 32 -13.5t13 -33.5q0 -27 -22 -48t-48 -21q-21 0 -34 13z" />
    <glyph glyph-name="uni1E0E" unicode="&#x1e0e;" horiz-adv-x="703" 
d="M163 699h225q145 0 224 -72t79 -195q0 -36 -8 -79q-33 -176 -150.5 -264.5t-306.5 -88.5h-211zM243 85q140 0 224.5 69t112.5 199q9 44 9 81q0 179 -218 179h-124l-112 -528h108zM61 -71h313l-14 -70h-313z" />
    <glyph glyph-name="uni1E0F" unicode="&#x1e0f;" horiz-adv-x="660" 
d="M137.5 8.5q-46.5 23.5 -73 67.5t-26.5 103q0 23 7 60q16 76 59.5 134t107.5 90t140 32q129 0 180 -79l69 323h101l-157 -739h-98l14 70q-49 -44 -101 -64.5t-117 -20.5q-59 0 -105.5 23.5zM398.5 97.5q53.5 32.5 84.5 87.5l23 108q-5 55 -46 88t-103 33
q-80 0 -136.5 -47.5t-73.5 -127.5q-5 -21 -5 -48q0 -60 36 -93t105 -33q62 0 115.5 32.5zM117 -71h313l-14 -70h-313z" />
    <glyph glyph-name="uni1E20" unicode="&#x1e20;" horiz-adv-x="716" 
d="M387 831h311l-15 -69h-311zM203.5 18.5q-68.5 33.5 -106.5 96.5t-38 147q0 43 10 87q23 109 87.5 192t158 128t201.5 45q74 0 129.5 -17.5t96.5 -54.5l-21 -98q-38 39 -89.5 57.5t-126.5 18.5q-79 0 -149 -33t-118.5 -94.5t-65.5 -143.5q-9 -42 -9 -78q0 -92 57 -143
t166 -51q46 0 87 9.5t70 27.5l39 183h-133l17 83h235l-68 -320q-106 -75 -272 -75q-89 0 -157.5 33.5z" />
    <glyph glyph-name="uni1E21" unicode="&#x1e21;" horiz-adv-x="660" 
d="M251 624h311l-15 -69h-311zM123 -222q-45 8 -74 23l18 83q68 -34 167 -34q93 0 144 41t68 122l11 51q-82 -79 -211 -79q-59 0 -106 24.5t-73.5 69t-26.5 103.5q0 28 6 58q24 117 105.5 186t200.5 69q67 0 109 -19.5t73 -64.5l15 69h98l-97 -456q-27 -125 -106 -189.5
t-227 -64.5q-49 0 -94 8zM399.5 98q54.5 33 83.5 88l23 108q-7 56 -47 88t-102 32q-79 0 -135.5 -47.5t-73.5 -126.5q-6 -25 -6 -49q0 -59 36.5 -92.5t104.5 -33.5q62 0 116.5 33z" />
    <glyph glyph-name="uni1E24" unicode="&#x1e24;" horiz-adv-x="699" 
d="M163 699h102l-64 -300h365l64 300h102l-148 -699h-102l66 313h-365l-66 -313h-102zM231 -153q-13 13 -13 33q0 27 22.5 48.5t49.5 21.5q19 0 32 -13.5t13 -33.5q0 -27 -22 -48t-48 -21q-21 0 -34 13z" />
    <glyph glyph-name="uni1E25" unicode="&#x1e25;" horiz-adv-x="600" 
d="M172 739h101l-70 -325q86 81 202 81q76 0 115.5 -37.5t39.5 -101.5q0 -28 -5 -49l-65 -307h-101l63 297q5 21 5 46q0 36 -21.5 53.5t-71.5 17.5q-48 0 -94 -22.5t-86 -68.5l-68 -323h-101zM186 -153q-13 13 -13 33q0 27 22.5 48.5t49.5 21.5q19 0 32 -13.5t13 -33.5
q0 -27 -22 -48t-48 -21q-21 0 -34 13z" />
    <glyph glyph-name="uni1E2A" unicode="&#x1e2a;" horiz-adv-x="699" 
d="M163 699h102l-64 -300h365l64 300h102l-148 -699h-102l66 313h-365l-66 -313h-102zM166 -173q-33 29 -33 78q0 18 4 34h75q-2 -7 -2 -21q0 -24 15.5 -37.5t43.5 -13.5q34 0 57.5 19t30.5 53h80q-14 -63 -62.5 -102t-116.5 -39q-59 0 -92 29z" />
    <glyph glyph-name="uni1E2B" unicode="&#x1e2b;" horiz-adv-x="600" 
d="M172 739h101l-70 -325q86 81 202 81q76 0 115.5 -37.5t39.5 -101.5q0 -28 -5 -49l-65 -307h-101l63 297q5 21 5 46q0 36 -21.5 53.5t-71.5 17.5q-48 0 -94 -22.5t-86 -68.5l-68 -323h-101zM123 -173q-33 29 -33 78q0 18 4 34h75q-2 -7 -2 -21q0 -24 15.5 -37.5
t43.5 -13.5q34 0 57.5 19t30.5 53h80q-14 -63 -62.5 -102t-116.5 -39q-59 0 -92 29z" />
    <glyph glyph-name="uni1E36" unicode="&#x1e36;" horiz-adv-x="546" 
d="M163 699h102l-130 -614h354l-18 -85h-456zM154 -153q-13 13 -13 33q0 27 22.5 48.5t49.5 21.5q19 0 32 -13.5t13 -33.5q0 -27 -22 -48t-48 -21q-21 0 -34 13z" />
    <glyph glyph-name="uni1E37" unicode="&#x1e37;" horiz-adv-x="236" 
d="M175 739h101l-157 -739h-101zM0 -153q-13 13 -13 33q0 27 22.5 48.5t49.5 21.5q19 0 32 -13.5t13 -33.5q0 -27 -22 -48t-48 -21q-21 0 -34 13z" />
    <glyph glyph-name="uni1E38" unicode="&#x1e38;" horiz-adv-x="554" 
d="M199 842h311l-15 -69h-311zM171 699h102l-130 -614h354l-18 -85h-456zM177 -153q-13 13 -13 33q0 27 22.5 48.5t49.5 21.5q19 0 32 -13.5t13 -33.5q0 -27 -22 -48t-48 -21q-21 0 -34 13z" />
    <glyph glyph-name="uni1E39" unicode="&#x1e39;" horiz-adv-x="232" 
d="M92 854h311l-15 -69h-311zM173 739h101l-157 -739h-101zM-2 -153q-13 13 -13 33q0 27 22.5 48.5t49.5 21.5q19 0 32 -13.5t13 -33.5q0 -27 -22 -48t-48 -21q-21 0 -34 13z" />
    <glyph glyph-name="uni1E3A" unicode="&#x1e3a;" horiz-adv-x="546" 
d="M163 699h102l-130 -614h354l-18 -85h-456zM67 -71h313l-14 -70h-313z" />
    <glyph glyph-name="uni1E3B" unicode="&#x1e3b;" horiz-adv-x="234" 
d="M174 739h101l-157 -739h-101zM-105 -71h313l-14 -70h-313z" />
    <glyph glyph-name="uni1E42" unicode="&#x1e42;" horiz-adv-x="832" 
d="M163 699h99l133 -545l365 545h105l-148 -699h-99l105 497l-332 -497h-50l-123 497l-105 -497h-98zM298 -153q-13 13 -13 33q0 27 22.5 48.5t49.5 21.5q19 0 32 -13.5t13 -33.5q0 -27 -22 -48t-48 -21q-21 0 -34 13z" />
    <glyph glyph-name="uni1E43" unicode="&#x1e43;" horiz-adv-x="867" 
d="M117 480h96l-15 -69q43 42 90 63t94 21q104 0 125 -79q41 39 91.5 59t97.5 20q69 0 101.5 -32t32.5 -89q0 -25 -6 -55l-67 -319h-98l65 306q6 29 6 49q0 32 -18 45.5t-60 13.5q-79 0 -141 -66q-1 -13 -8 -49l-63 -299h-98l65 306q6 29 6 49q0 32 -16.5 45.5t-53.5 13.5
q-39 0 -80 -21.5t-80 -64.5l-69 -328h-99zM325 -153q-13 13 -13 33q0 27 22.5 48.5t49.5 21.5q19 0 32 -13.5t13 -33.5q0 -27 -22 -48t-48 -21q-21 0 -34 13z" />
    <glyph glyph-name="uni1E44" unicode="&#x1e44;" horiz-adv-x="686" 
d="M422.5 754q-13.5 13 -13.5 33q0 27 23 48.5t50 21.5q20 0 32.5 -12.5t12.5 -32.5q0 -28 -21.5 -49.5t-48.5 -21.5q-21 0 -34.5 13zM163 699h97l244 -527l112 527h103l-148 -699h-98l-244 527l-112 -527h-102z" />
    <glyph glyph-name="uni1E45" unicode="&#x1e45;" horiz-adv-x="600" 
d="M330.5 547q-13.5 13 -13.5 33q0 27 23 48.5t50 21.5q20 0 32.5 -12.5t12.5 -32.5q0 -28 -21.5 -49.5t-48.5 -21.5q-21 0 -34.5 13zM117 480h98l-15 -69q44 43 97.5 63.5t107.5 20.5q76 0 115.5 -39t39.5 -103q0 -19 -5 -46l-65 -307h-101l63 297q6 29 6 50q0 35 -21.5 51
t-72.5 16q-48 0 -94 -22.5t-86 -68.5l-68 -323h-101z" />
    <glyph glyph-name="uni1E46" unicode="&#x1e46;" horiz-adv-x="686" 
d="M163 699h97l244 -527l112 527h103l-148 -699h-98l-244 527l-112 -527h-102zM228 -153q-13 13 -13 33q0 27 22.5 48.5t49.5 21.5q19 0 32 -13.5t13 -33.5q0 -27 -22 -48t-48 -21q-21 0 -34 13z" />
    <glyph glyph-name="uni1E47" unicode="&#x1e47;" horiz-adv-x="600" 
d="M117 480h98l-15 -69q44 43 97.5 63.5t107.5 20.5q76 0 115.5 -39t39.5 -103q0 -19 -5 -46l-65 -307h-101l63 297q6 29 6 50q0 35 -21.5 51t-72.5 16q-48 0 -94 -22.5t-86 -68.5l-68 -323h-101zM184 -153q-13 13 -13 33q0 27 22.5 48.5t49.5 21.5q19 0 32 -13.5t13 -33.5
q0 -27 -22 -48t-48 -21q-21 0 -34 13z" />
    <glyph glyph-name="uni1E48" unicode="&#x1e48;" horiz-adv-x="686" 
d="M163 699h97l244 -527l112 527h103l-148 -699h-98l-244 527l-112 -527h-102zM130 -71h313l-14 -70h-313z" />
    <glyph glyph-name="uni1E49" unicode="&#x1e49;" horiz-adv-x="600" 
d="M117 480h98l-15 -69q44 43 97.5 63.5t107.5 20.5q76 0 115.5 -39t39.5 -103q0 -19 -5 -46l-65 -307h-101l63 297q6 29 6 50q0 35 -21.5 51t-72.5 16q-48 0 -94 -22.5t-86 -68.5l-68 -323h-101zM87 -71h313l-14 -70h-313z" />
    <glyph glyph-name="uni1E5A" unicode="&#x1e5a;" horiz-adv-x="623" 
d="M163 699h281q91 0 142 -42.5t51 -117.5q0 -25 -6 -52q-17 -79 -67.5 -132t-132.5 -71l94 -284h-106l-91 276h-153l-58 -276h-102zM355 362q67 0 113.5 31.5t59.5 93.5q5 21 5 44q0 45 -28.5 63.5t-87.5 18.5h-170l-54 -251h162zM182 -153q-13 13 -13 33q0 27 22.5 48.5
t49.5 21.5q19 0 32 -13.5t13 -33.5q0 -27 -22 -48t-48 -21q-21 0 -34 13z" />
    <glyph glyph-name="uni1E5B" unicode="&#x1e5b;" horiz-adv-x="412" 
d="M130 480h98l-19 -86q39 44 98.5 65t131.5 21l-17 -79q-77 0 -137 -25t-93 -79l-63 -297h-101zM5 -153q-13 13 -13 33q0 27 22.5 48.5t49.5 21.5q19 0 32 -13.5t13 -33.5q0 -27 -22 -48t-48 -21q-21 0 -34 13z" />
    <glyph glyph-name="uni1E5C" unicode="&#x1e5c;" horiz-adv-x="623" 
d="M253 843h311l-15 -69h-311zM163 699h281q91 0 142 -42.5t51 -117.5q0 -25 -6 -52q-17 -79 -67.5 -132t-132.5 -71l94 -284h-106l-91 276h-153l-58 -276h-102zM355 362q67 0 113.5 31.5t59.5 93.5q5 21 5 44q0 45 -28.5 63.5t-87.5 18.5h-170l-54 -251h162zM161 -153
q-13 13 -13 33q0 27 22.5 48.5t49.5 21.5q19 0 32 -13.5t13 -33.5q0 -27 -22 -48t-48 -21q-21 0 -34 13z" />
    <glyph glyph-name="uni1E5D" unicode="&#x1e5d;" horiz-adv-x="411" 
d="M152 643h311l-15 -69h-311zM129 480h98l-19 -86q39 44 98.5 65t131.5 21l-17 -79q-77 0 -137 -25t-93 -79l-63 -297h-101zM6 -153q-13 13 -13 33q0 27 22.5 48.5t49.5 21.5q19 0 32 -13.5t13 -33.5q0 -27 -22 -48t-48 -21q-21 0 -34 13z" />
    <glyph glyph-name="uni1E5E" unicode="&#x1e5e;" horiz-adv-x="623" 
d="M163 699h281q91 0 142 -42.5t51 -117.5q0 -25 -6 -52q-17 -79 -67.5 -132t-132.5 -71l94 -284h-106l-91 276h-153l-58 -276h-102zM355 362q67 0 113.5 31.5t59.5 93.5q5 21 5 44q0 45 -28.5 63.5t-87.5 18.5h-170l-54 -251h162zM73 -71h313l-14 -70h-313z" />
    <glyph glyph-name="uni1E5F" unicode="&#x1e5f;" horiz-adv-x="418" 
d="M136 480h98l-19 -86q39 44 98.5 65t131.5 21l-17 -79q-77 0 -137 -25t-93 -79l-63 -297h-101zM-15 -71h313l-14 -70h-313z" />
    <glyph glyph-name="uni1E60" unicode="&#x1e60;" horiz-adv-x="561" 
d="M363.5 754q-13.5 13 -13.5 33q0 27 23 48.5t50 21.5q20 0 32.5 -12.5t12.5 -32.5q0 -28 -21.5 -49.5t-48.5 -21.5q-21 0 -34.5 13zM89.5 -4.5q-55.5 10.5 -89.5 28.5l19 92q87 -45 198 -45q156 0 178 105q3 15 3 26q0 26 -15 44t-42.5 32.5t-85.5 39.5q-74 31 -110.5 71
t-36.5 94q0 19 5 44q17 85 91 136t186 51q57 0 101.5 -9t83.5 -29l-19 -88q-78 39 -167 39q-72 0 -115.5 -26t-53.5 -74q-3 -13 -3 -24q0 -36 29.5 -58.5t105.5 -56.5q83 -36 120 -71t37 -92q0 -22 -6 -49q-19 -92 -93 -141.5t-205 -49.5q-60 0 -115.5 10.5z" />
    <glyph glyph-name="uni1E61" unicode="&#x1e61;" horiz-adv-x="489" 
d="M271.5 547q-13.5 13 -13.5 33q0 27 23 48.5t50 21.5q20 0 32.5 -12.5t12.5 -32.5q0 -28 -21.5 -49.5t-48.5 -21.5q-21 0 -34.5 13zM84.5 -2.5q-53.5 12.5 -80.5 33.5l18 86q34 -24 82.5 -38t95.5 -14q54 0 82 13t34 42q2 10 2 14q0 16 -11 27t-34.5 20.5t-71.5 24.5
q-67 21 -100.5 48.5t-33.5 71.5q0 14 3 29q31 140 231 140q48 0 91.5 -9t68.5 -25l-17 -84q-25 17 -66 27t-85 10q-53 0 -83.5 -13t-37.5 -46q-2 -10 -2 -13q0 -16 11.5 -26t35 -18.5t73.5 -23.5q69 -20 101 -48t32 -72q0 -9 -4 -33q-29 -136 -231 -136q-50 0 -103.5 12.5z
" />
    <glyph glyph-name="uni1E62" unicode="&#x1e62;" horiz-adv-x="561" 
d="M89.5 -4.5q-55.5 10.5 -89.5 28.5l19 92q87 -45 198 -45q156 0 178 105q3 15 3 26q0 26 -15 44t-42.5 32.5t-85.5 39.5q-74 31 -110.5 71t-36.5 94q0 19 5 44q17 85 91 136t186 51q57 0 101.5 -9t83.5 -29l-19 -88q-78 39 -167 39q-72 0 -115.5 -26t-53.5 -74
q-3 -13 -3 -24q0 -36 29.5 -58.5t105.5 -56.5q83 -36 120 -71t37 -92q0 -22 -6 -49q-19 -92 -93 -141.5t-205 -49.5q-60 0 -115.5 10.5zM150 -153q-13 13 -13 33q0 27 22.5 48.5t49.5 21.5q19 0 32 -13.5t13 -33.5q0 -27 -22 -48t-48 -21q-21 0 -34 13z" />
    <glyph glyph-name="uni1E63" unicode="&#x1e63;" horiz-adv-x="489" 
d="M84.5 -2.5q-53.5 12.5 -80.5 33.5l18 86q34 -24 82.5 -38t95.5 -14q54 0 82 13t34 42q2 10 2 14q0 16 -11 27t-34.5 20.5t-71.5 24.5q-67 21 -100.5 48.5t-33.5 71.5q0 14 3 29q31 140 231 140q48 0 91.5 -9t68.5 -25l-17 -84q-25 17 -66 27t-85 10q-53 0 -83.5 -13
t-37.5 -46q-2 -10 -2 -13q0 -16 11.5 -26t35 -18.5t73.5 -23.5q69 -20 101 -48t32 -72q0 -9 -4 -33q-29 -136 -231 -136q-50 0 -103.5 12.5zM121 -153q-13 13 -13 33q0 27 22.5 48.5t49.5 21.5q19 0 32 -13.5t13 -33.5q0 -27 -22 -48t-48 -21q-21 0 -34 13z" />
    <glyph glyph-name="uni1E6C" unicode="&#x1e6c;" horiz-adv-x="587" 
d="M322 613h-217l18 86h537l-18 -86h-217l-130 -613h-103zM175 -153q-13 13 -13 33q0 27 22.5 48.5t49.5 21.5q19 0 32 -13.5t13 -33.5q0 -27 -22 -48t-48 -21q-21 0 -34 13z" />
    <glyph glyph-name="uni1E6D" unicode="&#x1e6d;" horiz-adv-x="374" 
d="M104 13.5q-31 28.5 -31 82.5q0 23 6 50l54 256h-73l17 78h73l30 144h102l-30 -144h118l-17 -78h-118l-53 -249q-5 -27 -5 -40q0 -26 14.5 -37t49.5 -11q15 0 34.5 3.5t34.5 9.5l-17 -80q-40 -13 -97 -13q-61 0 -92 28.5zM112 -153q-13 13 -13 33q0 27 22.5 48.5
t49.5 21.5q19 0 32 -13.5t13 -33.5q0 -27 -22 -48t-48 -21q-21 0 -34 13z" />
    <glyph glyph-name="uni1E6E" unicode="&#x1e6e;" horiz-adv-x="587" 
d="M322 613h-217l18 86h537l-18 -86h-217l-130 -613h-103zM71 -71h313l-14 -70h-313z" />
    <glyph glyph-name="uni1E6F" unicode="&#x1e6f;" horiz-adv-x="377" 
d="M104 13.5q-31 28.5 -31 82.5q0 23 6 50l54 256h-73l17 78h73l30 144h102l-30 -144h118l-17 -78h-118l-53 -249q-5 -27 -5 -40q0 -26 14.5 -37t49.5 -11q15 0 34.5 3.5t34.5 9.5l-17 -80q-40 -13 -97 -13q-61 0 -92 28.5zM-15 -71h313l-14 -70h-313z" />
    <glyph glyph-name="Wgrave" unicode="&#x1e80;" horiz-adv-x="1001" 
d="M509 913h107l32 -172h-93zM143 699h106l43 -531l267 531h80l40 -531l269 531h106l-352 -699h-94l-43 528l-266 -528h-100z" />
    <glyph glyph-name="wgrave" unicode="&#x1e81;" horiz-adv-x="818" 
d="M375 706h107l32 -172h-93zM97 480h103l32 -356l183 356h91l31 -356l184 356h104l-258 -480h-94l-35 358l-187 -358h-101z" />
    <glyph glyph-name="Wacute" unicode="&#x1e82;" horiz-adv-x="1001" 
d="M677 913h107l-120 -172h-92zM143 699h106l43 -531l267 531h80l40 -531l269 531h106l-352 -699h-94l-43 528l-266 -528h-100z" />
    <glyph glyph-name="wacute" unicode="&#x1e83;" horiz-adv-x="818" 
d="M538 706h107l-120 -172h-92zM97 480h103l32 -356l183 356h91l31 -356l184 356h104l-258 -480h-94l-35 358l-187 -358h-101z" />
    <glyph glyph-name="Wdieresis" unicode="&#x1e84;" horiz-adv-x="1001" 
d="M460.5 754q-13.5 13 -13.5 33q0 27 22.5 48.5t49.5 21.5q20 0 32.5 -12.5t12.5 -32.5q0 -28 -21.5 -49.5t-48.5 -21.5q-20 0 -33.5 13zM686.5 754q-13.5 13 -13.5 33q0 27 23 48.5t50 21.5q20 0 32.5 -12.5t12.5 -32.5q0 -28 -21.5 -49.5t-48.5 -21.5q-21 0 -34.5 13z
M143 699h106l43 -531l267 531h80l40 -531l269 531h106l-352 -699h-94l-43 528l-266 -528h-100z" />
    <glyph glyph-name="wdieresis" unicode="&#x1e85;" horiz-adv-x="818" 
d="M325.5 547q-13.5 13 -13.5 33q0 27 22.5 48.5t49.5 21.5q20 0 32.5 -12.5t12.5 -32.5q0 -28 -21.5 -49.5t-48.5 -21.5q-20 0 -33.5 13zM551.5 547q-13.5 13 -13.5 33q0 27 23 48.5t50 21.5q20 0 32.5 -12.5t12.5 -32.5q0 -28 -21.5 -49.5t-48.5 -21.5q-21 0 -34.5 13z
M97 480h103l32 -356l183 356h91l31 -356l184 356h104l-258 -480h-94l-35 358l-187 -358h-101z" />
    <glyph glyph-name="uni1E8E" unicode="&#x1e8e;" horiz-adv-x="700" 
d="M422.5 754q-13.5 13 -13.5 33q0 27 23 48.5t50 21.5q20 0 32.5 -12.5t12.5 -32.5q0 -28 -21.5 -49.5t-48.5 -21.5q-21 0 -34.5 13zM305 265l-162 434h106l123 -337l270 337h111l-349 -434l-56 -265h-99z" />
    <glyph glyph-name="uni1E8F" unicode="&#x1e8f;" horiz-adv-x="587" 
d="M338.5 547q-13.5 13 -13.5 33q0 27 23 48.5t50 21.5q20 0 32.5 -12.5t12.5 -32.5q0 -28 -21.5 -49.5t-48.5 -21.5q-21 0 -34.5 13zM73 -222q-45 8 -74 23l18 83q68 -34 167 -34q90 0 134.5 39.5t67.5 123.5l18 70q-83 -83 -199 -83q-76 0 -118 40.5t-42 105.5q0 18 5 45
l62 289h101l-61 -285q-5 -25 -5 -41q0 -38 22.5 -56t72.5 -18q101 0 178 91l66 309h101l-97 -456q-27 -126 -102 -190t-221 -64q-49 0 -94 8z" />
    <glyph glyph-name="uni1E92" unicode="&#x1e92;" horiz-adv-x="618" 
d="M9 69l503 544h-378l18 86h502l-15 -70l-501 -544h403l-18 -85h-528zM200 -153q-13 13 -13 33q0 27 22.5 48.5t49.5 21.5q19 0 32 -13.5t13 -33.5q0 -27 -22 -48t-48 -21q-21 0 -34 13z" />
    <glyph glyph-name="uni1E93" unicode="&#x1e93;" horiz-adv-x="499" 
d="M8 65l345 337h-267l17 78h393l-15 -66l-344 -336h283l-16 -78h-409zM130 -153q-13 13 -13 33q0 27 22.5 48.5t49.5 21.5q19 0 32 -13.5t13 -33.5q0 -27 -22 -48t-48 -21q-21 0 -34 13z" />
    <glyph glyph-name="uni1E97" unicode="&#x1e97;" horiz-adv-x="415" 
d="M136.5 680q-13.5 13 -13.5 33q0 27 22.5 48.5t49.5 21.5q20 0 32.5 -12.5t12.5 -32.5q0 -28 -21.5 -49.5t-48.5 -21.5q-20 0 -33.5 13zM362.5 680q-13.5 13 -13.5 33q0 27 23 48.5t50 21.5q20 0 32.5 -12.5t12.5 -32.5q0 -28 -21.5 -49.5t-48.5 -21.5q-21 0 -34.5 13z
M145 13.5q-31 28.5 -31 82.5q0 23 6 50l54 256h-73l17 78h73l30 144h102l-30 -144h118l-17 -78h-118l-53 -249q-5 -27 -5 -40q0 -26 14.5 -37t49.5 -11q15 0 34.5 3.5t34.5 9.5l-17 -80q-40 -13 -97 -13q-61 0 -92 28.5z" />
    <glyph glyph-name="uni1E9E" unicode="&#x1e9e;" horiz-adv-x="626" 
d="M175 4l20 94q42 -21 107 -21q142 0 168 124q4 16 4 32q0 49 -38 70.5t-100 21.5h-41l13 61l171 142q2 41 -25 66.5t-78 25.5q-60 0 -104 -36.5t-60 -110.5l-100 -473h-102l99 469q25 119 99.5 182t187.5 63q95 0 143 -45.5t48 -118.5q0 -19 -3 -39l-148 -121
q143 -18 143 -136q0 -26 -6 -56q-21 -96 -91.5 -154.5t-178.5 -58.5q-86 0 -128 19z" />
    <glyph glyph-name="uni1EA0" unicode="&#x1ea0;" horiz-adv-x="746" 
d="M422 699h98l131 -699h-101l-34 174h-309l-104 -174h-108zM507 259l-57 327l-195 -327h252zM254 -153q-13 13 -13 33q0 27 22.5 48.5t49.5 21.5q19 0 32 -13.5t13 -33.5q0 -27 -22 -48t-48 -21q-21 0 -34 13z" />
    <glyph glyph-name="uni1EA1" unicode="&#x1ea1;" horiz-adv-x="655" 
d="M138.5 9q-46.5 24 -73 68t-26.5 103q0 28 6 59q16 75 61 133t109.5 90.5t136.5 32.5q129 0 180 -79l14 64h101l-102 -480h-98l14 70q-49 -44 -101 -64.5t-117 -20.5q-58 0 -104.5 24zM398.5 97.5q53.5 32.5 84.5 87.5l23 108q-5 55 -46 88t-103 33q-74 0 -133.5 -48.5
t-76.5 -126.5q-7 -35 -7 -57q0 -117 143 -117q62 0 115.5 32.5zM247 -153q-13 13 -13 33q0 27 22.5 48.5t49.5 21.5q19 0 32 -13.5t13 -33.5q0 -27 -22 -48t-48 -21q-21 0 -34 13z" />
    <glyph glyph-name="uni1EA2" unicode="&#x1ea2;" horiz-adv-x="746" 
d="M451 813q47 0 72 12.5t31 40.5l2 12q0 32 -58 32q-13 0 -34.5 -3.5t-31.5 -7.5l12 55q16 5 41.5 9t48.5 4q56 0 84 -20t28 -56q0 -44 -31 -76t-83 -39l-7 -34h-89zM422 699h98l131 -699h-101l-34 174h-309l-104 -174h-108zM507 259l-57 327l-195 -327h252z" />
    <glyph glyph-name="uni1EA3" unicode="&#x1ea3;" horiz-adv-x="655" 
d="M414 606q47 0 72 12.5t31 40.5l2 12q0 32 -58 32q-13 0 -34.5 -3.5t-31.5 -7.5l12 55q16 5 41.5 9t48.5 4q56 0 84 -20t28 -56q0 -44 -31 -76t-83 -39l-7 -34h-89zM138.5 9q-46.5 24 -73 68t-26.5 103q0 28 6 59q16 75 61 133t109.5 90.5t136.5 32.5q129 0 180 -79l14 64
h101l-102 -480h-98l14 70q-49 -44 -101 -64.5t-117 -20.5q-58 0 -104.5 24zM398.5 97.5q53.5 32.5 84.5 87.5l23 108q-5 55 -46 88t-103 33q-74 0 -133.5 -48.5t-76.5 -126.5q-7 -35 -7 -57q0 -117 143 -117q62 0 115.5 32.5z" />
    <glyph glyph-name="uni1EA4" unicode="&#x1ea4;" horiz-adv-x="746" 
d="M703 972h91l-105 -124h-77zM467 892h86l106 -145h-95l-63 90l-101 -90h-102zM422 699h98l131 -699h-101l-34 174h-309l-104 -174h-108zM507 259l-57 327l-195 -327h252z" />
    <glyph glyph-name="uni1EA5" unicode="&#x1ea5;" horiz-adv-x="654" 
d="M673 759h91l-105 -124h-77zM437 679h86l106 -145h-95l-63 90l-101 -90h-102zM138.5 9q-46.5 24 -73 68t-26.5 103q0 28 6 59q16 75 61 133t109.5 90.5t136.5 32.5q129 0 180 -79l14 64h101l-102 -480h-98l14 70q-49 -44 -101 -64.5t-117 -20.5q-58 0 -104.5 24z
M398.5 97.5q53.5 32.5 84.5 87.5l23 108q-5 55 -46 88t-103 33q-74 0 -133.5 -48.5t-76.5 -126.5q-7 -35 -7 -57q0 -117 143 -117q62 0 115.5 32.5z" />
    <glyph glyph-name="uni1EA6" unicode="&#x1ea6;" horiz-adv-x="746" 
d="M266 966h91l40 -124h-78zM474 886h86l106 -145h-95l-63 90l-101 -90h-102zM422 699h98l131 -699h-101l-34 174h-309l-104 -174h-108zM507 259l-57 327l-195 -327h252z" />
    <glyph glyph-name="uni1EA7" unicode="&#x1ea7;" horiz-adv-x="655" 
d="M227 759h91l40 -124h-78zM435 679h86l106 -145h-95l-63 90l-101 -90h-102zM138.5 9q-46.5 24 -73 68t-26.5 103q0 28 6 59q16 75 61 133t109.5 90.5t136.5 32.5q129 0 180 -79l14 64h101l-102 -480h-98l14 70q-49 -44 -101 -64.5t-117 -20.5q-58 0 -104.5 24zM398.5 97.5
q53.5 32.5 84.5 87.5l23 108q-5 55 -46 88t-103 33q-74 0 -133.5 -48.5t-76.5 -126.5q-7 -35 -7 -57q0 -117 143 -117q62 0 115.5 32.5z" />
    <glyph glyph-name="uni1EA8" unicode="&#x1ea8;" horiz-adv-x="746" 
d="M626 889q30 0 46 8t20 26q3 16 -6 22.5t-31 6.5q-26 0 -44 -8l9 43q13 4 32 7t35 3q38 0 58.5 -14.5t20.5 -39.5q0 -29 -23 -51.5t-59 -27.5l-5 -25h-63zM470 892h86l106 -145h-95l-63 90l-101 -90h-102zM422 699h98l131 -699h-101l-34 174h-309l-104 -174h-108zM507 259
l-57 327l-195 -327h252z" />
    <glyph glyph-name="uni1EA9" unicode="&#x1ea9;" horiz-adv-x="651" 
d="M584 676q30 0 46 8t20 26q3 16 -6 22.5t-31 6.5q-26 0 -44 -8l9 43q13 4 32 7t35 3q38 0 58.5 -14.5t20.5 -39.5q0 -29 -23 -51.5t-59 -27.5l-5 -25h-63zM428 679h86l106 -145h-95l-63 90l-101 -90h-102zM138.5 9q-46.5 24 -73 68t-26.5 103q0 28 6 59q16 75 61 133
t109.5 90.5t136.5 32.5q129 0 180 -79l14 64h101l-102 -480h-98l14 70q-49 -44 -101 -64.5t-117 -20.5q-58 0 -104.5 24zM398.5 97.5q53.5 32.5 84.5 87.5l23 108q-5 55 -46 88t-103 33q-74 0 -133.5 -48.5t-76.5 -126.5q-7 -35 -7 -57q0 -117 143 -117q62 0 115.5 32.5z
" />
    <glyph glyph-name="uni1EAA" unicode="&#x1eaa;" horiz-adv-x="746" 
d="M363 969q32 36 88 36q19 0 35.5 -5.5t40.5 -16.5t39 -16.5t32 -5.5q49 0 89 44l-16 -75q-31 -35 -87 -35q-20 0 -36.5 5.5t-42.5 17.5q-23 10 -37 15t-31 5q-24 0 -45.5 -10t-44.5 -34zM457 886h86l106 -145h-95l-63 90l-101 -90h-102zM422 699h98l131 -699h-101l-34 174
h-309l-104 -174h-108zM507 259l-57 327l-195 -327h252z" />
    <glyph glyph-name="uni1EAB" unicode="&#x1eab;" horiz-adv-x="655" 
d="M338 762q32 36 88 36q19 0 35.5 -5.5t40.5 -16.5t39 -16.5t32 -5.5q49 0 89 44l-16 -75q-31 -35 -87 -35q-20 0 -36.5 5.5t-42.5 17.5q-23 10 -37 15t-31 5q-24 0 -45.5 -10t-44.5 -34zM432 679h86l106 -145h-95l-63 90l-101 -90h-102zM138.5 9q-46.5 24 -73 68
t-26.5 103q0 28 6 59q16 75 61 133t109.5 90.5t136.5 32.5q129 0 180 -79l14 64h101l-102 -480h-98l14 70q-49 -44 -101 -64.5t-117 -20.5q-58 0 -104.5 24zM398.5 97.5q53.5 32.5 84.5 87.5l23 108q-5 55 -46 88t-103 33q-74 0 -133.5 -48.5t-76.5 -126.5q-7 -35 -7 -57
q0 -117 143 -117q62 0 115.5 32.5z" />
    <glyph glyph-name="uni1EAC" unicode="&#x1eac;" horiz-adv-x="746" 
d="M471 907h89l106 -166h-99l-61 107l-107 -107h-105zM422 699h98l131 -699h-101l-34 174h-309l-104 -174h-108zM507 259l-57 327l-195 -327h252zM255 -153q-13 13 -13 33q0 27 22.5 48.5t49.5 21.5q19 0 32 -13.5t13 -33.5q0 -27 -22 -48t-48 -21q-21 0 -34 13z" />
    <glyph glyph-name="uni1EAD" unicode="&#x1ead;" horiz-adv-x="655" 
d="M425 700h89l106 -166h-99l-61 107l-107 -107h-105zM138.5 9q-46.5 24 -73 68t-26.5 103q0 28 6 59q16 75 61 133t109.5 90.5t136.5 32.5q129 0 180 -79l14 64h101l-102 -480h-98l14 70q-49 -44 -101 -64.5t-117 -20.5q-58 0 -104.5 24zM398.5 97.5q53.5 32.5 84.5 87.5
l23 108q-5 55 -46 88t-103 33q-74 0 -133.5 -48.5t-76.5 -126.5q-7 -35 -7 -57q0 -117 143 -117q62 0 115.5 32.5zM250 -153q-13 13 -13 33q0 27 22.5 48.5t49.5 21.5q19 0 32 -13.5t13 -33.5q0 -27 -22 -48t-48 -21q-21 0 -34 13z" />
    <glyph glyph-name="uni1EAE" unicode="&#x1eae;" horiz-adv-x="746" 
d="M547 998h83l-91 -124h-70zM390.5 770q-31.5 28 -31.5 76q0 9 4 33h72q-2 -14 -2 -19q0 -25 15 -38t43 -13q34 0 57 18.5t30 51.5h77q-13 -62 -60.5 -99.5t-114.5 -37.5q-58 0 -89.5 28zM422 699h98l131 -699h-101l-34 174h-309l-104 -174h-108zM507 259l-57 327
l-195 -327h252z" />
    <glyph glyph-name="uni1EAF" unicode="&#x1eaf;" horiz-adv-x="655" 
d="M511 791h83l-91 -124h-70zM354.5 563q-31.5 28 -31.5 76q0 9 4 33h72q-2 -14 -2 -19q0 -25 15 -38t43 -13q34 0 57 18.5t30 51.5h77q-13 -62 -60.5 -99.5t-114.5 -37.5q-58 0 -89.5 28zM138.5 9q-46.5 24 -73 68t-26.5 103q0 28 6 59q16 75 61 133t109.5 90.5t136.5 32.5
q129 0 180 -79l14 64h101l-102 -480h-98l14 70q-49 -44 -101 -64.5t-117 -20.5q-58 0 -104.5 24zM398.5 97.5q53.5 32.5 84.5 87.5l23 108q-5 55 -46 88t-103 33q-74 0 -133.5 -48.5t-76.5 -126.5q-7 -35 -7 -57q0 -117 143 -117q62 0 115.5 32.5z" />
    <glyph glyph-name="uni1EB0" unicode="&#x1eb0;" horiz-adv-x="746" 
d="M439 998h83l26 -124h-70zM390.5 770q-31.5 28 -31.5 76q0 9 4 33h72q-2 -14 -2 -19q0 -25 15 -38t43 -13q34 0 57 18.5t30 51.5h77q-13 -62 -60.5 -99.5t-114.5 -37.5q-58 0 -89.5 28zM422 699h98l131 -699h-101l-34 174h-309l-104 -174h-108zM507 259l-57 327l-195 -327
h252z" />
    <glyph glyph-name="uni1EB1" unicode="&#x1eb1;" horiz-adv-x="655" 
d="M401 788h83l26 -124h-70zM352.5 560q-31.5 28 -31.5 76q0 9 4 33h72q-2 -14 -2 -19q0 -25 15 -38t43 -13q34 0 57 18.5t30 51.5h77q-13 -62 -60.5 -99.5t-114.5 -37.5q-58 0 -89.5 28zM138.5 9q-46.5 24 -73 68t-26.5 103q0 28 6 59q16 75 61 133t109.5 90.5t136.5 32.5
q129 0 180 -79l14 64h101l-102 -480h-98l14 70q-49 -44 -101 -64.5t-117 -20.5q-58 0 -104.5 24zM398.5 97.5q53.5 32.5 84.5 87.5l23 108q-5 55 -46 88t-103 33q-74 0 -133.5 -48.5t-76.5 -126.5q-7 -35 -7 -57q0 -117 143 -117q62 0 115.5 32.5z" />
    <glyph glyph-name="uni1EB2" unicode="&#x1eb2;" horiz-adv-x="746" 
d="M484 912q31 0 46.5 7.5t19.5 25.5q1 3 1 8q0 12 -9.5 17t-28.5 5q-26 0 -44 -8l9 42q13 4 32 7t36 3q38 0 58 -14.5t20 -38.5q0 -31 -22 -52.5t-60 -27.5l-5 -24h-64zM391 770q-32 28 -32 76q0 11 4 33h71q-2 -14 -2 -19q0 -25 15.5 -38.5t44.5 -13.5q34 0 57.5 19
t30.5 52h75q-13 -62 -60 -99.5t-114 -37.5q-58 0 -90 28zM422 699h98l131 -699h-101l-34 174h-309l-104 -174h-108zM507 259l-57 327l-195 -327h252z" />
    <glyph glyph-name="uni1EB3" unicode="&#x1eb3;" horiz-adv-x="655" 
d="M445 702q31 0 46.5 7.5t19.5 25.5q1 3 1 8q0 12 -9.5 17t-28.5 5q-26 0 -44 -8l9 42q13 4 32 7t36 3q38 0 58 -14.5t20 -38.5q0 -31 -22 -52.5t-60 -27.5l-5 -24h-64zM352 560q-32 28 -32 76q0 11 4 33h71q-2 -14 -2 -19q0 -25 15.5 -38.5t44.5 -13.5q34 0 57.5 19
t30.5 52h75q-13 -62 -60 -99.5t-114 -37.5q-58 0 -90 28zM138.5 9q-46.5 24 -73 68t-26.5 103q0 28 6 59q16 75 61 133t109.5 90.5t136.5 32.5q129 0 180 -79l14 64h101l-102 -480h-98l14 70q-49 -44 -101 -64.5t-117 -20.5q-58 0 -104.5 24zM398.5 97.5
q53.5 32.5 84.5 87.5l23 108q-5 55 -46 88t-103 33q-74 0 -133.5 -48.5t-76.5 -126.5q-7 -35 -7 -57q0 -117 143 -117q62 0 115.5 32.5z" />
    <glyph glyph-name="uni1EB4" unicode="&#x1eb4;" horiz-adv-x="746" 
d="M373 981q32 36 88 36q19 0 35.5 -5.5t40.5 -16.5t39 -16.5t32 -5.5q49 0 89 44l-16 -75q-31 -35 -87 -35q-20 0 -36.5 5.5t-42.5 17.5q-23 10 -37 15t-31 5q-24 0 -45.5 -10t-44.5 -34zM393.5 770q-31.5 28 -31.5 76q0 9 4 33h71q-2 -14 -2 -19q0 -24 15.5 -37.5
t43.5 -13.5q34 0 57 18.5t30 51.5h77q-13 -62 -60.5 -99.5t-114.5 -37.5q-58 0 -89.5 28zM422 699h98l131 -699h-101l-34 174h-309l-104 -174h-108zM507 259l-57 327l-195 -327h252z" />
    <glyph glyph-name="uni1EB5" unicode="&#x1eb5;" horiz-adv-x="655" 
d="M348 774q32 36 88 36q19 0 35.5 -5.5t40.5 -16.5t39 -16.5t32 -5.5q49 0 89 44l-16 -75q-31 -35 -87 -35q-20 0 -36.5 5.5t-42.5 17.5q-23 10 -37 15t-31 5q-24 0 -45.5 -10t-44.5 -34zM368.5 563q-31.5 28 -31.5 76q0 9 4 33h71q-2 -14 -2 -19q0 -24 15.5 -37.5
t43.5 -13.5q34 0 57 18.5t30 51.5h77q-13 -62 -60.5 -99.5t-114.5 -37.5q-58 0 -89.5 28zM138.5 9q-46.5 24 -73 68t-26.5 103q0 28 6 59q16 75 61 133t109.5 90.5t136.5 32.5q129 0 180 -79l14 64h101l-102 -480h-98l14 70q-49 -44 -101 -64.5t-117 -20.5q-58 0 -104.5 24z
M398.5 97.5q53.5 32.5 84.5 87.5l23 108q-5 55 -46 88t-103 33q-74 0 -133.5 -48.5t-76.5 -126.5q-7 -35 -7 -57q0 -117 143 -117q62 0 115.5 32.5z" />
    <glyph glyph-name="uni1EB6" unicode="&#x1eb6;" horiz-adv-x="746" 
d="M387 771q-32 29 -32 79q0 16 3 32h75q-2 -7 -2 -20q0 -25 15.5 -38t44.5 -13q34 0 57 18.5t31 52.5h80q-13 -62 -62 -101t-118 -39q-60 0 -92 29zM422 699h98l131 -699h-101l-34 174h-309l-104 -174h-108zM507 259l-57 327l-195 -327h252zM255 -153q-13 13 -13 33
q0 27 22.5 48.5t49.5 21.5q19 0 32 -13.5t13 -33.5q0 -27 -22 -48t-48 -21q-21 0 -34 13z" />
    <glyph glyph-name="uni1EB7" unicode="&#x1eb7;" horiz-adv-x="655" 
d="M336 564q-32 29 -32 79q0 16 3 32h75q-2 -7 -2 -20q0 -25 15.5 -38t44.5 -13q34 0 57 18.5t31 52.5h80q-13 -62 -62 -101t-118 -39q-60 0 -92 29zM138.5 9q-46.5 24 -73 68t-26.5 103q0 28 6 59q16 75 61 133t109.5 90.5t136.5 32.5q129 0 180 -79l14 64h101l-102 -480
h-98l14 70q-49 -44 -101 -64.5t-117 -20.5q-58 0 -104.5 24zM398.5 97.5q53.5 32.5 84.5 87.5l23 108q-5 55 -46 88t-103 33q-74 0 -133.5 -48.5t-76.5 -126.5q-7 -35 -7 -57q0 -117 143 -117q62 0 115.5 32.5zM248 -153q-13 13 -13 33q0 27 22.5 48.5t49.5 21.5
q19 0 32 -13.5t13 -33.5q0 -27 -22 -48t-48 -21q-21 0 -34 13z" />
    <glyph glyph-name="uni1EB8" unicode="&#x1eb8;" horiz-adv-x="571" 
d="M163 699h461l-18 -86h-359l-47 -221h268l-18 -85h-268l-47 -222h359l-18 -85h-461zM167 -153q-13 13 -13 33q0 27 22.5 48.5t49.5 21.5q19 0 32 -13.5t13 -33.5q0 -27 -22 -48t-48 -21q-21 0 -34 13z" />
    <glyph glyph-name="uni1EB9" unicode="&#x1eb9;" horiz-adv-x="608" 
d="M101.5 35.5q-63.5 50.5 -63.5 142.5q0 30 7 61q26 120 105.5 188t209.5 68q67 0 115 -24.5t72.5 -67.5t24.5 -97q0 -27 -6 -56l-11 -50h-422q-2 -18 -2 -26q0 -57 42 -83t131 -26q46 0 95 8.5t88 22.5l-17 -81q-35 -13 -89.5 -21.5t-105.5 -8.5q-110 0 -173.5 50.5z
M475 271q4 26 4 37q0 106 -139 106q-76 0 -126.5 -39t-65.5 -104h327zM198 -153q-13 13 -13 33q0 27 22.5 48.5t49.5 21.5q19 0 32 -13.5t13 -33.5q0 -27 -22 -48t-48 -21q-21 0 -34 13z" />
    <glyph glyph-name="uni1EBA" unicode="&#x1eba;" horiz-adv-x="571" 
d="M360 813q47 0 72 12.5t31 40.5l2 12q0 32 -58 32q-13 0 -34.5 -3.5t-31.5 -7.5l12 55q16 5 41.5 9t48.5 4q56 0 84 -20t28 -56q0 -44 -31 -76t-83 -39l-7 -34h-89zM163 699h461l-18 -86h-359l-47 -221h268l-18 -85h-268l-47 -222h359l-18 -85h-461z" />
    <glyph glyph-name="uni1EBB" unicode="&#x1ebb;" horiz-adv-x="608" 
d="M344 613q47 0 72 12.5t31 40.5l2 12q0 32 -58 32q-13 0 -34.5 -3.5t-31.5 -7.5l12 55q16 5 41.5 9t48.5 4q56 0 84 -20t28 -56q0 -44 -31 -76t-83 -39l-7 -34h-89zM101.5 35.5q-63.5 50.5 -63.5 142.5q0 30 7 61q26 120 105.5 188t209.5 68q67 0 115 -24.5t72.5 -67.5
t24.5 -97q0 -27 -6 -56l-11 -50h-422q-2 -18 -2 -26q0 -57 42 -83t131 -26q46 0 95 8.5t88 22.5l-17 -81q-35 -13 -89.5 -21.5t-105.5 -8.5q-110 0 -173.5 50.5zM475 271q4 26 4 37q0 106 -139 106q-76 0 -126.5 -39t-65.5 -104h327z" />
    <glyph glyph-name="uni1EBC" unicode="&#x1ebc;" horiz-adv-x="571" 
d="M227 842q40 43 107 43q22 0 41 -6t49 -19q24 -12 43.5 -18.5t41.5 -6.5q30 0 55.5 11.5t50.5 39.5l-18 -86q-37 -42 -105 -42q-25 0 -46 6.5t-47 19.5q-25 12 -42.5 18t-38.5 6q-29 0 -55.5 -12t-53.5 -40zM163 699h461l-18 -86h-359l-47 -221h268l-18 -85h-268l-47 -222
h359l-18 -85h-461z" />
    <glyph glyph-name="uni1EBD" unicode="&#x1ebd;" horiz-adv-x="608" 
d="M208 632q40 43 107 43q22 0 41 -6t49 -19q24 -12 43.5 -18.5t41.5 -6.5q30 0 55.5 11.5t50.5 39.5l-18 -86q-37 -42 -105 -42q-25 0 -46 6.5t-47 19.5q-25 12 -42.5 18t-38.5 6q-29 0 -55.5 -12t-53.5 -40zM101.5 35.5q-63.5 50.5 -63.5 142.5q0 30 7 61
q26 120 105.5 188t209.5 68q67 0 115 -24.5t72.5 -67.5t24.5 -97q0 -27 -6 -56l-11 -50h-422q-2 -18 -2 -26q0 -57 42 -83t131 -26q46 0 95 8.5t88 22.5l-17 -81q-35 -13 -89.5 -21.5t-105.5 -8.5q-110 0 -173.5 50.5zM475 271q4 26 4 37q0 106 -139 106q-76 0 -126.5 -39
t-65.5 -104h327z" />
    <glyph glyph-name="uni1EBE" unicode="&#x1ebe;" horiz-adv-x="568" 
d="M606 966h91l-105 -124h-77zM370 886h86l106 -145h-95l-63 90l-101 -90h-102zM163 699h461l-18 -86h-359l-47 -221h268l-18 -85h-268l-47 -222h359l-18 -85h-461z" />
    <glyph glyph-name="uni1EBF" unicode="&#x1ebf;" horiz-adv-x="607" 
d="M602 764h91l-105 -124h-77zM366 684h86l106 -145h-95l-63 90l-101 -90h-102zM101.5 35.5q-63.5 50.5 -63.5 142.5q0 30 7 61q26 120 105.5 188t209.5 68q67 0 115 -24.5t72.5 -67.5t24.5 -97q0 -27 -6 -56l-11 -50h-422q-2 -18 -2 -26q0 -57 42 -83t131 -26q46 0 95 8.5
t88 22.5l-17 -81q-35 -13 -89.5 -21.5t-105.5 -8.5q-110 0 -173.5 50.5zM475 271q4 26 4 37q0 106 -139 106q-76 0 -126.5 -39t-65.5 -104h327z" />
    <glyph glyph-name="uni1EC0" unicode="&#x1ec0;" horiz-adv-x="581" 
d="M185 966h91l40 -124h-78zM393 886h86l106 -145h-95l-63 90l-101 -90h-102zM178 699h461l-18 -86h-359l-47 -221h268l-18 -85h-268l-47 -222h359l-18 -85h-461z" />
    <glyph glyph-name="uni1EC1" unicode="&#x1ec1;" horiz-adv-x="608" 
d="M147 764h91l40 -124h-78zM355 684h86l106 -145h-95l-63 90l-101 -90h-102zM101.5 35.5q-63.5 50.5 -63.5 142.5q0 30 7 61q26 120 105.5 188t209.5 68q67 0 115 -24.5t72.5 -67.5t24.5 -97q0 -27 -6 -56l-11 -50h-422q-2 -18 -2 -26q0 -57 42 -83t131 -26q46 0 95 8.5
t88 22.5l-17 -81q-35 -13 -89.5 -21.5t-105.5 -8.5q-110 0 -173.5 50.5zM475 271q4 26 4 37q0 106 -139 106q-76 0 -126.5 -39t-65.5 -104h327z" />
    <glyph glyph-name="uni1EC2" unicode="&#x1ec2;" horiz-adv-x="574" 
d="M556 883q30 0 46 8t20 26q3 16 -6 22.5t-31 6.5q-26 0 -44 -8l9 43q13 4 32 7t35 3q38 0 58.5 -14.5t20.5 -39.5q0 -29 -23 -51.5t-59 -27.5l-5 -25h-63zM400 886h86l106 -145h-95l-63 90l-101 -90h-102zM163 699h461l-18 -86h-359l-47 -221h268l-18 -85h-268l-47 -222
h359l-18 -85h-461z" />
    <glyph glyph-name="uni1EC3" unicode="&#x1ec3;" horiz-adv-x="605" 
d="M529 681q30 0 46 8t20 26q3 16 -6 22.5t-31 6.5q-26 0 -44 -8l9 43q13 4 32 7t35 3q38 0 58.5 -14.5t20.5 -39.5q0 -29 -23 -51.5t-59 -27.5l-5 -25h-63zM373 684h86l106 -145h-95l-63 90l-101 -90h-102zM101.5 35.5q-63.5 50.5 -63.5 142.5q0 30 7 61q26 120 105.5 188
t209.5 68q67 0 115 -24.5t72.5 -67.5t24.5 -97q0 -27 -6 -56l-11 -50h-422q-2 -18 -2 -26q0 -57 42 -83t131 -26q46 0 95 8.5t88 22.5l-17 -81q-35 -13 -89.5 -21.5t-105.5 -8.5q-110 0 -173.5 50.5zM475 271q4 26 4 37q0 106 -139 106q-76 0 -126.5 -39t-65.5 -104h327z
" />
    <glyph glyph-name="uni1EC4" unicode="&#x1ec4;" horiz-adv-x="571" 
d="M308 969q32 36 88 36q19 0 35.5 -5.5t40.5 -16.5t39 -16.5t32 -5.5q49 0 89 44l-16 -75q-31 -35 -87 -35q-20 0 -36.5 5.5t-42.5 17.5q-23 10 -37 15t-31 5q-24 0 -45.5 -10t-44.5 -34zM402 886h86l106 -145h-95l-63 90l-101 -90h-102zM163 699h461l-18 -86h-359
l-47 -221h268l-18 -85h-268l-47 -222h359l-18 -85h-461z" />
    <glyph glyph-name="uni1EC5" unicode="&#x1ec5;" horiz-adv-x="608" 
d="M274 767q32 36 88 36q19 0 35.5 -5.5t40.5 -16.5t39 -16.5t32 -5.5q49 0 89 44l-16 -75q-31 -35 -87 -35q-20 0 -36.5 5.5t-42.5 17.5q-23 10 -37 15t-31 5q-24 0 -45.5 -10t-44.5 -34zM368 684h86l106 -145h-95l-63 90l-101 -90h-102zM101.5 35.5
q-63.5 50.5 -63.5 142.5q0 30 7 61q26 120 105.5 188t209.5 68q67 0 115 -24.5t72.5 -67.5t24.5 -97q0 -27 -6 -56l-11 -50h-422q-2 -18 -2 -26q0 -57 42 -83t131 -26q46 0 95 8.5t88 22.5l-17 -81q-35 -13 -89.5 -21.5t-105.5 -8.5q-110 0 -173.5 50.5zM475 271q4 26 4 37
q0 106 -139 106q-76 0 -126.5 -39t-65.5 -104h327z" />
    <glyph glyph-name="uni1EC6" unicode="&#x1ec6;" horiz-adv-x="571" 
d="M384 918h89l106 -166h-99l-61 107l-107 -107h-105zM163 699h461l-18 -86h-359l-47 -221h268l-18 -85h-268l-47 -222h359l-18 -85h-461zM165 -153q-13 13 -13 33q0 27 22.5 48.5t49.5 21.5q19 0 32 -13.5t13 -33.5q0 -27 -22 -48t-48 -21q-21 0 -34 13z" />
    <glyph glyph-name="uni1EC7" unicode="&#x1ec7;" horiz-adv-x="608" 
d="M365 704h89l106 -166h-99l-61 107l-107 -107h-105zM101.5 35.5q-63.5 50.5 -63.5 142.5q0 30 7 61q26 120 105.5 188t209.5 68q67 0 115 -24.5t72.5 -67.5t24.5 -97q0 -27 -6 -56l-11 -50h-422q-2 -18 -2 -26q0 -57 42 -83t131 -26q46 0 95 8.5t88 22.5l-17 -81
q-35 -13 -89.5 -21.5t-105.5 -8.5q-110 0 -173.5 50.5zM475 271q4 26 4 37q0 106 -139 106q-76 0 -126.5 -39t-65.5 -104h327zM192 -153q-13 13 -13 33q0 27 22.5 48.5t49.5 21.5q19 0 32 -13.5t13 -33.5q0 -27 -22 -48t-48 -21q-21 0 -34 13z" />
    <glyph glyph-name="uni1EC8" unicode="&#x1ec8;" horiz-adv-x="236" 
d="M195 813q47 0 72 12.5t31 40.5l2 12q0 32 -58 32q-13 0 -34.5 -3.5t-31.5 -7.5l12 55q16 5 41.5 9t48.5 4q56 0 84 -20t28 -56q0 -44 -31 -76t-83 -39l-7 -34h-89zM164 699h103l-148 -699h-103z" />
    <glyph glyph-name="uni1EC9" unicode="&#x1ec9;" horiz-adv-x="232" 
d="M150 606q47 0 72 12.5t31 40.5l2 12q0 32 -58 32q-13 0 -34.5 -3.5t-31.5 -7.5l12 55q16 5 41.5 9t48.5 4q56 0 84 -20t28 -56q0 -44 -31 -76t-83 -39l-7 -34h-89zM117 480h102l-102 -480h-102z" />
    <glyph glyph-name="uni1ECA" unicode="&#x1eca;" horiz-adv-x="236" 
d="M164 699h103l-148 -699h-103zM0 -153q-13 13 -13 33q0 27 22.5 48.5t49.5 21.5q19 0 32 -13.5t13 -33.5q0 -27 -22 -48t-48 -21q-21 0 -34 13z" />
    <glyph glyph-name="uni1ECB" unicode="&#x1ecb;" horiz-adv-x="251" 
d="M161 587q-13 13 -13 33q0 29 22.5 50.5t50.5 21.5q22 0 35.5 -13t13.5 -34q0 -29 -22.5 -50t-51.5 -21q-22 0 -35 13zM125 480h103l-102 -480h-103zM7 -153q-13 13 -13 33q0 27 22.5 48.5t49.5 21.5q19 0 32 -13.5t13 -33.5q0 -27 -22 -48t-48 -21q-21 0 -34 13z" />
    <glyph glyph-name="uni1ECC" unicode="&#x1ecc;" horiz-adv-x="826" 
d="M206.5 20q-68.5 35 -107.5 99.5t-39 148.5q0 39 9 81q23 108 87 191t157 128.5t201 45.5q86 0 154.5 -35t107 -99t38.5 -149q0 -38 -9 -82q-23 -108 -86.5 -190.5t-156.5 -128t-203 -45.5q-84 0 -152.5 35zM520.5 110.5q67.5 33.5 115.5 95t66 143.5q8 36 8 76
q0 92 -55.5 143.5t-160.5 51.5q-75 0 -142 -33.5t-115 -95t-65 -142.5q-9 -40 -9 -75q0 -93 56.5 -145t159.5 -52q74 0 141.5 33.5zM295 -153q-13 13 -13 33q0 27 22.5 48.5t49.5 21.5q19 0 32 -13.5t13 -33.5q0 -27 -22 -48t-48 -21q-21 0 -34 13z" />
    <glyph glyph-name="uni1ECD" unicode="&#x1ecd;" horiz-adv-x="637" 
d="M98.5 36q-60.5 51 -60.5 141q0 31 7 62q16 77 61.5 135t114 89.5t152.5 31.5q105 0 165.5 -52.5t60.5 -142.5q0 -30 -7 -61q-25 -118 -112.5 -186t-215.5 -68q-105 0 -165.5 51zM415 113q56 48 73 126q6 30 6 56q0 119 -139 119q-78 0 -134 -47t-73 -128q-6 -28 -6 -53
q0 -58 34 -89.5t105 -31.5q78 0 134 48zM200 -153q-13 13 -13 33q0 27 22.5 48.5t49.5 21.5q19 0 32 -13.5t13 -33.5q0 -27 -22 -48t-48 -21q-21 0 -34 13z" />
    <glyph glyph-name="uni1ECE" unicode="&#x1ece;" horiz-adv-x="826" 
d="M490 813q47 0 72 12.5t31 40.5l2 12q0 32 -58 32q-13 0 -34.5 -3.5t-31.5 -7.5l12 55q16 5 41.5 9t48.5 4q56 0 84 -20t28 -56q0 -44 -31 -76t-83 -39l-7 -34h-89zM206.5 20q-68.5 35 -107.5 99.5t-39 148.5q0 39 9 81q23 108 87 191t157 128.5t201 45.5q86 0 154.5 -35
t107 -99t38.5 -149q0 -38 -9 -82q-23 -108 -86.5 -190.5t-156.5 -128t-203 -45.5q-84 0 -152.5 35zM520.5 110.5q67.5 33.5 115.5 95t66 143.5q8 36 8 76q0 92 -55.5 143.5t-160.5 51.5q-75 0 -142 -33.5t-115 -95t-65 -142.5q-9 -40 -9 -75q0 -93 56.5 -145t159.5 -52
q74 0 141.5 33.5z" />
    <glyph glyph-name="uni1ECF" unicode="&#x1ecf;" horiz-adv-x="637" 
d="M353 606q47 0 72 12.5t31 40.5l2 12q0 32 -58 32q-13 0 -34.5 -3.5t-31.5 -7.5l12 55q16 5 41.5 9t48.5 4q56 0 84 -20t28 -56q0 -44 -31 -76t-83 -39l-7 -34h-89zM98.5 36q-60.5 51 -60.5 141q0 31 7 62q16 77 61.5 135t114 89.5t152.5 31.5q105 0 165.5 -52.5
t60.5 -142.5q0 -30 -7 -61q-25 -118 -112.5 -186t-215.5 -68q-105 0 -165.5 51zM415 113q56 48 73 126q6 30 6 56q0 119 -139 119q-78 0 -134 -47t-73 -128q-6 -28 -6 -53q0 -58 34 -89.5t105 -31.5q78 0 134 48z" />
    <glyph glyph-name="uni1ED0" unicode="&#x1ed0;" horiz-adv-x="826" 
d="M755 966h91l-105 -124h-77zM519 886h86l106 -145h-95l-63 90l-101 -90h-102zM206.5 20q-68.5 35 -107.5 99.5t-39 148.5q0 39 9 81q23 108 87 191t157 128.5t201 45.5q86 0 154.5 -35t107 -99t38.5 -149q0 -38 -9 -82q-23 -108 -86.5 -190.5t-156.5 -128t-203 -45.5
q-84 0 -152.5 35zM520.5 110.5q67.5 33.5 115.5 95t66 143.5q8 36 8 76q0 92 -55.5 143.5t-160.5 51.5q-75 0 -142 -33.5t-115 -95t-65 -142.5q-9 -40 -9 -75q0 -93 56.5 -145t159.5 -52q74 0 141.5 33.5z" />
    <glyph glyph-name="uni1ED1" unicode="&#x1ed1;" horiz-adv-x="637" 
d="M608 759h91l-105 -124h-77zM372 679h86l106 -145h-95l-63 90l-101 -90h-102zM98.5 36q-60.5 51 -60.5 141q0 31 7 62q16 77 61.5 135t114 89.5t152.5 31.5q105 0 165.5 -52.5t60.5 -142.5q0 -30 -7 -61q-25 -118 -112.5 -186t-215.5 -68q-105 0 -165.5 51zM415 113
q56 48 73 126q6 30 6 56q0 119 -139 119q-78 0 -134 -47t-73 -128q-6 -28 -6 -53q0 -58 34 -89.5t105 -31.5q78 0 134 48z" />
    <glyph glyph-name="uni1ED2" unicode="&#x1ed2;" horiz-adv-x="826" 
d="M302 966h91l40 -124h-78zM510 886h86l106 -145h-95l-63 90l-101 -90h-102zM206.5 20q-68.5 35 -107.5 99.5t-39 148.5q0 39 9 81q23 108 87 191t157 128.5t201 45.5q86 0 154.5 -35t107 -99t38.5 -149q0 -38 -9 -82q-23 -108 -86.5 -190.5t-156.5 -128t-203 -45.5
q-84 0 -152.5 35zM520.5 110.5q67.5 33.5 115.5 95t66 143.5q8 36 8 76q0 92 -55.5 143.5t-160.5 51.5q-75 0 -142 -33.5t-115 -95t-65 -142.5q-9 -40 -9 -75q0 -93 56.5 -145t159.5 -52q74 0 141.5 33.5z" />
    <glyph glyph-name="uni1ED3" unicode="&#x1ed3;" horiz-adv-x="637" 
d="M168 759h91l40 -124h-78zM376 679h86l106 -145h-95l-63 90l-101 -90h-102zM98.5 36q-60.5 51 -60.5 141q0 31 7 62q16 77 61.5 135t114 89.5t152.5 31.5q105 0 165.5 -52.5t60.5 -142.5q0 -30 -7 -61q-25 -118 -112.5 -186t-215.5 -68q-105 0 -165.5 51zM415 113
q56 48 73 126q6 30 6 56q0 119 -139 119q-78 0 -134 -47t-73 -128q-6 -28 -6 -53q0 -58 34 -89.5t105 -31.5q78 0 134 48z" />
    <glyph glyph-name="uni1ED4" unicode="&#x1ed4;" horiz-adv-x="826" 
d="M669 883q30 0 46 8t20 26q3 16 -6 22.5t-31 6.5q-26 0 -44 -8l9 43q13 4 32 7t35 3q38 0 58.5 -14.5t20.5 -39.5q0 -29 -23 -51.5t-59 -27.5l-5 -25h-63zM513 886h86l106 -145h-95l-63 90l-101 -90h-102zM206.5 20q-68.5 35 -107.5 99.5t-39 148.5q0 39 9 81
q23 108 87 191t157 128.5t201 45.5q86 0 154.5 -35t107 -99t38.5 -149q0 -38 -9 -82q-23 -108 -86.5 -190.5t-156.5 -128t-203 -45.5q-84 0 -152.5 35zM520.5 110.5q67.5 33.5 115.5 95t66 143.5q8 36 8 76q0 92 -55.5 143.5t-160.5 51.5q-75 0 -142 -33.5t-115 -95
t-65 -142.5q-9 -40 -9 -75q0 -93 56.5 -145t159.5 -52q74 0 141.5 33.5z" />
    <glyph glyph-name="uni1ED5" unicode="&#x1ed5;" horiz-adv-x="637" 
d="M528 676q30 0 46 8t20 26q3 16 -6 22.5t-31 6.5q-26 0 -44 -8l9 43q13 4 32 7t35 3q38 0 58.5 -14.5t20.5 -39.5q0 -29 -23 -51.5t-59 -27.5l-5 -25h-63zM372 679h86l106 -145h-95l-63 90l-101 -90h-102zM98.5 36q-60.5 51 -60.5 141q0 31 7 62q16 77 61.5 135t114 89.5
t152.5 31.5q105 0 165.5 -52.5t60.5 -142.5q0 -30 -7 -61q-25 -118 -112.5 -186t-215.5 -68q-105 0 -165.5 51zM415 113q56 48 73 126q6 30 6 56q0 119 -139 119q-78 0 -134 -47t-73 -128q-6 -28 -6 -53q0 -58 34 -89.5t105 -31.5q78 0 134 48z" />
    <glyph glyph-name="uni1ED6" unicode="&#x1ed6;" horiz-adv-x="826" 
d="M413 981q32 36 88 36q19 0 35.5 -5.5t40.5 -16.5t39 -16.5t32 -5.5q49 0 89 44l-16 -75q-31 -35 -87 -35q-20 0 -36.5 5.5t-42.5 17.5q-23 10 -37 15t-31 5q-24 0 -45.5 -10t-44.5 -34zM433.5 770q-31.5 28 -31.5 76q0 9 4 33h71q-2 -14 -2 -19q0 -24 15.5 -37.5
t43.5 -13.5q34 0 57 18.5t30 51.5h77q-13 -62 -60.5 -99.5t-114.5 -37.5q-58 0 -89.5 28zM206.5 20q-68.5 35 -107.5 99.5t-39 148.5q0 39 9 81q23 108 87 191t157 128.5t201 45.5q86 0 154.5 -35t107 -99t38.5 -149q0 -38 -9 -82q-23 -108 -86.5 -190.5t-156.5 -128
t-203 -45.5q-84 0 -152.5 35zM520.5 110.5q67.5 33.5 115.5 95t66 143.5q8 36 8 76q0 92 -55.5 143.5t-160.5 51.5q-75 0 -142 -33.5t-115 -95t-65 -142.5q-9 -40 -9 -75q0 -93 56.5 -145t159.5 -52q74 0 141.5 33.5z" />
    <glyph glyph-name="uni1ED7" unicode="&#x1ed7;" horiz-adv-x="637" 
d="M275 774q32 36 88 36q19 0 35.5 -5.5t40.5 -16.5t39 -16.5t32 -5.5q49 0 89 44l-16 -75q-31 -35 -87 -35q-20 0 -36.5 5.5t-42.5 17.5q-23 10 -37 15t-31 5q-24 0 -45.5 -10t-44.5 -34zM295.5 563q-31.5 28 -31.5 76q0 9 4 33h71q-2 -14 -2 -19q0 -24 15.5 -37.5
t43.5 -13.5q34 0 57 18.5t30 51.5h77q-13 -62 -60.5 -99.5t-114.5 -37.5q-58 0 -89.5 28zM98.5 36q-60.5 51 -60.5 141q0 31 7 62q16 77 61.5 135t114 89.5t152.5 31.5q105 0 165.5 -52.5t60.5 -142.5q0 -30 -7 -61q-25 -118 -112.5 -186t-215.5 -68q-105 0 -165.5 51z
M415 113q56 48 73 126q6 30 6 56q0 119 -139 119q-78 0 -134 -47t-73 -128q-6 -28 -6 -53q0 -58 34 -89.5t105 -31.5q78 0 134 48z" />
    <glyph glyph-name="uni1ED8" unicode="&#x1ed8;" horiz-adv-x="826" 
d="M510 907h89l106 -166h-99l-61 107l-107 -107h-105zM206.5 20q-68.5 35 -107.5 99.5t-39 148.5q0 39 9 81q23 108 87 191t157 128.5t201 45.5q86 0 154.5 -35t107 -99t38.5 -149q0 -38 -9 -82q-23 -108 -86.5 -190.5t-156.5 -128t-203 -45.5q-84 0 -152.5 35zM520.5 110.5
q67.5 33.5 115.5 95t66 143.5q8 36 8 76q0 92 -55.5 143.5t-160.5 51.5q-75 0 -142 -33.5t-115 -95t-65 -142.5q-9 -40 -9 -75q0 -93 56.5 -145t159.5 -52q74 0 141.5 33.5zM295 -153q-13 13 -13 33q0 27 22.5 48.5t49.5 21.5q19 0 32 -13.5t13 -33.5q0 -27 -22 -48t-48 -21
q-21 0 -34 13z" />
    <glyph glyph-name="uni1ED9" unicode="&#x1ed9;" horiz-adv-x="637" 
d="M372 700h89l106 -166h-99l-61 107l-107 -107h-105zM98.5 36q-60.5 51 -60.5 141q0 31 7 62q16 77 61.5 135t114 89.5t152.5 31.5q105 0 165.5 -52.5t60.5 -142.5q0 -30 -7 -61q-25 -118 -112.5 -186t-215.5 -68q-105 0 -165.5 51zM415 113q56 48 73 126q6 30 6 56
q0 119 -139 119q-78 0 -134 -47t-73 -128q-6 -28 -6 -53q0 -58 34 -89.5t105 -31.5q78 0 134 48zM200 -153q-13 13 -13 33q0 27 22.5 48.5t49.5 21.5q19 0 32 -13.5t13 -33.5q0 -27 -22 -48t-48 -21q-21 0 -34 13z" />
    <glyph glyph-name="uni1EDA" unicode="&#x1eda;" horiz-adv-x="865" 
d="M583 913h107l-120 -172h-92zM206.5 20q-68.5 35 -107.5 99.5t-39 149.5q0 38 9 80q23 108 87 191t157 128.5t201 45.5q70 0 128.5 -23.5t99.5 -66.5q49 0 74.5 20.5t35.5 66.5l7 36h94l-8 -41q-12 -57 -54 -100t-100 -57q23 -54 23 -118q0 -38 -9 -82
q-23 -108 -86 -190.5t-156.5 -128t-203.5 -45.5q-84 0 -152.5 35zM520.5 110.5q67.5 33.5 115.5 95t66 143.5q8 36 8 76q0 92 -55.5 143.5t-160.5 51.5q-75 0 -142 -33.5t-115 -95t-65 -142.5q-9 -40 -9 -75q0 -93 56.5 -145t159.5 -52q74 0 141.5 33.5z" />
    <glyph glyph-name="uni1EDB" unicode="&#x1edb;" horiz-adv-x="680" 
d="M431 706h107l-120 -172h-92zM98.5 36q-60.5 51 -60.5 141q0 31 7 62q16 77 61.5 135t114 89.5t152.5 31.5q55 0 98.5 -15.5t73.5 -43.5q38 6 61 28.5t31 57.5l8 36h83l-9 -41q-10 -49 -46 -87.5t-88 -54.5q14 -36 14 -76q0 -23 -7 -60q-25 -118 -112.5 -186t-215.5 -68
q-105 0 -165.5 51zM415 113q56 48 73 126q6 30 6 56q0 119 -139 119q-78 0 -134 -47t-73 -128q-6 -28 -6 -53q0 -58 34 -89.5t105 -31.5q78 0 134 48z" />
    <glyph glyph-name="uni1EDC" unicode="&#x1edc;" horiz-adv-x="865" 
d="M423 913h107l32 -172h-93zM206.5 20q-68.5 35 -107.5 99.5t-39 149.5q0 38 9 80q23 108 87 191t157 128.5t201 45.5q70 0 128.5 -23.5t99.5 -66.5q49 0 74.5 20.5t35.5 66.5l7 36h94l-8 -41q-12 -57 -54 -100t-100 -57q23 -54 23 -118q0 -38 -9 -82q-23 -108 -86 -190.5
t-156.5 -128t-203.5 -45.5q-84 0 -152.5 35zM520.5 110.5q67.5 33.5 115.5 95t66 143.5q8 36 8 76q0 92 -55.5 143.5t-160.5 51.5q-75 0 -142 -33.5t-115 -95t-65 -142.5q-9 -40 -9 -75q0 -93 56.5 -145t159.5 -52q74 0 141.5 33.5z" />
    <glyph glyph-name="uni1EDD" unicode="&#x1edd;" horiz-adv-x="680" 
d="M287 706h107l32 -172h-93zM98.5 36q-60.5 51 -60.5 141q0 31 7 62q16 77 61.5 135t114 89.5t152.5 31.5q55 0 98.5 -15.5t73.5 -43.5q38 6 61 28.5t31 57.5l8 36h83l-9 -41q-10 -49 -46 -87.5t-88 -54.5q14 -36 14 -76q0 -23 -7 -60q-25 -118 -112.5 -186t-215.5 -68
q-105 0 -165.5 51zM415 113q56 48 73 126q6 30 6 56q0 119 -139 119q-78 0 -134 -47t-73 -128q-6 -28 -6 -53q0 -58 34 -89.5t105 -31.5q78 0 134 48z" />
    <glyph glyph-name="uni1EDE" unicode="&#x1ede;" horiz-adv-x="865" 
d="M492 813q47 0 72 12.5t31 40.5l2 12q0 32 -58 32q-13 0 -34.5 -3.5t-31.5 -7.5l12 55q16 5 41.5 9t48.5 4q56 0 84 -20t28 -56q0 -44 -31 -76t-83 -39l-7 -34h-89zM206.5 20q-68.5 35 -107.5 99.5t-39 149.5q0 38 9 80q23 108 87 191t157 128.5t201 45.5
q70 0 128.5 -23.5t99.5 -66.5q49 0 74.5 20.5t35.5 66.5l7 36h94l-8 -41q-12 -57 -54 -100t-100 -57q23 -54 23 -118q0 -38 -9 -82q-23 -108 -86 -190.5t-156.5 -128t-203.5 -45.5q-84 0 -152.5 35zM520.5 110.5q67.5 33.5 115.5 95t66 143.5q8 36 8 76q0 92 -55.5 143.5
t-160.5 51.5q-75 0 -142 -33.5t-115 -95t-65 -142.5q-9 -40 -9 -75q0 -93 56.5 -145t159.5 -52q74 0 141.5 33.5z" />
    </font>
</defs>
</svg>
